M48
;GenerationSoftware,Autodesk,EAGLE,8.6.3*%
;CreationDate,2023-08-17T09:39:46Z*%
FMAT,2
ICI,OFF
METRIC,TZ,000.000
T9C0.305
T8C0.350
T7C0.406
T6C0.800
T5C0.813
T4C0.889
T3C0.900
T2C0.950
T1C1.016
%
G90
M71
T1
X2515Y23597
X2515Y26137
X-1372Y35306
X-3912Y37846
X1168Y37846
X-3912Y35306
X-25Y23597
X-1753Y2311
X3607Y1956
X5055Y26137
X-25Y26137
X-4293Y2311
X5055Y23597
X-1372Y37846
X1168Y35306
X3708Y35306
X3708Y37846
X18847Y1956
X16307Y1956
X13767Y1956
X11227Y1956
X8687Y1956
X6147Y1956
T2
X-5770Y11903
X-5770Y7503
T3
X53594Y31115
X51054Y31115
X48514Y31115
T4
X42620Y2000
X45160Y2000
X47700Y2000
X22300Y38000
X42545Y6477
X37465Y6477
X27380Y38000
X29920Y38000
X32460Y38000
X35000Y38000
X37540Y38000
X40080Y38000
X42620Y38000
X45160Y38000
X47700Y38000
X40005Y6477
X34925Y6477
X24840Y38000
X22300Y2000
X24840Y2000
X27380Y2000
X29920Y2000
X32460Y2000
X35000Y2000
X37540Y2000
X40080Y2000
T5
X12700Y35814
X7620Y35814
X7620Y38862
X12700Y38862
X10160Y38862
X10160Y35814
T6
X-4420Y30820
X-4420Y28820
X-4420Y22470
X-4420Y24470
T7
X-9779Y33782
X-3327Y36754
X-9627Y22835
X-8865Y22835
X40005Y15367
X15773Y7493
X20701Y1778
X-7595Y5182
X-6071Y4547
X9830Y3759
X-4902Y6502
X47498Y9398
X45339Y6350
X46609Y9398
X42926Y3556
X40386Y3556
X37973Y3556
X53721Y4318
X20828Y3175
X46761Y4597
X8026Y23393
X28575Y39116
X36830Y35941
X33782Y39243
X36322Y39243
X40386Y16891
X37719Y15494
X12167Y5232
X39497Y26670
X36068Y24257
X31877Y18796
X28981Y10363
X50749Y9754
X51841Y8230
X36068Y16129
X20930Y11201
X16866Y12192
X39751Y24130
X40513Y24130
X40386Y26670
X32258Y32893
X38989Y16383
X37973Y16510
X53467Y32893
X52578Y32893
X46609Y31369
X46863Y32258
X46736Y34671
X50673Y889
X12573Y27178
X18796Y33020
X18796Y33909
X-8992Y35916
X-9881Y34773
X-9881Y35789
X-8230Y35535
X-8992Y35027
X31115Y39192
X35306Y27686
X38227Y17653
X39243Y17780
X32004Y22225
X52070Y24511
X52832Y24511
X53594Y24638
X30099Y31242
X22911Y23622
X21717Y22352
X22225Y24257
X5512Y19888
X2489Y20091
X16434Y15164
X-2845Y32258
X-7442Y32944
X-8738Y29566
X8458Y21590
X10135Y24892
X8306Y25857
X-9271Y10490
X-9271Y12065
X-8738Y27026
X51943Y22225
X-8738Y28677
X53467Y22098
X-8738Y26264
X-8738Y27788
X-9500Y21565
X-8738Y21565
T8
X15113Y12243
X23557Y1411
X21884Y14678
X32995Y5817
X8966Y9154
X-889Y6960
X20269Y4877
X6147Y28778
X9693Y26756
X-356Y21006
X1448Y28067
X-6325Y33249
X29870Y6706
X22225Y5029
X22657Y10363
X14732Y29718
X8255Y29337
X4826Y17148
X1016Y8616
X11707Y14605
X30556Y12881
X-2108Y16637
X7772Y4851
X23216Y36805
X15748Y34925
X4674Y9855
X17094Y3708
X-765Y24841
X-3658Y19914
X2339Y10185
X2339Y7874
X4109Y20014
X3302Y19888
X-2536Y19050
X-2845Y12319
X14656Y9246
X10897Y9401
X12929Y8788
X9119Y14046
X20066Y22860
X39116Y36068
X18390Y18999
X8738Y15773
X10897Y21133
X3607Y29439
X10084Y21031
X2159Y29159
X10719Y23825
X20828Y20701
X7564Y17216
X24150Y11359
X24765Y16129
X6852Y22200
X25389Y11673
X7391Y20879
X15824Y16815
X11125Y13002
X9728Y17170
X23393Y12443
X20523Y38456
X11405Y39825
X16510Y32893
X13081Y21057
X16078Y13411
X24892Y14097
X18461Y6752
X14676Y7209
X10084Y9398
X5893Y20650
X2235Y22301
X7952Y9246
X7145Y9468
X13614Y9957
X5639Y9601
X-8992Y19025
X16967Y9099
X7766Y13002
X47574Y8484
X45491Y7595
X34109Y18212
X17069Y9906
X8611Y12421
X7310Y15657
X6014Y14844
X18161Y8331
X17856Y5613
X19304Y5715
X18117Y17602
X21082Y7300
X12288Y15276
X15621Y18567
X-2464Y15291
X-660Y13919
X17859Y23676
X-2515Y21031
X17856Y26111
X24054Y27635
X16256Y33909
X23673Y35712
X27305Y17145
X14072Y21285
X17704Y6350
X9093Y21031
X15240Y23876
X9728Y10135
T9
X31877Y27940
X43815Y9144
X49657Y14986
X21590Y16256
X34925Y31623
X43815Y27940
X21920Y16967
X27178Y29591
X19685Y14097
X29362Y11100
X45593Y26543
X43688Y22987
X40640Y34798
X24511Y3429
X44450Y20447
X45466Y21717
X45974Y17018
X21463Y15367
X30861Y28067
X30226Y32893
M30