G04 EAGLE Gerber X2 export*
%TF.Part,Single*%
%TF.FileFunction,Profile,NP*%
%TF.FilePolarity,Positive*%
%TF.GenerationSoftware,Autodesk,EAGLE,8.6.3*%
%TF.CreationDate,2023-08-17T09:39:48Z*%
G75*
%MOMM*%
%FSLAX34Y34*%
%LPD*%
%AMOC8*
5,1,8,0,0,1.08239X$1,22.5*%
G01*
%ADD10C,0.254000*%


D10*
X-108966Y21016D02*
X-109058Y19066D01*
X-108980Y17115D01*
X-108733Y15179D01*
X-108317Y13271D01*
X-107737Y11407D01*
X-106996Y9601D01*
X-106101Y7866D01*
X-105058Y6215D01*
X-103875Y4662D01*
X-102562Y3218D01*
X-101127Y1894D01*
X-99583Y700D01*
X-97940Y-355D01*
X-96212Y-1263D01*
X-94411Y-2017D01*
X-92551Y-2611D01*
X-90647Y-3040D01*
X-88712Y-3302D01*
X530254Y-3810D01*
X532144Y-3550D01*
X534005Y-3126D01*
X535821Y-2542D01*
X537580Y-1802D01*
X539267Y-911D01*
X540871Y124D01*
X542378Y1294D01*
X543777Y2591D01*
X545058Y4005D01*
X546211Y5526D01*
X547227Y7141D01*
X548098Y8839D01*
X548818Y10606D01*
X549382Y12429D01*
X549784Y14294D01*
X550022Y16187D01*
X550094Y18094D01*
X550000Y20000D01*
X550000Y380000D01*
X550139Y381886D01*
X550114Y383776D01*
X549924Y385657D01*
X549571Y387515D01*
X549057Y389334D01*
X548386Y391102D01*
X547564Y392805D01*
X546597Y394430D01*
X545492Y395964D01*
X544257Y397396D01*
X542902Y398715D01*
X541438Y399910D01*
X539874Y400974D01*
X538224Y401897D01*
X536500Y402673D01*
X534715Y403296D01*
X532882Y403761D01*
X531016Y404064D01*
X-88712Y404064D01*
X-90594Y403860D01*
X-92450Y403493D01*
X-94268Y402965D01*
X-96033Y402280D01*
X-97731Y401445D01*
X-99350Y400465D01*
X-100878Y399347D01*
X-102302Y398101D01*
X-103612Y396735D01*
X-104799Y395260D01*
X-105852Y393687D01*
X-106764Y392029D01*
X-107528Y390297D01*
X-108138Y388505D01*
X-108590Y386667D01*
X-108880Y384797D01*
X-109005Y382908D01*
X-108966Y381016D01*
X-108966Y21016D01*
X541430Y19551D02*
X541360Y18656D01*
X541219Y17768D01*
X541009Y16895D01*
X540732Y16041D01*
X540388Y15211D01*
X539980Y14411D01*
X539511Y13645D01*
X538983Y12918D01*
X538400Y12235D01*
X537765Y11600D01*
X537082Y11017D01*
X536355Y10489D01*
X535589Y10020D01*
X534789Y9612D01*
X533959Y9268D01*
X533105Y8991D01*
X532232Y8781D01*
X531345Y8640D01*
X530449Y8570D01*
X529551Y8570D01*
X528656Y8640D01*
X527768Y8781D01*
X526895Y8991D01*
X526041Y9268D01*
X525211Y9612D01*
X524411Y10020D01*
X523645Y10489D01*
X522918Y11017D01*
X522235Y11600D01*
X521600Y12235D01*
X521017Y12918D01*
X520489Y13645D01*
X520020Y14411D01*
X519612Y15211D01*
X519268Y16041D01*
X518991Y16895D01*
X518781Y17768D01*
X518640Y18656D01*
X518570Y19551D01*
X518570Y20449D01*
X518640Y21345D01*
X518781Y22232D01*
X518991Y23105D01*
X519268Y23959D01*
X519612Y24789D01*
X520020Y25589D01*
X520489Y26355D01*
X521017Y27082D01*
X521600Y27765D01*
X522235Y28400D01*
X522918Y28983D01*
X523645Y29511D01*
X524411Y29980D01*
X525211Y30388D01*
X526041Y30732D01*
X526895Y31009D01*
X527768Y31219D01*
X528656Y31360D01*
X529551Y31430D01*
X530449Y31430D01*
X531345Y31360D01*
X532232Y31219D01*
X533105Y31009D01*
X533959Y30732D01*
X534789Y30388D01*
X535589Y29980D01*
X536355Y29511D01*
X537082Y28983D01*
X537765Y28400D01*
X538400Y27765D01*
X538983Y27082D01*
X539511Y26355D01*
X539980Y25589D01*
X540388Y24789D01*
X540732Y23959D01*
X541009Y23105D01*
X541219Y22232D01*
X541360Y21345D01*
X541430Y20449D01*
X541430Y19551D01*
X541430Y379551D02*
X541360Y378656D01*
X541219Y377768D01*
X541009Y376895D01*
X540732Y376041D01*
X540388Y375211D01*
X539980Y374411D01*
X539511Y373645D01*
X538983Y372918D01*
X538400Y372235D01*
X537765Y371600D01*
X537082Y371017D01*
X536355Y370489D01*
X535589Y370020D01*
X534789Y369612D01*
X533959Y369268D01*
X533105Y368991D01*
X532232Y368781D01*
X531345Y368640D01*
X530449Y368570D01*
X529551Y368570D01*
X528656Y368640D01*
X527768Y368781D01*
X526895Y368991D01*
X526041Y369268D01*
X525211Y369612D01*
X524411Y370020D01*
X523645Y370489D01*
X522918Y371017D01*
X522235Y371600D01*
X521600Y372235D01*
X521017Y372918D01*
X520489Y373645D01*
X520020Y374411D01*
X519612Y375211D01*
X519268Y376041D01*
X518991Y376895D01*
X518781Y377768D01*
X518640Y378656D01*
X518570Y379551D01*
X518570Y380449D01*
X518640Y381345D01*
X518781Y382232D01*
X518991Y383105D01*
X519268Y383959D01*
X519612Y384789D01*
X520020Y385589D01*
X520489Y386355D01*
X521017Y387082D01*
X521600Y387765D01*
X522235Y388400D01*
X522918Y388983D01*
X523645Y389511D01*
X524411Y389980D01*
X525211Y390388D01*
X526041Y390732D01*
X526895Y391009D01*
X527768Y391219D01*
X528656Y391360D01*
X529551Y391430D01*
X530449Y391430D01*
X531345Y391360D01*
X532232Y391219D01*
X533105Y391009D01*
X533959Y390732D01*
X534789Y390388D01*
X535589Y389980D01*
X536355Y389511D01*
X537082Y388983D01*
X537765Y388400D01*
X538400Y387765D01*
X538983Y387082D01*
X539511Y386355D01*
X539980Y385589D01*
X540388Y384789D01*
X540732Y383959D01*
X541009Y383105D01*
X541219Y382232D01*
X541360Y381345D01*
X541430Y380449D01*
X541430Y379551D01*
X-77536Y20567D02*
X-77606Y19672D01*
X-77747Y18784D01*
X-77957Y17911D01*
X-78234Y17057D01*
X-78578Y16227D01*
X-78986Y15427D01*
X-79455Y14661D01*
X-79983Y13934D01*
X-80566Y13251D01*
X-81201Y12616D01*
X-81884Y12033D01*
X-82611Y11505D01*
X-83377Y11036D01*
X-84177Y10628D01*
X-85007Y10284D01*
X-85861Y10007D01*
X-86734Y9797D01*
X-87622Y9656D01*
X-88517Y9586D01*
X-89415Y9586D01*
X-90311Y9656D01*
X-91198Y9797D01*
X-92071Y10007D01*
X-92925Y10284D01*
X-93755Y10628D01*
X-94555Y11036D01*
X-95321Y11505D01*
X-96048Y12033D01*
X-96731Y12616D01*
X-97366Y13251D01*
X-97949Y13934D01*
X-98477Y14661D01*
X-98946Y15427D01*
X-99354Y16227D01*
X-99698Y17057D01*
X-99975Y17911D01*
X-100185Y18784D01*
X-100326Y19672D01*
X-100396Y20567D01*
X-100396Y21465D01*
X-100326Y22361D01*
X-100185Y23248D01*
X-99975Y24121D01*
X-99698Y24975D01*
X-99354Y25805D01*
X-98946Y26605D01*
X-98477Y27371D01*
X-97949Y28098D01*
X-97366Y28781D01*
X-96731Y29416D01*
X-96048Y29999D01*
X-95321Y30527D01*
X-94555Y30996D01*
X-93755Y31404D01*
X-92925Y31748D01*
X-92071Y32025D01*
X-91198Y32235D01*
X-90311Y32376D01*
X-89415Y32446D01*
X-88517Y32446D01*
X-87622Y32376D01*
X-86734Y32235D01*
X-85861Y32025D01*
X-85007Y31748D01*
X-84177Y31404D01*
X-83377Y30996D01*
X-82611Y30527D01*
X-81884Y29999D01*
X-81201Y29416D01*
X-80566Y28781D01*
X-79983Y28098D01*
X-79455Y27371D01*
X-78986Y26605D01*
X-78578Y25805D01*
X-78234Y24975D01*
X-77957Y24121D01*
X-77747Y23248D01*
X-77606Y22361D01*
X-77536Y21465D01*
X-77536Y20567D01*
X-77536Y380567D02*
X-77606Y379672D01*
X-77747Y378784D01*
X-77957Y377911D01*
X-78234Y377057D01*
X-78578Y376227D01*
X-78986Y375427D01*
X-79455Y374661D01*
X-79983Y373934D01*
X-80566Y373251D01*
X-81201Y372616D01*
X-81884Y372033D01*
X-82611Y371505D01*
X-83377Y371036D01*
X-84177Y370628D01*
X-85007Y370284D01*
X-85861Y370007D01*
X-86734Y369797D01*
X-87622Y369656D01*
X-88517Y369586D01*
X-89415Y369586D01*
X-90311Y369656D01*
X-91198Y369797D01*
X-92071Y370007D01*
X-92925Y370284D01*
X-93755Y370628D01*
X-94555Y371036D01*
X-95321Y371505D01*
X-96048Y372033D01*
X-96731Y372616D01*
X-97366Y373251D01*
X-97949Y373934D01*
X-98477Y374661D01*
X-98946Y375427D01*
X-99354Y376227D01*
X-99698Y377057D01*
X-99975Y377911D01*
X-100185Y378784D01*
X-100326Y379672D01*
X-100396Y380567D01*
X-100396Y381465D01*
X-100326Y382361D01*
X-100185Y383248D01*
X-99975Y384121D01*
X-99698Y384975D01*
X-99354Y385805D01*
X-98946Y386605D01*
X-98477Y387371D01*
X-97949Y388098D01*
X-97366Y388781D01*
X-96731Y389416D01*
X-96048Y389999D01*
X-95321Y390527D01*
X-94555Y390996D01*
X-93755Y391404D01*
X-92925Y391748D01*
X-92071Y392025D01*
X-91198Y392235D01*
X-90311Y392376D01*
X-89415Y392446D01*
X-88517Y392446D01*
X-87622Y392376D01*
X-86734Y392235D01*
X-85861Y392025D01*
X-85007Y391748D01*
X-84177Y391404D01*
X-83377Y390996D01*
X-82611Y390527D01*
X-81884Y389999D01*
X-81201Y389416D01*
X-80566Y388781D01*
X-79983Y388098D01*
X-79455Y387371D01*
X-78986Y386605D01*
X-78578Y385805D01*
X-78234Y384975D01*
X-77957Y384121D01*
X-77747Y383248D01*
X-77606Y382361D01*
X-77536Y381465D01*
X-77536Y380567D01*
X-57435Y79776D02*
X-56905Y79716D01*
X-56385Y79598D01*
X-55881Y79421D01*
X-55401Y79190D01*
X-54949Y78906D01*
X-54532Y78573D01*
X-54155Y78196D01*
X-53822Y77779D01*
X-53538Y77327D01*
X-53307Y76847D01*
X-53130Y76343D01*
X-53012Y75823D01*
X-52952Y75293D01*
X-52952Y74759D01*
X-53012Y74229D01*
X-53130Y73709D01*
X-53307Y73205D01*
X-53538Y72725D01*
X-53822Y72273D01*
X-54155Y71856D01*
X-54532Y71479D01*
X-54949Y71146D01*
X-55401Y70862D01*
X-55881Y70631D01*
X-56385Y70454D01*
X-56905Y70336D01*
X-57435Y70276D01*
X-57969Y70276D01*
X-58499Y70336D01*
X-59019Y70454D01*
X-59523Y70631D01*
X-60003Y70862D01*
X-60455Y71146D01*
X-60872Y71479D01*
X-61249Y71856D01*
X-61582Y72273D01*
X-61866Y72725D01*
X-62097Y73205D01*
X-62274Y73709D01*
X-62392Y74229D01*
X-62452Y74759D01*
X-62452Y75293D01*
X-62392Y75823D01*
X-62274Y76343D01*
X-62097Y76847D01*
X-61866Y77327D01*
X-61582Y77779D01*
X-61249Y78196D01*
X-60872Y78573D01*
X-60455Y78906D01*
X-60003Y79190D01*
X-59523Y79421D01*
X-59019Y79598D01*
X-58499Y79716D01*
X-57969Y79776D01*
X-57435Y79776D01*
X-57435Y123776D02*
X-56905Y123716D01*
X-56385Y123598D01*
X-55881Y123421D01*
X-55401Y123190D01*
X-54949Y122906D01*
X-54532Y122573D01*
X-54155Y122196D01*
X-53822Y121779D01*
X-53538Y121327D01*
X-53307Y120847D01*
X-53130Y120343D01*
X-53012Y119823D01*
X-52952Y119293D01*
X-52952Y118759D01*
X-53012Y118229D01*
X-53130Y117709D01*
X-53307Y117205D01*
X-53538Y116725D01*
X-53822Y116273D01*
X-54155Y115856D01*
X-54532Y115479D01*
X-54949Y115146D01*
X-55401Y114862D01*
X-55881Y114631D01*
X-56385Y114454D01*
X-56905Y114336D01*
X-57435Y114276D01*
X-57969Y114276D01*
X-58499Y114336D01*
X-59019Y114454D01*
X-59523Y114631D01*
X-60003Y114862D01*
X-60455Y115146D01*
X-60872Y115479D01*
X-61249Y115856D01*
X-61582Y116273D01*
X-61866Y116725D01*
X-62097Y117205D01*
X-62274Y117709D01*
X-62392Y118229D01*
X-62452Y118759D01*
X-62452Y119293D01*
X-62392Y119823D01*
X-62274Y120343D01*
X-62097Y120847D01*
X-61866Y121327D01*
X-61582Y121779D01*
X-61249Y122196D01*
X-60872Y122573D01*
X-60455Y122906D01*
X-60003Y123190D01*
X-59523Y123421D01*
X-59019Y123598D01*
X-58499Y123716D01*
X-57969Y123776D01*
X-57435Y123776D01*
M02*
