G04 EAGLE Gerber X2 export*
%TF.Part,Single*%
%TF.FileFunction,Legend,Top,1*%
%TF.FilePolarity,Positive*%
%TF.GenerationSoftware,Autodesk,EAGLE,8.6.3*%
%TF.CreationDate,2023-08-17T09:39:48Z*%
G75*
%MOMM*%
%FSLAX34Y34*%
%LPD*%
%AMOC8*
5,1,8,0,0,1.08239X$1,22.5*%
G01*
%ADD10C,0.203200*%
%ADD11C,0.152400*%
%ADD12C,0.127000*%
%ADD13C,0.254000*%
%ADD14R,0.762000X2.032000*%
%ADD15C,0.076200*%
%ADD16C,0.600000*%
%ADD17R,2.450000X0.675000*%
%ADD18C,0.220000*%
%ADD19R,0.200000X0.200000*%
%ADD20C,0.101600*%


D10*
X514760Y20000D02*
X514765Y20374D01*
X514778Y20748D01*
X514801Y21121D01*
X514833Y21494D01*
X514875Y21866D01*
X514925Y22236D01*
X514984Y22605D01*
X515053Y22973D01*
X515130Y23339D01*
X515217Y23703D01*
X515312Y24065D01*
X515416Y24424D01*
X515529Y24781D01*
X515651Y25134D01*
X515781Y25485D01*
X515920Y25832D01*
X516067Y26176D01*
X516223Y26516D01*
X516387Y26852D01*
X516560Y27184D01*
X516740Y27512D01*
X516928Y27835D01*
X517124Y28153D01*
X517328Y28467D01*
X517540Y28775D01*
X517759Y29078D01*
X517986Y29376D01*
X518219Y29668D01*
X518460Y29954D01*
X518708Y30235D01*
X518962Y30509D01*
X519224Y30776D01*
X519491Y31038D01*
X519765Y31292D01*
X520046Y31540D01*
X520332Y31781D01*
X520624Y32014D01*
X520922Y32241D01*
X521225Y32460D01*
X521533Y32672D01*
X521847Y32876D01*
X522165Y33072D01*
X522488Y33260D01*
X522816Y33440D01*
X523148Y33613D01*
X523484Y33777D01*
X523824Y33933D01*
X524168Y34080D01*
X524515Y34219D01*
X524866Y34349D01*
X525219Y34471D01*
X525576Y34584D01*
X525935Y34688D01*
X526297Y34783D01*
X526661Y34870D01*
X527027Y34947D01*
X527395Y35016D01*
X527764Y35075D01*
X528134Y35125D01*
X528506Y35167D01*
X528879Y35199D01*
X529252Y35222D01*
X529626Y35235D01*
X530000Y35240D01*
X530374Y35235D01*
X530748Y35222D01*
X531121Y35199D01*
X531494Y35167D01*
X531866Y35125D01*
X532236Y35075D01*
X532605Y35016D01*
X532973Y34947D01*
X533339Y34870D01*
X533703Y34783D01*
X534065Y34688D01*
X534424Y34584D01*
X534781Y34471D01*
X535134Y34349D01*
X535485Y34219D01*
X535832Y34080D01*
X536176Y33933D01*
X536516Y33777D01*
X536852Y33613D01*
X537184Y33440D01*
X537512Y33260D01*
X537835Y33072D01*
X538153Y32876D01*
X538467Y32672D01*
X538775Y32460D01*
X539078Y32241D01*
X539376Y32014D01*
X539668Y31781D01*
X539954Y31540D01*
X540235Y31292D01*
X540509Y31038D01*
X540776Y30776D01*
X541038Y30509D01*
X541292Y30235D01*
X541540Y29954D01*
X541781Y29668D01*
X542014Y29376D01*
X542241Y29078D01*
X542460Y28775D01*
X542672Y28467D01*
X542876Y28153D01*
X543072Y27835D01*
X543260Y27512D01*
X543440Y27184D01*
X543613Y26852D01*
X543777Y26516D01*
X543933Y26176D01*
X544080Y25832D01*
X544219Y25485D01*
X544349Y25134D01*
X544471Y24781D01*
X544584Y24424D01*
X544688Y24065D01*
X544783Y23703D01*
X544870Y23339D01*
X544947Y22973D01*
X545016Y22605D01*
X545075Y22236D01*
X545125Y21866D01*
X545167Y21494D01*
X545199Y21121D01*
X545222Y20748D01*
X545235Y20374D01*
X545240Y20000D01*
X545235Y19626D01*
X545222Y19252D01*
X545199Y18879D01*
X545167Y18506D01*
X545125Y18134D01*
X545075Y17764D01*
X545016Y17395D01*
X544947Y17027D01*
X544870Y16661D01*
X544783Y16297D01*
X544688Y15935D01*
X544584Y15576D01*
X544471Y15219D01*
X544349Y14866D01*
X544219Y14515D01*
X544080Y14168D01*
X543933Y13824D01*
X543777Y13484D01*
X543613Y13148D01*
X543440Y12816D01*
X543260Y12488D01*
X543072Y12165D01*
X542876Y11847D01*
X542672Y11533D01*
X542460Y11225D01*
X542241Y10922D01*
X542014Y10624D01*
X541781Y10332D01*
X541540Y10046D01*
X541292Y9765D01*
X541038Y9491D01*
X540776Y9224D01*
X540509Y8962D01*
X540235Y8708D01*
X539954Y8460D01*
X539668Y8219D01*
X539376Y7986D01*
X539078Y7759D01*
X538775Y7540D01*
X538467Y7328D01*
X538153Y7124D01*
X537835Y6928D01*
X537512Y6740D01*
X537184Y6560D01*
X536852Y6387D01*
X536516Y6223D01*
X536176Y6067D01*
X535832Y5920D01*
X535485Y5781D01*
X535134Y5651D01*
X534781Y5529D01*
X534424Y5416D01*
X534065Y5312D01*
X533703Y5217D01*
X533339Y5130D01*
X532973Y5053D01*
X532605Y4984D01*
X532236Y4925D01*
X531866Y4875D01*
X531494Y4833D01*
X531121Y4801D01*
X530748Y4778D01*
X530374Y4765D01*
X530000Y4760D01*
X529626Y4765D01*
X529252Y4778D01*
X528879Y4801D01*
X528506Y4833D01*
X528134Y4875D01*
X527764Y4925D01*
X527395Y4984D01*
X527027Y5053D01*
X526661Y5130D01*
X526297Y5217D01*
X525935Y5312D01*
X525576Y5416D01*
X525219Y5529D01*
X524866Y5651D01*
X524515Y5781D01*
X524168Y5920D01*
X523824Y6067D01*
X523484Y6223D01*
X523148Y6387D01*
X522816Y6560D01*
X522488Y6740D01*
X522165Y6928D01*
X521847Y7124D01*
X521533Y7328D01*
X521225Y7540D01*
X520922Y7759D01*
X520624Y7986D01*
X520332Y8219D01*
X520046Y8460D01*
X519765Y8708D01*
X519491Y8962D01*
X519224Y9224D01*
X518962Y9491D01*
X518708Y9765D01*
X518460Y10046D01*
X518219Y10332D01*
X517986Y10624D01*
X517759Y10922D01*
X517540Y11225D01*
X517328Y11533D01*
X517124Y11847D01*
X516928Y12165D01*
X516740Y12488D01*
X516560Y12816D01*
X516387Y13148D01*
X516223Y13484D01*
X516067Y13824D01*
X515920Y14168D01*
X515781Y14515D01*
X515651Y14866D01*
X515529Y15219D01*
X515416Y15576D01*
X515312Y15935D01*
X515217Y16297D01*
X515130Y16661D01*
X515053Y17027D01*
X514984Y17395D01*
X514925Y17764D01*
X514875Y18134D01*
X514833Y18506D01*
X514801Y18879D01*
X514778Y19252D01*
X514765Y19626D01*
X514760Y20000D01*
X514760Y380000D02*
X514765Y380374D01*
X514778Y380748D01*
X514801Y381121D01*
X514833Y381494D01*
X514875Y381866D01*
X514925Y382236D01*
X514984Y382605D01*
X515053Y382973D01*
X515130Y383339D01*
X515217Y383703D01*
X515312Y384065D01*
X515416Y384424D01*
X515529Y384781D01*
X515651Y385134D01*
X515781Y385485D01*
X515920Y385832D01*
X516067Y386176D01*
X516223Y386516D01*
X516387Y386852D01*
X516560Y387184D01*
X516740Y387512D01*
X516928Y387835D01*
X517124Y388153D01*
X517328Y388467D01*
X517540Y388775D01*
X517759Y389078D01*
X517986Y389376D01*
X518219Y389668D01*
X518460Y389954D01*
X518708Y390235D01*
X518962Y390509D01*
X519224Y390776D01*
X519491Y391038D01*
X519765Y391292D01*
X520046Y391540D01*
X520332Y391781D01*
X520624Y392014D01*
X520922Y392241D01*
X521225Y392460D01*
X521533Y392672D01*
X521847Y392876D01*
X522165Y393072D01*
X522488Y393260D01*
X522816Y393440D01*
X523148Y393613D01*
X523484Y393777D01*
X523824Y393933D01*
X524168Y394080D01*
X524515Y394219D01*
X524866Y394349D01*
X525219Y394471D01*
X525576Y394584D01*
X525935Y394688D01*
X526297Y394783D01*
X526661Y394870D01*
X527027Y394947D01*
X527395Y395016D01*
X527764Y395075D01*
X528134Y395125D01*
X528506Y395167D01*
X528879Y395199D01*
X529252Y395222D01*
X529626Y395235D01*
X530000Y395240D01*
X530374Y395235D01*
X530748Y395222D01*
X531121Y395199D01*
X531494Y395167D01*
X531866Y395125D01*
X532236Y395075D01*
X532605Y395016D01*
X532973Y394947D01*
X533339Y394870D01*
X533703Y394783D01*
X534065Y394688D01*
X534424Y394584D01*
X534781Y394471D01*
X535134Y394349D01*
X535485Y394219D01*
X535832Y394080D01*
X536176Y393933D01*
X536516Y393777D01*
X536852Y393613D01*
X537184Y393440D01*
X537512Y393260D01*
X537835Y393072D01*
X538153Y392876D01*
X538467Y392672D01*
X538775Y392460D01*
X539078Y392241D01*
X539376Y392014D01*
X539668Y391781D01*
X539954Y391540D01*
X540235Y391292D01*
X540509Y391038D01*
X540776Y390776D01*
X541038Y390509D01*
X541292Y390235D01*
X541540Y389954D01*
X541781Y389668D01*
X542014Y389376D01*
X542241Y389078D01*
X542460Y388775D01*
X542672Y388467D01*
X542876Y388153D01*
X543072Y387835D01*
X543260Y387512D01*
X543440Y387184D01*
X543613Y386852D01*
X543777Y386516D01*
X543933Y386176D01*
X544080Y385832D01*
X544219Y385485D01*
X544349Y385134D01*
X544471Y384781D01*
X544584Y384424D01*
X544688Y384065D01*
X544783Y383703D01*
X544870Y383339D01*
X544947Y382973D01*
X545016Y382605D01*
X545075Y382236D01*
X545125Y381866D01*
X545167Y381494D01*
X545199Y381121D01*
X545222Y380748D01*
X545235Y380374D01*
X545240Y380000D01*
X545235Y379626D01*
X545222Y379252D01*
X545199Y378879D01*
X545167Y378506D01*
X545125Y378134D01*
X545075Y377764D01*
X545016Y377395D01*
X544947Y377027D01*
X544870Y376661D01*
X544783Y376297D01*
X544688Y375935D01*
X544584Y375576D01*
X544471Y375219D01*
X544349Y374866D01*
X544219Y374515D01*
X544080Y374168D01*
X543933Y373824D01*
X543777Y373484D01*
X543613Y373148D01*
X543440Y372816D01*
X543260Y372488D01*
X543072Y372165D01*
X542876Y371847D01*
X542672Y371533D01*
X542460Y371225D01*
X542241Y370922D01*
X542014Y370624D01*
X541781Y370332D01*
X541540Y370046D01*
X541292Y369765D01*
X541038Y369491D01*
X540776Y369224D01*
X540509Y368962D01*
X540235Y368708D01*
X539954Y368460D01*
X539668Y368219D01*
X539376Y367986D01*
X539078Y367759D01*
X538775Y367540D01*
X538467Y367328D01*
X538153Y367124D01*
X537835Y366928D01*
X537512Y366740D01*
X537184Y366560D01*
X536852Y366387D01*
X536516Y366223D01*
X536176Y366067D01*
X535832Y365920D01*
X535485Y365781D01*
X535134Y365651D01*
X534781Y365529D01*
X534424Y365416D01*
X534065Y365312D01*
X533703Y365217D01*
X533339Y365130D01*
X532973Y365053D01*
X532605Y364984D01*
X532236Y364925D01*
X531866Y364875D01*
X531494Y364833D01*
X531121Y364801D01*
X530748Y364778D01*
X530374Y364765D01*
X530000Y364760D01*
X529626Y364765D01*
X529252Y364778D01*
X528879Y364801D01*
X528506Y364833D01*
X528134Y364875D01*
X527764Y364925D01*
X527395Y364984D01*
X527027Y365053D01*
X526661Y365130D01*
X526297Y365217D01*
X525935Y365312D01*
X525576Y365416D01*
X525219Y365529D01*
X524866Y365651D01*
X524515Y365781D01*
X524168Y365920D01*
X523824Y366067D01*
X523484Y366223D01*
X523148Y366387D01*
X522816Y366560D01*
X522488Y366740D01*
X522165Y366928D01*
X521847Y367124D01*
X521533Y367328D01*
X521225Y367540D01*
X520922Y367759D01*
X520624Y367986D01*
X520332Y368219D01*
X520046Y368460D01*
X519765Y368708D01*
X519491Y368962D01*
X519224Y369224D01*
X518962Y369491D01*
X518708Y369765D01*
X518460Y370046D01*
X518219Y370332D01*
X517986Y370624D01*
X517759Y370922D01*
X517540Y371225D01*
X517328Y371533D01*
X517124Y371847D01*
X516928Y372165D01*
X516740Y372488D01*
X516560Y372816D01*
X516387Y373148D01*
X516223Y373484D01*
X516067Y373824D01*
X515920Y374168D01*
X515781Y374515D01*
X515651Y374866D01*
X515529Y375219D01*
X515416Y375576D01*
X515312Y375935D01*
X515217Y376297D01*
X515130Y376661D01*
X515053Y377027D01*
X514984Y377395D01*
X514925Y377764D01*
X514875Y378134D01*
X514833Y378506D01*
X514801Y378879D01*
X514778Y379252D01*
X514765Y379626D01*
X514760Y380000D01*
X-104206Y21016D02*
X-104201Y21390D01*
X-104188Y21764D01*
X-104165Y22137D01*
X-104133Y22510D01*
X-104091Y22882D01*
X-104041Y23252D01*
X-103982Y23621D01*
X-103913Y23989D01*
X-103836Y24355D01*
X-103749Y24719D01*
X-103654Y25081D01*
X-103550Y25440D01*
X-103437Y25797D01*
X-103315Y26150D01*
X-103185Y26501D01*
X-103046Y26848D01*
X-102899Y27192D01*
X-102743Y27532D01*
X-102579Y27868D01*
X-102406Y28200D01*
X-102226Y28528D01*
X-102038Y28851D01*
X-101842Y29169D01*
X-101638Y29483D01*
X-101426Y29791D01*
X-101207Y30094D01*
X-100980Y30392D01*
X-100747Y30684D01*
X-100506Y30970D01*
X-100258Y31251D01*
X-100004Y31525D01*
X-99742Y31792D01*
X-99475Y32054D01*
X-99201Y32308D01*
X-98920Y32556D01*
X-98634Y32797D01*
X-98342Y33030D01*
X-98044Y33257D01*
X-97741Y33476D01*
X-97433Y33688D01*
X-97119Y33892D01*
X-96801Y34088D01*
X-96478Y34276D01*
X-96150Y34456D01*
X-95818Y34629D01*
X-95482Y34793D01*
X-95142Y34949D01*
X-94798Y35096D01*
X-94451Y35235D01*
X-94100Y35365D01*
X-93747Y35487D01*
X-93390Y35600D01*
X-93031Y35704D01*
X-92669Y35799D01*
X-92305Y35886D01*
X-91939Y35963D01*
X-91571Y36032D01*
X-91202Y36091D01*
X-90832Y36141D01*
X-90460Y36183D01*
X-90087Y36215D01*
X-89714Y36238D01*
X-89340Y36251D01*
X-88966Y36256D01*
X-88592Y36251D01*
X-88218Y36238D01*
X-87845Y36215D01*
X-87472Y36183D01*
X-87100Y36141D01*
X-86730Y36091D01*
X-86361Y36032D01*
X-85993Y35963D01*
X-85627Y35886D01*
X-85263Y35799D01*
X-84901Y35704D01*
X-84542Y35600D01*
X-84185Y35487D01*
X-83832Y35365D01*
X-83481Y35235D01*
X-83134Y35096D01*
X-82790Y34949D01*
X-82450Y34793D01*
X-82114Y34629D01*
X-81782Y34456D01*
X-81454Y34276D01*
X-81131Y34088D01*
X-80813Y33892D01*
X-80499Y33688D01*
X-80191Y33476D01*
X-79888Y33257D01*
X-79590Y33030D01*
X-79298Y32797D01*
X-79012Y32556D01*
X-78731Y32308D01*
X-78457Y32054D01*
X-78190Y31792D01*
X-77928Y31525D01*
X-77674Y31251D01*
X-77426Y30970D01*
X-77185Y30684D01*
X-76952Y30392D01*
X-76725Y30094D01*
X-76506Y29791D01*
X-76294Y29483D01*
X-76090Y29169D01*
X-75894Y28851D01*
X-75706Y28528D01*
X-75526Y28200D01*
X-75353Y27868D01*
X-75189Y27532D01*
X-75033Y27192D01*
X-74886Y26848D01*
X-74747Y26501D01*
X-74617Y26150D01*
X-74495Y25797D01*
X-74382Y25440D01*
X-74278Y25081D01*
X-74183Y24719D01*
X-74096Y24355D01*
X-74019Y23989D01*
X-73950Y23621D01*
X-73891Y23252D01*
X-73841Y22882D01*
X-73799Y22510D01*
X-73767Y22137D01*
X-73744Y21764D01*
X-73731Y21390D01*
X-73726Y21016D01*
X-73731Y20642D01*
X-73744Y20268D01*
X-73767Y19895D01*
X-73799Y19522D01*
X-73841Y19150D01*
X-73891Y18780D01*
X-73950Y18411D01*
X-74019Y18043D01*
X-74096Y17677D01*
X-74183Y17313D01*
X-74278Y16951D01*
X-74382Y16592D01*
X-74495Y16235D01*
X-74617Y15882D01*
X-74747Y15531D01*
X-74886Y15184D01*
X-75033Y14840D01*
X-75189Y14500D01*
X-75353Y14164D01*
X-75526Y13832D01*
X-75706Y13504D01*
X-75894Y13181D01*
X-76090Y12863D01*
X-76294Y12549D01*
X-76506Y12241D01*
X-76725Y11938D01*
X-76952Y11640D01*
X-77185Y11348D01*
X-77426Y11062D01*
X-77674Y10781D01*
X-77928Y10507D01*
X-78190Y10240D01*
X-78457Y9978D01*
X-78731Y9724D01*
X-79012Y9476D01*
X-79298Y9235D01*
X-79590Y9002D01*
X-79888Y8775D01*
X-80191Y8556D01*
X-80499Y8344D01*
X-80813Y8140D01*
X-81131Y7944D01*
X-81454Y7756D01*
X-81782Y7576D01*
X-82114Y7403D01*
X-82450Y7239D01*
X-82790Y7083D01*
X-83134Y6936D01*
X-83481Y6797D01*
X-83832Y6667D01*
X-84185Y6545D01*
X-84542Y6432D01*
X-84901Y6328D01*
X-85263Y6233D01*
X-85627Y6146D01*
X-85993Y6069D01*
X-86361Y6000D01*
X-86730Y5941D01*
X-87100Y5891D01*
X-87472Y5849D01*
X-87845Y5817D01*
X-88218Y5794D01*
X-88592Y5781D01*
X-88966Y5776D01*
X-89340Y5781D01*
X-89714Y5794D01*
X-90087Y5817D01*
X-90460Y5849D01*
X-90832Y5891D01*
X-91202Y5941D01*
X-91571Y6000D01*
X-91939Y6069D01*
X-92305Y6146D01*
X-92669Y6233D01*
X-93031Y6328D01*
X-93390Y6432D01*
X-93747Y6545D01*
X-94100Y6667D01*
X-94451Y6797D01*
X-94798Y6936D01*
X-95142Y7083D01*
X-95482Y7239D01*
X-95818Y7403D01*
X-96150Y7576D01*
X-96478Y7756D01*
X-96801Y7944D01*
X-97119Y8140D01*
X-97433Y8344D01*
X-97741Y8556D01*
X-98044Y8775D01*
X-98342Y9002D01*
X-98634Y9235D01*
X-98920Y9476D01*
X-99201Y9724D01*
X-99475Y9978D01*
X-99742Y10240D01*
X-100004Y10507D01*
X-100258Y10781D01*
X-100506Y11062D01*
X-100747Y11348D01*
X-100980Y11640D01*
X-101207Y11938D01*
X-101426Y12241D01*
X-101638Y12549D01*
X-101842Y12863D01*
X-102038Y13181D01*
X-102226Y13504D01*
X-102406Y13832D01*
X-102579Y14164D01*
X-102743Y14500D01*
X-102899Y14840D01*
X-103046Y15184D01*
X-103185Y15531D01*
X-103315Y15882D01*
X-103437Y16235D01*
X-103550Y16592D01*
X-103654Y16951D01*
X-103749Y17313D01*
X-103836Y17677D01*
X-103913Y18043D01*
X-103982Y18411D01*
X-104041Y18780D01*
X-104091Y19150D01*
X-104133Y19522D01*
X-104165Y19895D01*
X-104188Y20268D01*
X-104201Y20642D01*
X-104206Y21016D01*
D11*
X445262Y37592D02*
X445262Y41998D01*
X447465Y44202D01*
X449668Y41998D01*
X449668Y37592D01*
X449668Y40897D02*
X445262Y40897D01*
X456051Y37592D02*
X456051Y44202D01*
X452746Y40897D01*
X457153Y40897D01*
X419862Y41998D02*
X419862Y37592D01*
X419862Y41998D02*
X422065Y44202D01*
X424268Y41998D01*
X424268Y37592D01*
X424268Y40897D02*
X419862Y40897D01*
X427346Y43100D02*
X428448Y44202D01*
X430651Y44202D01*
X431753Y43100D01*
X431753Y41998D01*
X430651Y40897D01*
X429549Y40897D01*
X430651Y40897D02*
X431753Y39795D01*
X431753Y38694D01*
X430651Y37592D01*
X428448Y37592D01*
X427346Y38694D01*
X394462Y37592D02*
X394462Y41998D01*
X396665Y44202D01*
X398868Y41998D01*
X398868Y37592D01*
X398868Y40897D02*
X394462Y40897D01*
X401946Y37592D02*
X406353Y37592D01*
X406353Y41998D02*
X401946Y37592D01*
X406353Y41998D02*
X406353Y43100D01*
X405251Y44202D01*
X403048Y44202D01*
X401946Y43100D01*
X369062Y41998D02*
X369062Y37592D01*
X369062Y41998D02*
X371265Y44202D01*
X373468Y41998D01*
X373468Y37592D01*
X373468Y40897D02*
X369062Y40897D01*
X376546Y41998D02*
X378749Y44202D01*
X378749Y37592D01*
X376546Y37592D02*
X380953Y37592D01*
X343662Y37592D02*
X343662Y41998D01*
X345865Y44202D01*
X348068Y41998D01*
X348068Y37592D01*
X348068Y40897D02*
X343662Y40897D01*
X351146Y38694D02*
X351146Y43100D01*
X352248Y44202D01*
X354451Y44202D01*
X355553Y43100D01*
X355553Y38694D01*
X354451Y37592D01*
X352248Y37592D01*
X351146Y38694D01*
X355553Y43100D01*
X212344Y357295D02*
X212344Y361702D01*
X212344Y357295D02*
X214547Y355092D01*
X216750Y357295D01*
X216750Y361702D01*
X219828Y355092D02*
X222031Y355092D01*
X220930Y355092D02*
X220930Y361702D01*
X222031Y361702D02*
X219828Y361702D01*
X224818Y361702D02*
X224818Y355092D01*
X229224Y355092D02*
X224818Y361702D01*
X229224Y361702D02*
X229224Y355092D01*
X318262Y355092D02*
X318262Y361702D01*
X318262Y355092D02*
X321567Y355092D01*
X322668Y356194D01*
X322668Y360600D01*
X321567Y361702D01*
X318262Y361702D01*
X325746Y360600D02*
X326848Y361702D01*
X329051Y361702D01*
X330153Y360600D01*
X330153Y359498D01*
X329051Y358397D01*
X330153Y357295D01*
X330153Y356194D01*
X329051Y355092D01*
X326848Y355092D01*
X325746Y356194D01*
X325746Y357295D01*
X326848Y358397D01*
X325746Y359498D01*
X325746Y360600D01*
X326848Y358397D02*
X329051Y358397D01*
X419862Y361702D02*
X419862Y355092D01*
X423167Y355092D01*
X424268Y356194D01*
X424268Y360600D01*
X423167Y361702D01*
X419862Y361702D01*
X430651Y361702D02*
X430651Y355092D01*
X427346Y358397D02*
X430651Y361702D01*
X431753Y358397D02*
X427346Y358397D01*
X343662Y361702D02*
X343662Y355092D01*
X346967Y355092D01*
X348068Y356194D01*
X348068Y360600D01*
X346967Y361702D01*
X343662Y361702D01*
X351146Y361702D02*
X355553Y361702D01*
X355553Y360600D01*
X351146Y356194D01*
X351146Y355092D01*
X394462Y355092D02*
X394462Y361702D01*
X394462Y355092D02*
X397767Y355092D01*
X398868Y356194D01*
X398868Y360600D01*
X397767Y361702D01*
X394462Y361702D01*
X401946Y361702D02*
X406353Y361702D01*
X401946Y361702D02*
X401946Y358397D01*
X404149Y359498D01*
X405251Y359498D01*
X406353Y358397D01*
X406353Y356194D01*
X405251Y355092D01*
X403048Y355092D01*
X401946Y356194D01*
X266024Y361702D02*
X264922Y360600D01*
X266024Y361702D02*
X268227Y361702D01*
X269328Y360600D01*
X269328Y359498D01*
X268227Y358397D01*
X267125Y358397D01*
X268227Y358397D02*
X269328Y357295D01*
X269328Y356194D01*
X268227Y355092D01*
X266024Y355092D01*
X264922Y356194D01*
X272406Y357295D02*
X272406Y361702D01*
X272406Y357295D02*
X274609Y355092D01*
X276813Y357295D01*
X276813Y361702D01*
X279890Y360600D02*
X280992Y361702D01*
X283195Y361702D01*
X284297Y360600D01*
X284297Y359498D01*
X283195Y358397D01*
X282094Y358397D01*
X283195Y358397D02*
X284297Y357295D01*
X284297Y356194D01*
X283195Y355092D01*
X280992Y355092D01*
X279890Y356194D01*
X292862Y355092D02*
X292862Y361702D01*
X292862Y355092D02*
X296167Y355092D01*
X297268Y356194D01*
X297268Y360600D01*
X296167Y361702D01*
X292862Y361702D01*
X300346Y356194D02*
X301448Y355092D01*
X303651Y355092D01*
X304753Y356194D01*
X304753Y360600D01*
X303651Y361702D01*
X301448Y361702D01*
X300346Y360600D01*
X300346Y359498D01*
X301448Y358397D01*
X304753Y358397D01*
X243928Y360600D02*
X242827Y361702D01*
X240624Y361702D01*
X239522Y360600D01*
X239522Y356194D01*
X240624Y355092D01*
X242827Y355092D01*
X243928Y356194D01*
X243928Y358397D01*
X241725Y358397D01*
X247006Y355092D02*
X247006Y361702D01*
X251413Y355092D01*
X251413Y361702D01*
X254490Y361702D02*
X254490Y355092D01*
X257795Y355092D01*
X258897Y356194D01*
X258897Y360600D01*
X257795Y361702D01*
X254490Y361702D01*
D10*
X-104206Y381016D02*
X-104201Y381390D01*
X-104188Y381764D01*
X-104165Y382137D01*
X-104133Y382510D01*
X-104091Y382882D01*
X-104041Y383252D01*
X-103982Y383621D01*
X-103913Y383989D01*
X-103836Y384355D01*
X-103749Y384719D01*
X-103654Y385081D01*
X-103550Y385440D01*
X-103437Y385797D01*
X-103315Y386150D01*
X-103185Y386501D01*
X-103046Y386848D01*
X-102899Y387192D01*
X-102743Y387532D01*
X-102579Y387868D01*
X-102406Y388200D01*
X-102226Y388528D01*
X-102038Y388851D01*
X-101842Y389169D01*
X-101638Y389483D01*
X-101426Y389791D01*
X-101207Y390094D01*
X-100980Y390392D01*
X-100747Y390684D01*
X-100506Y390970D01*
X-100258Y391251D01*
X-100004Y391525D01*
X-99742Y391792D01*
X-99475Y392054D01*
X-99201Y392308D01*
X-98920Y392556D01*
X-98634Y392797D01*
X-98342Y393030D01*
X-98044Y393257D01*
X-97741Y393476D01*
X-97433Y393688D01*
X-97119Y393892D01*
X-96801Y394088D01*
X-96478Y394276D01*
X-96150Y394456D01*
X-95818Y394629D01*
X-95482Y394793D01*
X-95142Y394949D01*
X-94798Y395096D01*
X-94451Y395235D01*
X-94100Y395365D01*
X-93747Y395487D01*
X-93390Y395600D01*
X-93031Y395704D01*
X-92669Y395799D01*
X-92305Y395886D01*
X-91939Y395963D01*
X-91571Y396032D01*
X-91202Y396091D01*
X-90832Y396141D01*
X-90460Y396183D01*
X-90087Y396215D01*
X-89714Y396238D01*
X-89340Y396251D01*
X-88966Y396256D01*
X-88592Y396251D01*
X-88218Y396238D01*
X-87845Y396215D01*
X-87472Y396183D01*
X-87100Y396141D01*
X-86730Y396091D01*
X-86361Y396032D01*
X-85993Y395963D01*
X-85627Y395886D01*
X-85263Y395799D01*
X-84901Y395704D01*
X-84542Y395600D01*
X-84185Y395487D01*
X-83832Y395365D01*
X-83481Y395235D01*
X-83134Y395096D01*
X-82790Y394949D01*
X-82450Y394793D01*
X-82114Y394629D01*
X-81782Y394456D01*
X-81454Y394276D01*
X-81131Y394088D01*
X-80813Y393892D01*
X-80499Y393688D01*
X-80191Y393476D01*
X-79888Y393257D01*
X-79590Y393030D01*
X-79298Y392797D01*
X-79012Y392556D01*
X-78731Y392308D01*
X-78457Y392054D01*
X-78190Y391792D01*
X-77928Y391525D01*
X-77674Y391251D01*
X-77426Y390970D01*
X-77185Y390684D01*
X-76952Y390392D01*
X-76725Y390094D01*
X-76506Y389791D01*
X-76294Y389483D01*
X-76090Y389169D01*
X-75894Y388851D01*
X-75706Y388528D01*
X-75526Y388200D01*
X-75353Y387868D01*
X-75189Y387532D01*
X-75033Y387192D01*
X-74886Y386848D01*
X-74747Y386501D01*
X-74617Y386150D01*
X-74495Y385797D01*
X-74382Y385440D01*
X-74278Y385081D01*
X-74183Y384719D01*
X-74096Y384355D01*
X-74019Y383989D01*
X-73950Y383621D01*
X-73891Y383252D01*
X-73841Y382882D01*
X-73799Y382510D01*
X-73767Y382137D01*
X-73744Y381764D01*
X-73731Y381390D01*
X-73726Y381016D01*
X-73731Y380642D01*
X-73744Y380268D01*
X-73767Y379895D01*
X-73799Y379522D01*
X-73841Y379150D01*
X-73891Y378780D01*
X-73950Y378411D01*
X-74019Y378043D01*
X-74096Y377677D01*
X-74183Y377313D01*
X-74278Y376951D01*
X-74382Y376592D01*
X-74495Y376235D01*
X-74617Y375882D01*
X-74747Y375531D01*
X-74886Y375184D01*
X-75033Y374840D01*
X-75189Y374500D01*
X-75353Y374164D01*
X-75526Y373832D01*
X-75706Y373504D01*
X-75894Y373181D01*
X-76090Y372863D01*
X-76294Y372549D01*
X-76506Y372241D01*
X-76725Y371938D01*
X-76952Y371640D01*
X-77185Y371348D01*
X-77426Y371062D01*
X-77674Y370781D01*
X-77928Y370507D01*
X-78190Y370240D01*
X-78457Y369978D01*
X-78731Y369724D01*
X-79012Y369476D01*
X-79298Y369235D01*
X-79590Y369002D01*
X-79888Y368775D01*
X-80191Y368556D01*
X-80499Y368344D01*
X-80813Y368140D01*
X-81131Y367944D01*
X-81454Y367756D01*
X-81782Y367576D01*
X-82114Y367403D01*
X-82450Y367239D01*
X-82790Y367083D01*
X-83134Y366936D01*
X-83481Y366797D01*
X-83832Y366667D01*
X-84185Y366545D01*
X-84542Y366432D01*
X-84901Y366328D01*
X-85263Y366233D01*
X-85627Y366146D01*
X-85993Y366069D01*
X-86361Y366000D01*
X-86730Y365941D01*
X-87100Y365891D01*
X-87472Y365849D01*
X-87845Y365817D01*
X-88218Y365794D01*
X-88592Y365781D01*
X-88966Y365776D01*
X-89340Y365781D01*
X-89714Y365794D01*
X-90087Y365817D01*
X-90460Y365849D01*
X-90832Y365891D01*
X-91202Y365941D01*
X-91571Y366000D01*
X-91939Y366069D01*
X-92305Y366146D01*
X-92669Y366233D01*
X-93031Y366328D01*
X-93390Y366432D01*
X-93747Y366545D01*
X-94100Y366667D01*
X-94451Y366797D01*
X-94798Y366936D01*
X-95142Y367083D01*
X-95482Y367239D01*
X-95818Y367403D01*
X-96150Y367576D01*
X-96478Y367756D01*
X-96801Y367944D01*
X-97119Y368140D01*
X-97433Y368344D01*
X-97741Y368556D01*
X-98044Y368775D01*
X-98342Y369002D01*
X-98634Y369235D01*
X-98920Y369476D01*
X-99201Y369724D01*
X-99475Y369978D01*
X-99742Y370240D01*
X-100004Y370507D01*
X-100258Y370781D01*
X-100506Y371062D01*
X-100747Y371348D01*
X-100980Y371640D01*
X-101207Y371938D01*
X-101426Y372241D01*
X-101638Y372549D01*
X-101842Y372863D01*
X-102038Y373181D01*
X-102226Y373504D01*
X-102406Y373832D01*
X-102579Y374164D01*
X-102743Y374500D01*
X-102899Y374840D01*
X-103046Y375184D01*
X-103185Y375531D01*
X-103315Y375882D01*
X-103437Y376235D01*
X-103550Y376592D01*
X-103654Y376951D01*
X-103749Y377313D01*
X-103836Y377677D01*
X-103913Y378043D01*
X-103982Y378411D01*
X-104041Y378780D01*
X-104091Y379150D01*
X-104133Y379522D01*
X-104165Y379895D01*
X-104188Y380268D01*
X-104201Y380642D01*
X-104206Y381016D01*
D11*
X470662Y359498D02*
X470662Y355092D01*
X470662Y359498D02*
X472865Y361702D01*
X475068Y359498D01*
X475068Y355092D01*
X475068Y358397D02*
X470662Y358397D01*
X480349Y360600D02*
X482553Y361702D01*
X480349Y360600D02*
X478146Y358397D01*
X478146Y356194D01*
X479248Y355092D01*
X481451Y355092D01*
X482553Y356194D01*
X482553Y357295D01*
X481451Y358397D01*
X478146Y358397D01*
X445262Y359498D02*
X445262Y355092D01*
X445262Y359498D02*
X447465Y361702D01*
X449668Y359498D01*
X449668Y355092D01*
X449668Y358397D02*
X445262Y358397D01*
X452746Y361702D02*
X457153Y361702D01*
X457153Y360600D01*
X452746Y356194D01*
X452746Y355092D01*
X369062Y355092D02*
X369062Y361702D01*
X369062Y355092D02*
X372367Y355092D01*
X373468Y356194D01*
X373468Y360600D01*
X372367Y361702D01*
X369062Y361702D01*
X378749Y360600D02*
X380953Y361702D01*
X378749Y360600D02*
X376546Y358397D01*
X376546Y356194D01*
X377648Y355092D01*
X379851Y355092D01*
X380953Y356194D01*
X380953Y357295D01*
X379851Y358397D01*
X376546Y358397D01*
X470662Y41998D02*
X470662Y37592D01*
X470662Y41998D02*
X472865Y44202D01*
X475068Y41998D01*
X475068Y37592D01*
X475068Y40897D02*
X470662Y40897D01*
X478146Y44202D02*
X482553Y44202D01*
X478146Y44202D02*
X478146Y40897D01*
X480349Y41998D01*
X481451Y41998D01*
X482553Y40897D01*
X482553Y38694D01*
X481451Y37592D01*
X479248Y37592D01*
X478146Y38694D01*
X315722Y37592D02*
X315722Y44202D01*
X315722Y37592D02*
X319027Y37592D01*
X320128Y38694D01*
X320128Y43100D01*
X319027Y44202D01*
X315722Y44202D01*
X323206Y41998D02*
X325409Y44202D01*
X325409Y37592D01*
X323206Y37592D02*
X327613Y37592D01*
X330690Y38694D02*
X330690Y43100D01*
X331792Y44202D01*
X333995Y44202D01*
X335097Y43100D01*
X335097Y38694D01*
X333995Y37592D01*
X331792Y37592D01*
X330690Y38694D01*
X335097Y43100D01*
X290322Y44202D02*
X290322Y37592D01*
X293627Y37592D01*
X294728Y38694D01*
X294728Y43100D01*
X293627Y44202D01*
X290322Y44202D01*
X297806Y41998D02*
X300009Y44202D01*
X300009Y37592D01*
X297806Y37592D02*
X302213Y37592D01*
X305290Y41998D02*
X307494Y44202D01*
X307494Y37592D01*
X309697Y37592D02*
X305290Y37592D01*
X264922Y37592D02*
X264922Y44202D01*
X264922Y37592D02*
X268227Y37592D01*
X269328Y38694D01*
X269328Y43100D01*
X268227Y44202D01*
X264922Y44202D01*
X272406Y41998D02*
X274609Y44202D01*
X274609Y37592D01*
X272406Y37592D02*
X276813Y37592D01*
X279890Y37592D02*
X284297Y37592D01*
X284297Y41998D02*
X279890Y37592D01*
X284297Y41998D02*
X284297Y43100D01*
X283195Y44202D01*
X280992Y44202D01*
X279890Y43100D01*
X239522Y44202D02*
X239522Y37592D01*
X242827Y37592D01*
X243928Y38694D01*
X243928Y43100D01*
X242827Y44202D01*
X239522Y44202D01*
X247006Y41998D02*
X249209Y44202D01*
X249209Y37592D01*
X247006Y37592D02*
X251413Y37592D01*
X254490Y43100D02*
X255592Y44202D01*
X257795Y44202D01*
X258897Y43100D01*
X258897Y41998D01*
X257795Y40897D01*
X256694Y40897D01*
X257795Y40897D02*
X258897Y39795D01*
X258897Y38694D01*
X257795Y37592D01*
X255592Y37592D01*
X254490Y38694D01*
X214122Y37592D02*
X214122Y44202D01*
X217427Y44202D01*
X218528Y43100D01*
X218528Y40897D01*
X217427Y39795D01*
X214122Y39795D01*
X216325Y39795D02*
X218528Y37592D01*
X224911Y44202D02*
X226013Y43100D01*
X224911Y44202D02*
X222708Y44202D01*
X221606Y43100D01*
X221606Y41998D01*
X222708Y40897D01*
X224911Y40897D01*
X226013Y39795D01*
X226013Y38694D01*
X224911Y37592D01*
X222708Y37592D01*
X221606Y38694D01*
X231294Y37592D02*
X231294Y44202D01*
X233497Y44202D02*
X229090Y44202D01*
X-99060Y336721D02*
X-99060Y341128D01*
X-99060Y336721D02*
X-96857Y334518D01*
X-94654Y336721D01*
X-94654Y341128D01*
X-91576Y341128D02*
X-91576Y334518D01*
X-91576Y341128D02*
X-88271Y341128D01*
X-87169Y340026D01*
X-87169Y338924D01*
X-88271Y337823D01*
X-87169Y336721D01*
X-87169Y335620D01*
X-88271Y334518D01*
X-91576Y334518D01*
X-91576Y337823D02*
X-88271Y337823D01*
X-84092Y338924D02*
X-84092Y334518D01*
X-84092Y338924D02*
X-81889Y341128D01*
X-79685Y338924D01*
X-79685Y334518D01*
X-79685Y337823D02*
X-84092Y337823D01*
X-74404Y334518D02*
X-74404Y341128D01*
X-72201Y341128D02*
X-76608Y341128D01*
X-97533Y197110D02*
X-96432Y196008D01*
X-97533Y197110D02*
X-99736Y197110D01*
X-100838Y196008D01*
X-100838Y191602D01*
X-99736Y190500D01*
X-97533Y190500D01*
X-96432Y191602D01*
X-93354Y190500D02*
X-93354Y197110D01*
X-93354Y193805D02*
X-88947Y193805D01*
X-88947Y197110D02*
X-88947Y190500D01*
X-82565Y197110D02*
X-81463Y196008D01*
X-82565Y197110D02*
X-84768Y197110D01*
X-85870Y196008D01*
X-85870Y191602D01*
X-84768Y190500D01*
X-82565Y190500D01*
X-81463Y191602D01*
X-81463Y193805D01*
X-83667Y193805D01*
X-33782Y245113D02*
X-29376Y245113D01*
X-31579Y247316D02*
X-31579Y242910D01*
X-30392Y223777D02*
X-34798Y223777D01*
X-30988Y310645D02*
X-26582Y310645D01*
X-28785Y312848D02*
X-28785Y308442D01*
X-29718Y288293D02*
X-25312Y288293D01*
X367541Y88906D02*
X368642Y87804D01*
X367541Y88906D02*
X365338Y88906D01*
X364236Y87804D01*
X364236Y86702D01*
X365338Y85601D01*
X367541Y85601D01*
X368642Y84499D01*
X368642Y83398D01*
X367541Y82296D01*
X365338Y82296D01*
X364236Y83398D01*
X375025Y88906D02*
X376127Y87804D01*
X375025Y88906D02*
X372822Y88906D01*
X371720Y87804D01*
X371720Y83398D01*
X372822Y82296D01*
X375025Y82296D01*
X376127Y83398D01*
X379204Y82296D02*
X379204Y88906D01*
X379204Y82296D02*
X383611Y82296D01*
X341464Y87550D02*
X340363Y88652D01*
X338160Y88652D01*
X337058Y87550D01*
X337058Y86448D01*
X338160Y85347D01*
X340363Y85347D01*
X341464Y84245D01*
X341464Y83144D01*
X340363Y82042D01*
X338160Y82042D01*
X337058Y83144D01*
X344542Y82042D02*
X344542Y88652D01*
X344542Y82042D02*
X347847Y82042D01*
X348949Y83144D01*
X348949Y87550D01*
X347847Y88652D01*
X344542Y88652D01*
X352026Y86448D02*
X352026Y82042D01*
X352026Y86448D02*
X354230Y88652D01*
X356433Y86448D01*
X356433Y82042D01*
X356433Y85347D02*
X352026Y85347D01*
X389128Y87550D02*
X390230Y88652D01*
X392433Y88652D01*
X393534Y87550D01*
X393534Y86448D01*
X392433Y85347D01*
X391331Y85347D01*
X392433Y85347D02*
X393534Y84245D01*
X393534Y83144D01*
X392433Y82042D01*
X390230Y82042D01*
X389128Y83144D01*
X396612Y84245D02*
X396612Y88652D01*
X396612Y84245D02*
X398815Y82042D01*
X401019Y84245D01*
X401019Y88652D01*
X404096Y87550D02*
X405198Y88652D01*
X407401Y88652D01*
X408503Y87550D01*
X408503Y86448D01*
X407401Y85347D01*
X406300Y85347D01*
X407401Y85347D02*
X408503Y84245D01*
X408503Y83144D01*
X407401Y82042D01*
X405198Y82042D01*
X404096Y83144D01*
D12*
X50990Y386573D02*
X50990Y392308D01*
X53857Y392308D01*
X54813Y391352D01*
X54813Y389440D01*
X53857Y388485D01*
X50990Y388485D01*
X52902Y388485D02*
X54813Y386573D01*
X57436Y392308D02*
X61259Y386573D01*
X57436Y386573D02*
X61259Y392308D01*
D11*
X419357Y88652D02*
X420458Y87550D01*
X419357Y88652D02*
X417154Y88652D01*
X416052Y87550D01*
X416052Y83144D01*
X417154Y82042D01*
X419357Y82042D01*
X420458Y83144D01*
X420458Y85347D01*
X418255Y85347D01*
X423536Y82042D02*
X423536Y88652D01*
X427943Y82042D01*
X427943Y88652D01*
X431020Y88652D02*
X431020Y82042D01*
X434325Y82042D01*
X435427Y83144D01*
X435427Y87550D01*
X434325Y88652D01*
X431020Y88652D01*
X530948Y293290D02*
X529847Y294392D01*
X527644Y294392D01*
X526542Y293290D01*
X526542Y288884D01*
X527644Y287782D01*
X529847Y287782D01*
X530948Y288884D01*
X530948Y291087D01*
X528745Y291087D01*
X534026Y287782D02*
X534026Y294392D01*
X538433Y287782D01*
X538433Y294392D01*
X541510Y294392D02*
X541510Y287782D01*
X544815Y287782D01*
X545917Y288884D01*
X545917Y293290D01*
X544815Y294392D01*
X541510Y294392D01*
X501142Y294392D02*
X501142Y287782D01*
X501142Y291087D02*
X505548Y291087D01*
X505548Y294392D02*
X505548Y287782D01*
X510829Y287782D02*
X510829Y294392D01*
X508626Y294392D02*
X513033Y294392D01*
X516110Y294392D02*
X520517Y287782D01*
X516110Y287782D02*
X520517Y294392D01*
X475742Y294392D02*
X475742Y287782D01*
X475742Y291087D02*
X480148Y291087D01*
X480148Y294392D02*
X480148Y287782D01*
X483226Y287782D02*
X483226Y294392D01*
X486531Y294392D01*
X487633Y293290D01*
X487633Y291087D01*
X486531Y289985D01*
X483226Y289985D01*
X485429Y289985D02*
X487633Y287782D01*
X490710Y294392D02*
X495117Y287782D01*
X490710Y287782D02*
X495117Y294392D01*
D13*
X110490Y342900D02*
X92710Y342900D01*
X106680Y346710D02*
X110490Y342900D01*
X106680Y339090D01*
X96520Y346710D02*
X92710Y342900D01*
X96520Y339090D01*
D11*
X121244Y349764D02*
X123447Y349764D01*
X121244Y349764D02*
X120142Y348662D01*
X120142Y344256D01*
X121244Y343154D01*
X123447Y343154D01*
X124548Y344256D01*
X124548Y348662D01*
X123447Y349764D01*
X127626Y349764D02*
X127626Y343154D01*
X132033Y343154D02*
X127626Y349764D01*
X132033Y349764D02*
X132033Y343154D01*
X71123Y348494D02*
X68920Y348494D01*
X67818Y347392D01*
X67818Y342986D01*
X68920Y341884D01*
X71123Y341884D01*
X72224Y342986D01*
X72224Y347392D01*
X71123Y348494D01*
X75302Y348494D02*
X75302Y341884D01*
X75302Y348494D02*
X79709Y348494D01*
X77505Y345189D02*
X75302Y345189D01*
X82786Y341884D02*
X82786Y348494D01*
X87193Y348494D01*
X84990Y345189D02*
X82786Y345189D01*
X-73914Y7880D02*
X-73914Y1270D01*
X-70609Y1270D01*
X-69508Y2372D01*
X-69508Y6778D01*
X-70609Y7880D01*
X-73914Y7880D01*
X-63125Y7880D02*
X-62023Y6778D01*
X-63125Y7880D02*
X-65328Y7880D01*
X-66430Y6778D01*
X-66430Y2372D01*
X-65328Y1270D01*
X-63125Y1270D01*
X-62023Y2372D01*
X-49258Y6778D02*
X-47055Y7880D01*
X-49258Y6778D02*
X-51462Y4575D01*
X-51462Y2372D01*
X-50360Y1270D01*
X-48157Y1270D01*
X-47055Y2372D01*
X-47055Y3473D01*
X-48157Y4575D01*
X-51462Y4575D01*
X-43977Y3473D02*
X-43977Y7880D01*
X-43977Y3473D02*
X-41774Y1270D01*
X-39571Y3473D01*
X-39571Y7880D01*
X-36493Y4575D02*
X-32087Y4575D01*
X-29009Y5676D02*
X-26806Y7880D01*
X-26806Y1270D01*
X-29009Y1270D02*
X-24603Y1270D01*
X-21525Y1270D02*
X-17119Y1270D01*
X-21525Y1270D02*
X-17119Y5676D01*
X-17119Y6778D01*
X-18220Y7880D01*
X-20423Y7880D01*
X-21525Y6778D01*
X-14041Y7880D02*
X-14041Y3473D01*
X-11838Y1270D01*
X-9634Y3473D01*
X-9634Y7880D01*
X26673Y40392D02*
X27774Y39290D01*
X26673Y40392D02*
X24470Y40392D01*
X23368Y39290D01*
X23368Y38188D01*
X24470Y37087D01*
X26673Y37087D01*
X27774Y35985D01*
X27774Y34884D01*
X26673Y33782D01*
X24470Y33782D01*
X23368Y34884D01*
X30852Y33782D02*
X33055Y33782D01*
X31954Y33782D02*
X31954Y40392D01*
X33055Y40392D02*
X30852Y40392D01*
X35842Y40392D02*
X35842Y33782D01*
X38045Y38188D02*
X35842Y40392D01*
X38045Y38188D02*
X40248Y40392D01*
X40248Y33782D01*
X43326Y40392D02*
X47732Y40392D01*
X47732Y39290D01*
X43326Y34884D01*
X43326Y33782D01*
X53013Y39290D02*
X55216Y40392D01*
X53013Y39290D02*
X50810Y37087D01*
X50810Y34884D01*
X51912Y33782D01*
X54115Y33782D01*
X55216Y34884D01*
X55216Y35985D01*
X54115Y37087D01*
X50810Y37087D01*
X58294Y34884D02*
X58294Y39290D01*
X59396Y40392D01*
X61599Y40392D01*
X62700Y39290D01*
X62700Y34884D01*
X61599Y33782D01*
X59396Y33782D01*
X58294Y34884D01*
X62700Y39290D01*
X65778Y39290D02*
X65778Y34884D01*
X65778Y39290D02*
X66880Y40392D01*
X69083Y40392D01*
X70185Y39290D01*
X70185Y34884D01*
X69083Y33782D01*
X66880Y33782D01*
X65778Y34884D01*
X70185Y39290D01*
X73262Y40392D02*
X77669Y40392D01*
X73262Y40392D02*
X73262Y33782D01*
X77669Y33782D01*
X75466Y37087D02*
X73262Y37087D01*
X-3302Y73152D02*
X-3302Y79762D01*
X-3302Y73152D02*
X1104Y73152D01*
X4182Y73152D02*
X4182Y79762D01*
X6385Y77558D01*
X8589Y79762D01*
X8589Y73152D01*
X11666Y77558D02*
X13870Y79762D01*
X13870Y73152D01*
X16073Y73152D02*
X11666Y73152D01*
X19150Y77558D02*
X21354Y79762D01*
X21354Y73152D01*
X23557Y73152D02*
X19150Y73152D01*
X26635Y77558D02*
X28838Y79762D01*
X28838Y73152D01*
X26635Y73152D02*
X31041Y73152D01*
X34119Y79762D02*
X38525Y79762D01*
X38525Y78660D01*
X34119Y74254D01*
X34119Y73152D01*
X41603Y73152D02*
X43806Y73152D01*
X42705Y73152D02*
X42705Y79762D01*
X43806Y79762D02*
X41603Y79762D01*
X46592Y79762D02*
X46592Y73152D01*
X48796Y77558D02*
X46592Y79762D01*
X48796Y77558D02*
X50999Y79762D01*
X50999Y73152D01*
X54077Y73152D02*
X54077Y79762D01*
X57381Y79762D01*
X58483Y78660D01*
X58483Y76457D01*
X57381Y75355D01*
X54077Y75355D01*
X61561Y79762D02*
X65967Y73152D01*
X61561Y73152D02*
X65967Y79762D01*
X69045Y76457D02*
X73451Y76457D01*
X76529Y79762D02*
X80935Y79762D01*
X76529Y79762D02*
X76529Y76457D01*
X78732Y77558D01*
X79834Y77558D01*
X80935Y76457D01*
X80935Y74254D01*
X79834Y73152D01*
X77631Y73152D01*
X76529Y74254D01*
X84013Y74254D02*
X84013Y73152D01*
X84013Y74254D02*
X85115Y74254D01*
X85115Y73152D01*
X84013Y73152D01*
X87755Y74254D02*
X87755Y78660D01*
X88857Y79762D01*
X91060Y79762D01*
X92162Y78660D01*
X92162Y74254D01*
X91060Y73152D01*
X88857Y73152D01*
X87755Y74254D01*
X92162Y78660D01*
X67044Y207518D02*
X67044Y211924D01*
X69247Y214128D01*
X71450Y211924D01*
X71450Y207518D01*
X71450Y210823D02*
X67044Y210823D01*
X76731Y207518D02*
X76731Y214128D01*
X74528Y214128D02*
X78935Y214128D01*
X82012Y214128D02*
X82012Y207518D01*
X84215Y211924D02*
X82012Y214128D01*
X84215Y211924D02*
X86419Y214128D01*
X86419Y207518D01*
X89496Y214128D02*
X93903Y214128D01*
X89496Y214128D02*
X89496Y207518D01*
X93903Y207518D01*
X91700Y210823D02*
X89496Y210823D01*
X100285Y214128D02*
X101387Y213026D01*
X100285Y214128D02*
X98082Y214128D01*
X96981Y213026D01*
X96981Y208620D01*
X98082Y207518D01*
X100285Y207518D01*
X101387Y208620D01*
X101387Y210823D01*
X99184Y210823D01*
X104465Y211924D02*
X104465Y207518D01*
X104465Y211924D02*
X106668Y214128D01*
X108871Y211924D01*
X108871Y207518D01*
X108871Y210823D02*
X104465Y210823D01*
X111949Y213026D02*
X113051Y214128D01*
X115254Y214128D01*
X116355Y213026D01*
X116355Y211924D01*
X115254Y210823D01*
X114152Y210823D01*
X115254Y210823D02*
X116355Y209721D01*
X116355Y208620D01*
X115254Y207518D01*
X113051Y207518D01*
X111949Y208620D01*
X119433Y207518D02*
X123839Y207518D01*
X119433Y207518D02*
X123839Y211924D01*
X123839Y213026D01*
X122738Y214128D01*
X120535Y214128D01*
X119433Y213026D01*
X126917Y213026D02*
X128019Y214128D01*
X130222Y214128D01*
X131324Y213026D01*
X131324Y211924D01*
X130222Y210823D01*
X131324Y209721D01*
X131324Y208620D01*
X130222Y207518D01*
X128019Y207518D01*
X126917Y208620D01*
X126917Y209721D01*
X128019Y210823D01*
X126917Y211924D01*
X126917Y213026D01*
X128019Y210823D02*
X130222Y210823D01*
X134401Y207518D02*
X134401Y214128D01*
X137706Y214128D01*
X138808Y213026D01*
X138808Y210823D01*
X137706Y209721D01*
X134401Y209721D01*
X141886Y210823D02*
X146292Y210823D01*
X149370Y211924D02*
X149370Y207518D01*
X149370Y211924D02*
X151573Y214128D01*
X153776Y211924D01*
X153776Y207518D01*
X153776Y210823D02*
X149370Y210823D01*
X156854Y208620D02*
X156854Y214128D01*
X156854Y208620D02*
X157955Y207518D01*
X160159Y207518D01*
X161260Y208620D01*
X161260Y214128D01*
X182874Y149866D02*
X185078Y147662D01*
X182874Y149866D02*
X189484Y149866D01*
X189484Y152069D02*
X189484Y147662D01*
X183976Y157350D02*
X182874Y159553D01*
X183976Y157350D02*
X186179Y155147D01*
X188382Y155147D01*
X189484Y156248D01*
X189484Y158451D01*
X188382Y159553D01*
X187281Y159553D01*
X186179Y158451D01*
X186179Y155147D01*
X189484Y162631D02*
X182874Y162631D01*
X185078Y164834D01*
X182874Y167037D01*
X189484Y167037D01*
X189484Y170115D02*
X182874Y170115D01*
X186179Y170115D02*
X186179Y174521D01*
X182874Y174521D02*
X189484Y174521D01*
X185078Y177599D02*
X185078Y182005D01*
X189484Y177599D01*
X189484Y182005D01*
X182874Y192567D02*
X189484Y196974D01*
X189484Y192567D02*
X182874Y196974D01*
X182874Y202255D02*
X189484Y202255D01*
X182874Y200052D02*
X182874Y204458D01*
X185078Y207536D02*
X189484Y207536D01*
X185078Y207536D02*
X182874Y209739D01*
X185078Y211942D01*
X189484Y211942D01*
X186179Y211942D02*
X186179Y207536D01*
X182874Y215020D02*
X189484Y215020D01*
X189484Y219426D01*
X-3214Y34039D02*
X-7620Y34039D01*
X-5417Y36242D02*
X-5417Y31836D01*
X-59094Y30991D02*
X-63500Y30991D01*
X29975Y3562D02*
X31076Y2460D01*
X29975Y3562D02*
X27772Y3562D01*
X26670Y2460D01*
X26670Y-1946D01*
X27772Y-3048D01*
X29975Y-3048D01*
X31076Y-1946D01*
X31076Y257D01*
X28873Y257D01*
X34154Y-3048D02*
X34154Y3562D01*
X38561Y-3048D01*
X38561Y3562D01*
X41638Y3562D02*
X41638Y-3048D01*
X44943Y-3048D01*
X46045Y-1946D01*
X46045Y2460D01*
X44943Y3562D01*
X41638Y3562D01*
X56896Y4070D02*
X56896Y-2540D01*
X56896Y4070D02*
X60201Y4070D01*
X61302Y2968D01*
X61302Y765D01*
X60201Y-337D01*
X56896Y-337D01*
X59099Y-337D02*
X61302Y-2540D01*
X64380Y4070D02*
X68787Y-2540D01*
X64380Y-2540D02*
X68787Y4070D01*
X85769Y4070D02*
X85769Y-2540D01*
X83566Y4070D02*
X87972Y4070D01*
X91050Y4070D02*
X95457Y-2540D01*
X91050Y-2540D02*
X95457Y4070D01*
X128270Y4324D02*
X128270Y-83D01*
X130473Y-2286D01*
X132676Y-83D01*
X132676Y4324D01*
X135754Y-2286D02*
X137957Y-2286D01*
X136856Y-2286D02*
X136856Y4324D01*
X137957Y4324D02*
X135754Y4324D01*
X140744Y4324D02*
X140744Y-2286D01*
X145150Y-2286D02*
X140744Y4324D01*
X145150Y4324D02*
X145150Y-2286D01*
X159261Y4832D02*
X160362Y3730D01*
X159261Y4832D02*
X157058Y4832D01*
X155956Y3730D01*
X155956Y-676D01*
X157058Y-1778D01*
X159261Y-1778D01*
X160362Y-676D01*
X160362Y1527D01*
X158159Y1527D01*
X163440Y-1778D02*
X163440Y4832D01*
X167847Y-1778D01*
X167847Y4832D01*
X170924Y4832D02*
X170924Y-1778D01*
X174229Y-1778D01*
X175331Y-676D01*
X175331Y3730D01*
X174229Y4832D01*
X170924Y4832D01*
D12*
X-65932Y391860D02*
X-66888Y392816D01*
X-68800Y392816D01*
X-69756Y391860D01*
X-69756Y388037D01*
X-68800Y387081D01*
X-66888Y387081D01*
X-65932Y388037D01*
X-65932Y389948D01*
X-67844Y389948D01*
X-63310Y387081D02*
X-63310Y392816D01*
X-59487Y387081D01*
X-59487Y392816D01*
X-56865Y392816D02*
X-56865Y387081D01*
X-53997Y387081D01*
X-53041Y388037D01*
X-53041Y391860D01*
X-53997Y392816D01*
X-56865Y392816D01*
X-40406Y327921D02*
X-34671Y327921D01*
X-40406Y326009D02*
X-40406Y329832D01*
X-40406Y332455D02*
X-34671Y336278D01*
X-34671Y332455D02*
X-40406Y336278D01*
X21589Y329496D02*
X25412Y329496D01*
X23501Y327585D02*
X23501Y331408D01*
X28034Y331408D02*
X28990Y332364D01*
X30902Y332364D01*
X31858Y331408D01*
X31858Y330452D01*
X30902Y329496D01*
X29946Y329496D01*
X30902Y329496D02*
X31858Y328541D01*
X31858Y327585D01*
X30902Y326629D01*
X28990Y326629D01*
X28034Y327585D01*
X34480Y328541D02*
X34480Y332364D01*
X34480Y328541D02*
X36392Y326629D01*
X38303Y328541D01*
X38303Y332364D01*
X40925Y331408D02*
X41881Y332364D01*
X43793Y332364D01*
X44749Y331408D01*
X44749Y330452D01*
X43793Y329496D01*
X42837Y329496D01*
X43793Y329496D02*
X44749Y328541D01*
X44749Y327585D01*
X43793Y326629D01*
X41881Y326629D01*
X40925Y327585D01*
X3317Y279303D02*
X-2418Y279303D01*
X-2418Y282171D01*
X-1462Y283127D01*
X450Y283127D01*
X1405Y282171D01*
X1405Y279303D01*
X1405Y281215D02*
X3317Y283127D01*
X-2418Y285749D02*
X-2418Y289572D01*
X-2418Y285749D02*
X3317Y285749D01*
X3317Y289572D01*
X450Y287661D02*
X450Y285749D01*
X-2418Y295062D02*
X-1462Y296018D01*
X-2418Y295062D02*
X-2418Y293150D01*
X-1462Y292194D01*
X-506Y292194D01*
X450Y293150D01*
X450Y295062D01*
X1405Y296018D01*
X2361Y296018D01*
X3317Y295062D01*
X3317Y293150D01*
X2361Y292194D01*
X-2418Y298640D02*
X-2418Y302463D01*
X-2418Y298640D02*
X3317Y298640D01*
X3317Y302463D01*
X450Y300552D02*
X450Y298640D01*
X3317Y306997D02*
X-2418Y306997D01*
X-2418Y305085D02*
X-2418Y308909D01*
X-22425Y224921D02*
X-21620Y224116D01*
X-22425Y224921D02*
X-24035Y224921D01*
X-24840Y224116D01*
X-24840Y220896D01*
X-24035Y220091D01*
X-22425Y220091D01*
X-21620Y220896D01*
X-21620Y222506D01*
X-23230Y222506D01*
X-19227Y220091D02*
X-19227Y224921D01*
X-16007Y220091D01*
X-16007Y224921D01*
X-13614Y224921D02*
X-13614Y220091D01*
X-11199Y220091D01*
X-10394Y220896D01*
X-10394Y224116D01*
X-11199Y224921D01*
X-13614Y224921D01*
X34524Y199263D02*
X40259Y199263D01*
X36436Y201175D02*
X34524Y199263D01*
X36436Y201175D02*
X34524Y203086D01*
X40259Y203086D01*
X34524Y206664D02*
X34524Y208576D01*
X34524Y206664D02*
X35480Y205709D01*
X39303Y205709D01*
X40259Y206664D01*
X40259Y208576D01*
X39303Y209532D01*
X35480Y209532D01*
X34524Y208576D01*
X34524Y215021D02*
X35480Y215977D01*
X34524Y215021D02*
X34524Y213110D01*
X35480Y212154D01*
X36436Y212154D01*
X37392Y213110D01*
X37392Y215021D01*
X38347Y215977D01*
X39303Y215977D01*
X40259Y215021D01*
X40259Y213110D01*
X39303Y212154D01*
X40259Y218600D02*
X40259Y220511D01*
X40259Y219555D02*
X34524Y219555D01*
X34524Y218600D02*
X34524Y220511D01*
X50854Y201054D02*
X50854Y197231D01*
X48942Y199143D02*
X52765Y199143D01*
X47986Y203677D02*
X47986Y207500D01*
X47986Y203677D02*
X50854Y203677D01*
X49898Y205588D01*
X49898Y206544D01*
X50854Y207500D01*
X52765Y207500D01*
X53721Y206544D01*
X53721Y204632D01*
X52765Y203677D01*
X51809Y210122D02*
X47986Y210122D01*
X51809Y210122D02*
X53721Y212034D01*
X51809Y213945D01*
X47986Y213945D01*
X47986Y216568D02*
X47986Y220391D01*
X47986Y216568D02*
X50854Y216568D01*
X49898Y218479D01*
X49898Y219435D01*
X50854Y220391D01*
X52765Y220391D01*
X53721Y219435D01*
X53721Y217523D01*
X52765Y216568D01*
X52197Y278257D02*
X46462Y278257D01*
X48374Y280169D01*
X46462Y282080D01*
X52197Y282080D01*
X52197Y284703D02*
X52197Y286614D01*
X52197Y285658D02*
X46462Y285658D01*
X46462Y284703D02*
X46462Y286614D01*
X46462Y291867D02*
X47418Y292823D01*
X46462Y291867D02*
X46462Y289955D01*
X47418Y289000D01*
X48374Y289000D01*
X49330Y289955D01*
X49330Y291867D01*
X50285Y292823D01*
X51241Y292823D01*
X52197Y291867D01*
X52197Y289955D01*
X51241Y289000D01*
X46462Y296401D02*
X46462Y298312D01*
X46462Y296401D02*
X47418Y295445D01*
X51241Y295445D01*
X52197Y296401D01*
X52197Y298312D01*
X51241Y299268D01*
X47418Y299268D01*
X46462Y298312D01*
X23034Y281572D02*
X22078Y280616D01*
X22078Y278705D01*
X23034Y277749D01*
X23990Y277749D01*
X24946Y278705D01*
X24946Y280616D01*
X25901Y281572D01*
X26857Y281572D01*
X27813Y280616D01*
X27813Y278705D01*
X26857Y277749D01*
X22078Y287062D02*
X23034Y288018D01*
X22078Y287062D02*
X22078Y285150D01*
X23034Y284195D01*
X26857Y284195D01*
X27813Y285150D01*
X27813Y287062D01*
X26857Y288018D01*
X27813Y290640D02*
X22078Y290640D01*
X25901Y290640D02*
X22078Y294463D01*
X24946Y291596D02*
X27813Y294463D01*
X431038Y351790D02*
X458978Y351790D01*
X458978Y339090D01*
X458978Y323850D02*
X458978Y311150D01*
X431038Y311150D01*
X431038Y339090D02*
X431038Y351790D01*
X431038Y323850D02*
X431038Y311150D01*
D14*
X427228Y331470D03*
D11*
X474729Y334524D02*
X475830Y333422D01*
X474729Y334524D02*
X472526Y334524D01*
X471424Y333422D01*
X471424Y329016D01*
X472526Y327914D01*
X474729Y327914D01*
X475830Y329016D01*
X475830Y331219D01*
X473627Y331219D01*
X482213Y334524D02*
X483315Y333422D01*
X482213Y334524D02*
X480010Y334524D01*
X478908Y333422D01*
X478908Y332320D01*
X480010Y331219D01*
X482213Y331219D01*
X483315Y330117D01*
X483315Y329016D01*
X482213Y327914D01*
X480010Y327914D01*
X478908Y329016D01*
X486392Y327914D02*
X486392Y334524D01*
X488596Y332320D01*
X490799Y334524D01*
X490799Y327914D01*
D15*
X389382Y327025D02*
X389313Y327027D01*
X389245Y327032D01*
X389177Y327042D01*
X389109Y327055D01*
X389042Y327071D01*
X388976Y327091D01*
X388912Y327115D01*
X388849Y327142D01*
X388787Y327173D01*
X388727Y327207D01*
X388669Y327244D01*
X388613Y327284D01*
X388560Y327327D01*
X388509Y327373D01*
X388460Y327422D01*
X388414Y327473D01*
X388371Y327526D01*
X388331Y327582D01*
X388294Y327640D01*
X388260Y327700D01*
X388229Y327762D01*
X388202Y327825D01*
X388178Y327889D01*
X388158Y327955D01*
X388142Y328022D01*
X388129Y328090D01*
X388119Y328158D01*
X388114Y328226D01*
X388112Y328295D01*
X388112Y334645D01*
X388114Y334714D01*
X388119Y334782D01*
X388129Y334850D01*
X388142Y334918D01*
X388158Y334985D01*
X388178Y335051D01*
X388202Y335115D01*
X388229Y335178D01*
X388260Y335240D01*
X388294Y335300D01*
X388331Y335358D01*
X388371Y335414D01*
X388414Y335467D01*
X388460Y335518D01*
X388509Y335567D01*
X388560Y335613D01*
X388613Y335656D01*
X388669Y335696D01*
X388727Y335733D01*
X388787Y335767D01*
X388849Y335798D01*
X388912Y335825D01*
X388976Y335849D01*
X389042Y335869D01*
X389109Y335885D01*
X389177Y335898D01*
X389245Y335908D01*
X389313Y335913D01*
X389382Y335915D01*
X404622Y335915D01*
X404691Y335913D01*
X404759Y335908D01*
X404827Y335898D01*
X404895Y335885D01*
X404962Y335869D01*
X405028Y335849D01*
X405092Y335825D01*
X405155Y335798D01*
X405217Y335767D01*
X405277Y335733D01*
X405335Y335696D01*
X405391Y335656D01*
X405444Y335613D01*
X405495Y335567D01*
X405544Y335518D01*
X405590Y335467D01*
X405633Y335414D01*
X405673Y335358D01*
X405710Y335300D01*
X405744Y335240D01*
X405775Y335178D01*
X405802Y335115D01*
X405826Y335051D01*
X405846Y334985D01*
X405862Y334918D01*
X405875Y334850D01*
X405885Y334782D01*
X405890Y334714D01*
X405892Y334645D01*
X405892Y328295D01*
X405890Y328226D01*
X405885Y328158D01*
X405875Y328090D01*
X405862Y328022D01*
X405846Y327955D01*
X405826Y327889D01*
X405802Y327825D01*
X405775Y327762D01*
X405744Y327700D01*
X405710Y327640D01*
X405673Y327582D01*
X405633Y327526D01*
X405590Y327473D01*
X405544Y327422D01*
X405495Y327373D01*
X405444Y327327D01*
X405391Y327284D01*
X405335Y327244D01*
X405277Y327207D01*
X405217Y327173D01*
X405155Y327142D01*
X405092Y327115D01*
X405028Y327091D01*
X404962Y327071D01*
X404895Y327055D01*
X404827Y327042D01*
X404759Y327032D01*
X404691Y327027D01*
X404622Y327025D01*
X389382Y327025D01*
D11*
X370928Y332660D02*
X369827Y333762D01*
X367624Y333762D01*
X366522Y332660D01*
X366522Y328254D01*
X367624Y327152D01*
X369827Y327152D01*
X370928Y328254D01*
X374006Y331558D02*
X376209Y333762D01*
X376209Y327152D01*
X374006Y327152D02*
X378413Y327152D01*
X381490Y332660D02*
X382592Y333762D01*
X384795Y333762D01*
X385897Y332660D01*
X385897Y331558D01*
X384795Y330457D01*
X383694Y330457D01*
X384795Y330457D02*
X385897Y329355D01*
X385897Y328254D01*
X384795Y327152D01*
X382592Y327152D01*
X381490Y328254D01*
D15*
X388112Y313309D02*
X388114Y313240D01*
X388119Y313172D01*
X388129Y313104D01*
X388142Y313036D01*
X388158Y312969D01*
X388178Y312903D01*
X388202Y312839D01*
X388229Y312776D01*
X388260Y312714D01*
X388294Y312654D01*
X388331Y312596D01*
X388371Y312540D01*
X388414Y312487D01*
X388460Y312436D01*
X388509Y312387D01*
X388560Y312341D01*
X388613Y312298D01*
X388669Y312258D01*
X388727Y312221D01*
X388787Y312187D01*
X388849Y312156D01*
X388912Y312129D01*
X388976Y312105D01*
X389042Y312085D01*
X389109Y312069D01*
X389177Y312056D01*
X389245Y312046D01*
X389313Y312041D01*
X389382Y312039D01*
X388112Y313309D02*
X388112Y319659D01*
X388114Y319728D01*
X388119Y319796D01*
X388129Y319864D01*
X388142Y319932D01*
X388158Y319999D01*
X388178Y320065D01*
X388202Y320129D01*
X388229Y320192D01*
X388260Y320254D01*
X388294Y320314D01*
X388331Y320372D01*
X388371Y320428D01*
X388414Y320481D01*
X388460Y320532D01*
X388509Y320581D01*
X388560Y320627D01*
X388613Y320670D01*
X388669Y320710D01*
X388727Y320747D01*
X388787Y320781D01*
X388849Y320812D01*
X388912Y320839D01*
X388976Y320863D01*
X389042Y320883D01*
X389109Y320899D01*
X389177Y320912D01*
X389245Y320922D01*
X389313Y320927D01*
X389382Y320929D01*
X404622Y320929D01*
X404691Y320927D01*
X404759Y320922D01*
X404827Y320912D01*
X404895Y320899D01*
X404962Y320883D01*
X405028Y320863D01*
X405092Y320839D01*
X405155Y320812D01*
X405217Y320781D01*
X405277Y320747D01*
X405335Y320710D01*
X405391Y320670D01*
X405444Y320627D01*
X405495Y320581D01*
X405544Y320532D01*
X405590Y320481D01*
X405633Y320428D01*
X405673Y320372D01*
X405710Y320314D01*
X405744Y320254D01*
X405775Y320192D01*
X405802Y320129D01*
X405826Y320065D01*
X405846Y319999D01*
X405862Y319932D01*
X405875Y319864D01*
X405885Y319796D01*
X405890Y319728D01*
X405892Y319659D01*
X405892Y313309D01*
X405890Y313240D01*
X405885Y313172D01*
X405875Y313104D01*
X405862Y313036D01*
X405846Y312969D01*
X405826Y312903D01*
X405802Y312839D01*
X405775Y312776D01*
X405744Y312714D01*
X405710Y312654D01*
X405673Y312596D01*
X405633Y312540D01*
X405590Y312487D01*
X405544Y312436D01*
X405495Y312387D01*
X405444Y312341D01*
X405391Y312298D01*
X405335Y312258D01*
X405277Y312221D01*
X405217Y312187D01*
X405155Y312156D01*
X405092Y312129D01*
X405028Y312105D01*
X404962Y312085D01*
X404895Y312069D01*
X404827Y312056D01*
X404759Y312046D01*
X404691Y312041D01*
X404622Y312039D01*
X389382Y312039D01*
D11*
X370928Y319960D02*
X369827Y321062D01*
X367624Y321062D01*
X366522Y319960D01*
X366522Y315554D01*
X367624Y314452D01*
X369827Y314452D01*
X370928Y315554D01*
X374006Y318858D02*
X376209Y321062D01*
X376209Y314452D01*
X374006Y314452D02*
X378413Y314452D01*
X384795Y314452D02*
X384795Y321062D01*
X381490Y317757D01*
X385897Y317757D01*
D12*
X520065Y195580D02*
X546735Y195580D01*
X546735Y182880D01*
X520065Y182880D01*
X520065Y195580D01*
X531876Y193294D02*
X531876Y184912D01*
X533908Y187325D01*
X535432Y189230D01*
X534162Y190627D01*
X531876Y193294D01*
X533019Y191770D02*
X533019Y186690D01*
X533908Y187325D02*
X534162Y190627D01*
D11*
X527900Y205660D02*
X526799Y206762D01*
X524596Y206762D01*
X523494Y205660D01*
X523494Y204558D01*
X524596Y203457D01*
X526799Y203457D01*
X527900Y202355D01*
X527900Y201254D01*
X526799Y200152D01*
X524596Y200152D01*
X523494Y201254D01*
X533181Y200152D02*
X533181Y206762D01*
X530978Y206762D02*
X535385Y206762D01*
X538462Y204558D02*
X538462Y200152D01*
X538462Y204558D02*
X540666Y206762D01*
X542869Y204558D01*
X542869Y200152D01*
X542869Y203457D02*
X538462Y203457D01*
D12*
X546735Y168910D02*
X520065Y168910D01*
X546735Y168910D02*
X546735Y156210D01*
X520065Y156210D01*
X520065Y168910D01*
X531876Y166624D02*
X531876Y158242D01*
X533908Y160655D01*
X535432Y162560D01*
X534162Y163957D01*
X531876Y166624D01*
X533019Y165100D02*
X533019Y160020D01*
X533908Y160655D02*
X534162Y163957D01*
D11*
X524002Y172212D02*
X524002Y178822D01*
X528408Y172212D01*
X528408Y178822D01*
X531486Y178822D02*
X535893Y178822D01*
X531486Y178822D02*
X531486Y172212D01*
X535893Y172212D01*
X533689Y175517D02*
X531486Y175517D01*
X541174Y172212D02*
X541174Y178822D01*
X543377Y178822D02*
X538970Y178822D01*
D12*
X489700Y367300D02*
X489700Y392700D01*
X489700Y367300D02*
X210300Y367300D01*
X210300Y392700D01*
X489700Y392700D01*
X194945Y368300D02*
X168275Y368300D01*
X168275Y381000D01*
X194945Y381000D01*
X194945Y368300D01*
X182880Y370840D02*
X182880Y378460D01*
X181610Y376555D01*
X180340Y374650D01*
X181610Y372745D01*
X182880Y370840D01*
X182245Y372110D02*
X182245Y377190D01*
X181610Y376555D02*
X181610Y372745D01*
X199513Y371223D02*
X200360Y372071D01*
X199513Y371223D02*
X199513Y369528D01*
X200360Y368681D01*
X203750Y368681D01*
X204597Y369528D01*
X204597Y371223D01*
X203750Y372071D01*
X204597Y374528D02*
X199513Y374528D01*
X202055Y374528D02*
X202055Y377918D01*
X199513Y377918D02*
X204597Y377918D01*
X199513Y382917D02*
X200360Y383765D01*
X199513Y382917D02*
X199513Y381222D01*
X200360Y380375D01*
X203750Y380375D01*
X204597Y381222D01*
X204597Y382917D01*
X203750Y383765D01*
X202055Y383765D01*
X202055Y382070D01*
X195580Y367030D02*
X167640Y367030D01*
X195580Y367030D02*
X195580Y354330D01*
X167640Y354330D01*
X167640Y367030D01*
X199513Y348361D02*
X204597Y348361D01*
X199513Y348361D02*
X199513Y350903D01*
X200360Y351751D01*
X202055Y351751D01*
X202902Y350903D01*
X202902Y348361D01*
X202902Y350056D02*
X204597Y351751D01*
X201207Y354208D02*
X199513Y355903D01*
X204597Y355903D01*
X204597Y354208D02*
X204597Y357598D01*
X204597Y360055D02*
X204597Y363445D01*
X204597Y360055D02*
X201207Y363445D01*
X200360Y363445D01*
X199513Y362597D01*
X199513Y360902D01*
X200360Y360055D01*
X247650Y342900D02*
X247650Y314960D01*
X234950Y314960D01*
X234950Y342900D01*
X247650Y342900D01*
D11*
X237850Y351202D02*
X236749Y352304D01*
X234545Y352304D01*
X233444Y351202D01*
X233444Y346796D01*
X234545Y345694D01*
X236749Y345694D01*
X237850Y346796D01*
X240928Y346796D02*
X242029Y345694D01*
X244233Y345694D01*
X245334Y346796D01*
X245334Y351202D01*
X244233Y352304D01*
X242029Y352304D01*
X240928Y351202D01*
X240928Y350100D01*
X242029Y348999D01*
X245334Y348999D01*
X196060Y324870D02*
X179860Y324870D01*
X179860Y353310D02*
X196060Y353310D01*
X196060Y344310D02*
X196060Y333870D01*
X179860Y343370D02*
X179860Y344310D01*
X179860Y334810D02*
X179860Y333870D01*
X179860Y352370D02*
X179860Y353310D01*
X179860Y325810D02*
X179860Y324870D01*
X196060Y324870D02*
X196060Y325810D01*
X196060Y352370D02*
X196060Y353310D01*
X182397Y315214D02*
X180194Y315214D01*
X181296Y315214D02*
X181296Y321824D01*
X182397Y321824D02*
X180194Y321824D01*
X188489Y321824D02*
X189590Y320722D01*
X188489Y321824D02*
X186285Y321824D01*
X185184Y320722D01*
X185184Y316316D01*
X186285Y315214D01*
X188489Y315214D01*
X189590Y316316D01*
X192668Y319620D02*
X194871Y321824D01*
X194871Y315214D01*
X192668Y315214D02*
X197074Y315214D01*
D12*
X222250Y326390D02*
X222250Y354330D01*
X222250Y326390D02*
X209550Y326390D01*
X209550Y354330D01*
X222250Y354330D01*
D11*
X205640Y324364D02*
X205640Y317754D01*
X205640Y324364D02*
X208944Y324364D01*
X210046Y323262D01*
X210046Y321059D01*
X208944Y319957D01*
X205640Y319957D01*
X207843Y319957D02*
X210046Y317754D01*
X213124Y322160D02*
X215327Y324364D01*
X215327Y317754D01*
X213124Y317754D02*
X217530Y317754D01*
X220608Y323262D02*
X221709Y324364D01*
X223913Y324364D01*
X225014Y323262D01*
X225014Y322160D01*
X223913Y321059D01*
X222811Y321059D01*
X223913Y321059D02*
X225014Y319957D01*
X225014Y318856D01*
X223913Y317754D01*
X221709Y317754D01*
X220608Y318856D01*
D12*
X-44196Y268196D02*
X-106196Y268196D01*
X-106196Y328196D01*
X-44196Y328196D01*
X-44196Y318196D01*
X-54196Y318196D01*
X-54196Y278196D01*
X-44196Y278196D01*
X-44196Y268196D01*
X-69596Y310896D02*
X-94996Y310896D01*
X-69596Y310896D02*
X-69596Y323596D01*
X-94996Y323596D01*
X-94996Y310896D01*
X-94996Y285496D02*
X-69596Y285496D01*
X-69596Y272796D01*
X-94996Y272796D01*
X-94996Y285496D01*
D11*
X-70698Y293116D02*
X-69596Y294218D01*
X-69596Y295319D01*
X-70698Y296421D01*
X-76206Y296421D01*
X-76206Y297522D02*
X-76206Y295319D01*
X-75104Y302803D02*
X-76206Y305007D01*
X-75104Y302803D02*
X-72901Y300600D01*
X-70698Y300600D01*
X-69596Y301702D01*
X-69596Y303905D01*
X-70698Y305007D01*
X-71799Y305007D01*
X-72901Y303905D01*
X-72901Y300600D01*
D12*
X-44196Y204696D02*
X-106196Y204696D01*
X-106196Y264696D01*
X-44196Y264696D01*
X-44196Y254696D01*
X-54196Y254696D01*
X-54196Y214696D01*
X-44196Y214696D01*
X-44196Y204696D01*
X-69596Y247396D02*
X-94996Y247396D01*
X-69596Y247396D02*
X-69596Y260096D01*
X-94996Y260096D01*
X-94996Y247396D01*
X-94996Y221996D02*
X-69596Y221996D01*
X-69596Y209296D01*
X-94996Y209296D01*
X-94996Y221996D01*
D11*
X-75016Y229616D02*
X-73914Y230718D01*
X-73914Y231819D01*
X-75016Y232921D01*
X-80524Y232921D01*
X-80524Y234022D02*
X-80524Y231819D01*
X-78320Y237100D02*
X-80524Y239303D01*
X-73914Y239303D01*
X-73914Y237100D02*
X-73914Y241507D01*
D12*
X490220Y168910D02*
X518160Y168910D01*
X518160Y156210D01*
X490220Y156210D01*
X490220Y168910D01*
D11*
X498602Y172212D02*
X498602Y178822D01*
X501907Y178822D01*
X503008Y177720D01*
X503008Y175517D01*
X501907Y174415D01*
X498602Y174415D01*
X500805Y174415D02*
X503008Y172212D01*
X506086Y177720D02*
X507188Y178822D01*
X509391Y178822D01*
X510493Y177720D01*
X510493Y176618D01*
X509391Y175517D01*
X508289Y175517D01*
X509391Y175517D02*
X510493Y174415D01*
X510493Y173314D01*
X509391Y172212D01*
X507188Y172212D01*
X506086Y173314D01*
D12*
X518160Y195580D02*
X490220Y195580D01*
X518160Y195580D02*
X518160Y182880D01*
X490220Y182880D01*
X490220Y195580D01*
D11*
X498602Y200152D02*
X498602Y206762D01*
X501907Y206762D01*
X503008Y205660D01*
X503008Y203457D01*
X501907Y202355D01*
X498602Y202355D01*
X500805Y202355D02*
X503008Y200152D01*
X509391Y200152D02*
X509391Y206762D01*
X506086Y203457D01*
X510493Y203457D01*
D12*
X489700Y32700D02*
X489700Y7300D01*
X210300Y7300D01*
X210300Y32700D01*
X489700Y32700D01*
X407670Y309880D02*
X407670Y337820D01*
X420370Y337820D01*
X420370Y309880D01*
X407670Y309880D01*
D11*
X408432Y341122D02*
X408432Y347732D01*
X411737Y347732D01*
X412838Y346630D01*
X412838Y344427D01*
X411737Y343325D01*
X408432Y343325D01*
X410635Y343325D02*
X412838Y341122D01*
X418119Y346630D02*
X420323Y347732D01*
X418119Y346630D02*
X415916Y344427D01*
X415916Y342224D01*
X417018Y341122D01*
X419221Y341122D01*
X420323Y342224D01*
X420323Y343325D01*
X419221Y344427D01*
X415916Y344427D01*
D12*
X160020Y367665D02*
X160020Y394335D01*
X160020Y367665D02*
X147320Y367665D01*
X147320Y394335D01*
X160020Y394335D01*
X157734Y382524D02*
X149352Y382524D01*
X151765Y380492D01*
X153670Y378968D01*
X155067Y380238D01*
X157734Y382524D01*
X156210Y381381D02*
X151130Y381381D01*
X151765Y380492D02*
X155067Y380238D01*
X143381Y356831D02*
X143381Y353441D01*
X141686Y355136D02*
X145076Y355136D01*
X141686Y359288D02*
X140839Y360135D01*
X140839Y361830D01*
X141686Y362678D01*
X142533Y362678D01*
X143381Y361830D01*
X143381Y360983D01*
X143381Y361830D02*
X144228Y362678D01*
X145076Y362678D01*
X145923Y361830D01*
X145923Y360135D01*
X145076Y359288D01*
X144228Y365135D02*
X140839Y365135D01*
X144228Y365135D02*
X145923Y366830D01*
X144228Y368525D01*
X140839Y368525D01*
X141686Y370982D02*
X140839Y371829D01*
X140839Y373524D01*
X141686Y374371D01*
X142533Y374371D01*
X143381Y373524D01*
X143381Y372677D01*
X143381Y373524D02*
X144228Y374371D01*
X145076Y374371D01*
X145923Y373524D01*
X145923Y371829D01*
X145076Y370982D01*
X143381Y376829D02*
X143381Y380218D01*
X145923Y382676D02*
X140839Y382676D01*
X140839Y385218D01*
X141686Y386065D01*
X143381Y386065D01*
X144228Y385218D01*
X144228Y382676D01*
X145923Y388523D02*
X140839Y388523D01*
X144228Y390218D02*
X145923Y388523D01*
X144228Y390218D02*
X145923Y391912D01*
X140839Y391912D01*
X140839Y394370D02*
X145923Y394370D01*
X140839Y394370D02*
X140839Y396912D01*
X141686Y397759D01*
X143381Y397759D01*
X144228Y396912D01*
X144228Y394370D01*
X144228Y396065D02*
X145923Y397759D01*
X167640Y382270D02*
X195580Y382270D01*
X167640Y382270D02*
X167640Y394970D01*
X195580Y394970D01*
X195580Y382270D01*
D11*
X198876Y388366D02*
X205486Y388366D01*
X198876Y388366D02*
X198876Y391671D01*
X199978Y392772D01*
X202181Y392772D01*
X203283Y391671D01*
X203283Y388366D01*
X203283Y390569D02*
X205486Y392772D01*
X198876Y395850D02*
X198876Y400257D01*
X199978Y400257D01*
X204384Y395850D01*
X205486Y395850D01*
D12*
X336550Y77470D02*
X336550Y52070D01*
X336550Y77470D02*
X438150Y77470D01*
X438150Y52070D01*
X336550Y52070D01*
D11*
X323174Y71882D02*
X322072Y72984D01*
X323174Y71882D02*
X324275Y71882D01*
X325377Y72984D01*
X325377Y78492D01*
X326478Y78492D02*
X324275Y78492D01*
X329556Y77390D02*
X330658Y78492D01*
X332861Y78492D01*
X333963Y77390D01*
X333963Y76288D01*
X332861Y75187D01*
X331759Y75187D01*
X332861Y75187D02*
X333963Y74085D01*
X333963Y72984D01*
X332861Y71882D01*
X330658Y71882D01*
X329556Y72984D01*
D12*
X511810Y142240D02*
X539750Y142240D01*
X539750Y129540D01*
X539750Y114300D02*
X539750Y101600D01*
X511810Y101600D01*
X511810Y129540D02*
X511810Y142240D01*
X511810Y114300D02*
X511810Y101600D01*
D14*
X508000Y121920D03*
D11*
X518163Y96018D02*
X519264Y94916D01*
X518163Y96018D02*
X515960Y96018D01*
X514858Y94916D01*
X514858Y90510D01*
X515960Y89408D01*
X518163Y89408D01*
X519264Y90510D01*
X519264Y92713D01*
X517061Y92713D01*
X522342Y89408D02*
X522342Y96018D01*
X525647Y96018D01*
X526749Y94916D01*
X526749Y92713D01*
X525647Y91611D01*
X522342Y91611D01*
X533131Y96018D02*
X534233Y94916D01*
X533131Y96018D02*
X530928Y96018D01*
X529826Y94916D01*
X529826Y93814D01*
X530928Y92713D01*
X533131Y92713D01*
X534233Y91611D01*
X534233Y90510D01*
X533131Y89408D01*
X530928Y89408D01*
X529826Y90510D01*
D12*
X170053Y232156D02*
X166243Y232156D01*
X182753Y235966D02*
X182753Y244856D01*
X175133Y244856D01*
X161163Y244856D02*
X153543Y244856D01*
X153543Y235966D01*
D11*
X159784Y235544D02*
X159784Y239950D01*
X160885Y241052D01*
X163089Y241052D01*
X164190Y239950D01*
X164190Y235544D01*
X163089Y234442D01*
X160885Y234442D01*
X159784Y235544D01*
X161987Y236645D02*
X164190Y234442D01*
X167268Y238848D02*
X169471Y241052D01*
X169471Y234442D01*
X167268Y234442D02*
X171674Y234442D01*
D12*
X314960Y323850D02*
X342900Y323850D01*
X342900Y311150D01*
X314960Y311150D01*
X314960Y323850D01*
D11*
X319532Y328422D02*
X319532Y335032D01*
X322837Y335032D01*
X323938Y333930D01*
X323938Y331727D01*
X322837Y330625D01*
X319532Y330625D01*
X321735Y330625D02*
X323938Y328422D01*
X327016Y332828D02*
X329219Y335032D01*
X329219Y328422D01*
X327016Y328422D02*
X331423Y328422D01*
X337805Y328422D02*
X337805Y335032D01*
X334500Y331727D01*
X338907Y331727D01*
D12*
X501650Y128270D02*
X501650Y100330D01*
X488950Y100330D01*
X488950Y128270D01*
X501650Y128270D01*
D11*
X489712Y132842D02*
X489712Y139452D01*
X489712Y132842D02*
X494118Y132842D01*
X497196Y137248D02*
X499399Y139452D01*
X499399Y132842D01*
X497196Y132842D02*
X501603Y132842D01*
D12*
X280670Y314960D02*
X280670Y342900D01*
X293370Y342900D01*
X293370Y314960D01*
X280670Y314960D01*
D11*
X281432Y344932D02*
X281432Y351542D01*
X284737Y351542D01*
X285838Y350440D01*
X285838Y348237D01*
X284737Y347135D01*
X281432Y347135D01*
X283635Y347135D02*
X285838Y344932D01*
X288916Y351542D02*
X293323Y351542D01*
X288916Y351542D02*
X288916Y348237D01*
X291119Y349338D01*
X292221Y349338D01*
X293323Y348237D01*
X293323Y346034D01*
X292221Y344932D01*
X290018Y344932D01*
X288916Y346034D01*
D12*
X278130Y342900D02*
X278130Y314960D01*
X265430Y314960D01*
X265430Y342900D01*
X278130Y342900D01*
D11*
X263924Y345694D02*
X263924Y352304D01*
X267229Y352304D01*
X268330Y351202D01*
X268330Y348999D01*
X267229Y347897D01*
X263924Y347897D01*
X266127Y347897D02*
X268330Y345694D01*
X271408Y351202D02*
X272509Y352304D01*
X274713Y352304D01*
X275814Y351202D01*
X275814Y350100D01*
X274713Y348999D01*
X275814Y347897D01*
X275814Y346796D01*
X274713Y345694D01*
X272509Y345694D01*
X271408Y346796D01*
X271408Y347897D01*
X272509Y348999D01*
X271408Y350100D01*
X271408Y351202D01*
X272509Y348999D02*
X274713Y348999D01*
D12*
X284460Y296000D02*
X472460Y296000D01*
X472460Y104000D01*
X284460Y104000D01*
X284460Y296000D01*
X285450Y291440D02*
X285452Y291546D01*
X285458Y291652D01*
X285468Y291758D01*
X285482Y291863D01*
X285500Y291968D01*
X285521Y292072D01*
X285547Y292175D01*
X285576Y292277D01*
X285609Y292378D01*
X285646Y292478D01*
X285687Y292576D01*
X285731Y292672D01*
X285779Y292767D01*
X285830Y292860D01*
X285885Y292951D01*
X285943Y293040D01*
X286005Y293126D01*
X286070Y293211D01*
X286137Y293292D01*
X286208Y293372D01*
X286282Y293448D01*
X286358Y293522D01*
X286438Y293593D01*
X286519Y293660D01*
X286604Y293725D01*
X286690Y293787D01*
X286779Y293845D01*
X286870Y293900D01*
X286963Y293951D01*
X287058Y293999D01*
X287154Y294043D01*
X287252Y294084D01*
X287352Y294121D01*
X287453Y294154D01*
X287555Y294183D01*
X287658Y294209D01*
X287762Y294230D01*
X287867Y294248D01*
X287972Y294262D01*
X288078Y294272D01*
X288184Y294278D01*
X288290Y294280D01*
X288396Y294278D01*
X288502Y294272D01*
X288608Y294262D01*
X288713Y294248D01*
X288818Y294230D01*
X288922Y294209D01*
X289025Y294183D01*
X289127Y294154D01*
X289228Y294121D01*
X289328Y294084D01*
X289426Y294043D01*
X289522Y293999D01*
X289617Y293951D01*
X289710Y293900D01*
X289801Y293845D01*
X289890Y293787D01*
X289976Y293725D01*
X290061Y293660D01*
X290142Y293593D01*
X290222Y293522D01*
X290298Y293448D01*
X290372Y293372D01*
X290443Y293292D01*
X290510Y293211D01*
X290575Y293126D01*
X290637Y293040D01*
X290695Y292951D01*
X290750Y292860D01*
X290801Y292767D01*
X290849Y292672D01*
X290893Y292576D01*
X290934Y292478D01*
X290971Y292378D01*
X291004Y292277D01*
X291033Y292175D01*
X291059Y292072D01*
X291080Y291968D01*
X291098Y291863D01*
X291112Y291758D01*
X291122Y291652D01*
X291128Y291546D01*
X291130Y291440D01*
X291128Y291334D01*
X291122Y291228D01*
X291112Y291122D01*
X291098Y291017D01*
X291080Y290912D01*
X291059Y290808D01*
X291033Y290705D01*
X291004Y290603D01*
X290971Y290502D01*
X290934Y290402D01*
X290893Y290304D01*
X290849Y290208D01*
X290801Y290113D01*
X290750Y290020D01*
X290695Y289929D01*
X290637Y289840D01*
X290575Y289754D01*
X290510Y289669D01*
X290443Y289588D01*
X290372Y289508D01*
X290298Y289432D01*
X290222Y289358D01*
X290142Y289287D01*
X290061Y289220D01*
X289976Y289155D01*
X289890Y289093D01*
X289801Y289035D01*
X289710Y288980D01*
X289617Y288929D01*
X289522Y288881D01*
X289426Y288837D01*
X289328Y288796D01*
X289228Y288759D01*
X289127Y288726D01*
X289025Y288697D01*
X288922Y288671D01*
X288818Y288650D01*
X288713Y288632D01*
X288608Y288618D01*
X288502Y288608D01*
X288396Y288602D01*
X288290Y288600D01*
X288184Y288602D01*
X288078Y288608D01*
X287972Y288618D01*
X287867Y288632D01*
X287762Y288650D01*
X287658Y288671D01*
X287555Y288697D01*
X287453Y288726D01*
X287352Y288759D01*
X287252Y288796D01*
X287154Y288837D01*
X287058Y288881D01*
X286963Y288929D01*
X286870Y288980D01*
X286779Y289035D01*
X286690Y289093D01*
X286604Y289155D01*
X286519Y289220D01*
X286438Y289287D01*
X286358Y289358D01*
X286282Y289432D01*
X286208Y289508D01*
X286137Y289588D01*
X286070Y289669D01*
X286005Y289754D01*
X285943Y289840D01*
X285885Y289929D01*
X285830Y290020D01*
X285779Y290113D01*
X285731Y290208D01*
X285687Y290304D01*
X285646Y290402D01*
X285609Y290502D01*
X285576Y290603D01*
X285547Y290705D01*
X285521Y290808D01*
X285500Y290912D01*
X285482Y291017D01*
X285468Y291122D01*
X285458Y291228D01*
X285452Y291334D01*
X285450Y291440D01*
D11*
X283972Y93072D02*
X283972Y87564D01*
X285074Y86462D01*
X287277Y86462D01*
X288378Y87564D01*
X288378Y93072D01*
X291456Y86462D02*
X295863Y86462D01*
X295863Y90868D02*
X291456Y86462D01*
X295863Y90868D02*
X295863Y91970D01*
X294761Y93072D01*
X292558Y93072D01*
X291456Y91970D01*
D12*
X472440Y323850D02*
X548640Y323850D01*
X548640Y298450D02*
X472440Y298450D01*
X472440Y323850D01*
X548640Y323850D02*
X548640Y298450D01*
D10*
X90426Y301242D02*
X90426Y269242D01*
X90426Y301242D02*
X93426Y301242D01*
X122426Y301242D02*
X122426Y269242D01*
X119426Y269242D01*
X93426Y269242D02*
X90426Y269242D01*
X119426Y301242D02*
X122426Y301242D01*
D16*
X88426Y267242D03*
D11*
X90678Y306646D02*
X90678Y312154D01*
X90678Y306646D02*
X91780Y305544D01*
X93983Y305544D01*
X95084Y306646D01*
X95084Y312154D01*
X98162Y312154D02*
X102569Y312154D01*
X98162Y312154D02*
X98162Y308849D01*
X100365Y309950D01*
X101467Y309950D01*
X102569Y308849D01*
X102569Y306646D01*
X101467Y305544D01*
X99264Y305544D01*
X98162Y306646D01*
D12*
X128270Y302260D02*
X128270Y274320D01*
X128270Y302260D02*
X140970Y302260D01*
X140970Y274320D01*
X128270Y274320D01*
D11*
X142488Y283467D02*
X143590Y284568D01*
X142488Y283467D02*
X142488Y281264D01*
X143590Y280162D01*
X147996Y280162D01*
X149098Y281264D01*
X149098Y283467D01*
X147996Y284568D01*
X144692Y287646D02*
X142488Y289849D01*
X149098Y289849D01*
X149098Y287646D02*
X149098Y292053D01*
X147996Y295130D02*
X143590Y295130D01*
X142488Y296232D01*
X142488Y298435D01*
X143590Y299537D01*
X147996Y299537D01*
X149098Y298435D01*
X149098Y296232D01*
X147996Y295130D01*
X143590Y299537D01*
D12*
X84328Y253238D02*
X84328Y225298D01*
X84328Y253238D02*
X97028Y253238D01*
X97028Y225298D01*
X84328Y225298D01*
D11*
X102356Y230280D02*
X103458Y231382D01*
X102356Y230280D02*
X102356Y228077D01*
X103458Y226976D01*
X107864Y226976D01*
X108966Y228077D01*
X108966Y230280D01*
X107864Y231382D01*
X104560Y234460D02*
X102356Y236663D01*
X108966Y236663D01*
X108966Y234460D02*
X108966Y238866D01*
X104560Y241944D02*
X102356Y244147D01*
X108966Y244147D01*
X108966Y241944D02*
X108966Y246350D01*
D12*
X139700Y358140D02*
X139700Y388620D01*
X139700Y358140D02*
X63500Y358140D01*
X63500Y388620D01*
X139700Y388620D01*
D11*
X94576Y399462D02*
X93475Y400564D01*
X91272Y400564D01*
X90170Y399462D01*
X90170Y398360D01*
X91272Y397259D01*
X93475Y397259D01*
X94576Y396157D01*
X94576Y395056D01*
X93475Y393954D01*
X91272Y393954D01*
X90170Y395056D01*
X97654Y393954D02*
X97654Y400564D01*
X99857Y396157D02*
X97654Y393954D01*
X99857Y396157D02*
X102061Y393954D01*
X102061Y400564D01*
X105138Y398360D02*
X107342Y400564D01*
X107342Y393954D01*
X109545Y393954D02*
X105138Y393954D01*
D12*
X250190Y342900D02*
X250190Y314960D01*
X250190Y342900D02*
X262890Y342900D01*
X262890Y314960D01*
X250190Y314960D01*
D11*
X253090Y351202D02*
X251989Y352304D01*
X249785Y352304D01*
X248684Y351202D01*
X248684Y346796D01*
X249785Y345694D01*
X251989Y345694D01*
X253090Y346796D01*
X259473Y345694D02*
X259473Y352304D01*
X256168Y348999D01*
X260574Y348999D01*
D12*
X-75946Y186436D02*
X-75946Y158496D01*
X-88646Y158496D01*
X-88646Y186436D01*
X-75946Y186436D01*
D11*
X-78740Y134266D02*
X-85350Y134266D01*
X-85350Y137570D01*
X-84248Y138672D01*
X-82045Y138672D01*
X-80943Y137570D01*
X-80943Y134266D01*
X-80943Y136469D02*
X-78740Y138672D01*
X-83146Y141750D02*
X-85350Y143953D01*
X-78740Y143953D01*
X-78740Y141750D02*
X-78740Y146156D01*
X-79842Y149234D02*
X-84248Y149234D01*
X-85350Y150335D01*
X-85350Y152539D01*
X-84248Y153640D01*
X-79842Y153640D01*
X-78740Y152539D01*
X-78740Y150335D01*
X-79842Y149234D01*
X-84248Y153640D01*
D12*
X231140Y248412D02*
X259080Y248412D01*
X259080Y235712D01*
X231140Y235712D01*
X231140Y248412D01*
D11*
X221068Y243252D02*
X219967Y244354D01*
X217764Y244354D01*
X216662Y243252D01*
X216662Y238846D01*
X217764Y237744D01*
X219967Y237744D01*
X221068Y238846D01*
X224146Y243252D02*
X225248Y244354D01*
X227451Y244354D01*
X228553Y243252D01*
X228553Y242150D01*
X227451Y241049D01*
X228553Y239947D01*
X228553Y238846D01*
X227451Y237744D01*
X225248Y237744D01*
X224146Y238846D01*
X224146Y239947D01*
X225248Y241049D01*
X224146Y242150D01*
X224146Y243252D01*
X225248Y241049D02*
X227451Y241049D01*
D12*
X231140Y234950D02*
X259080Y234950D01*
X259080Y222250D01*
X231140Y222250D01*
X231140Y234950D01*
D11*
X214718Y229790D02*
X213617Y230892D01*
X211414Y230892D01*
X210312Y229790D01*
X210312Y225384D01*
X211414Y224282D01*
X213617Y224282D01*
X214718Y225384D01*
X217796Y228688D02*
X219999Y230892D01*
X219999Y224282D01*
X217796Y224282D02*
X222203Y224282D01*
X225280Y224282D02*
X229687Y224282D01*
X229687Y228688D02*
X225280Y224282D01*
X229687Y228688D02*
X229687Y229790D01*
X228585Y230892D01*
X226382Y230892D01*
X225280Y229790D01*
D10*
X263900Y218850D02*
X263900Y192880D01*
D11*
X232498Y189150D02*
X231397Y190252D01*
X229194Y190252D01*
X228092Y189150D01*
X228092Y184744D01*
X229194Y183642D01*
X231397Y183642D01*
X232498Y184744D01*
X235576Y188048D02*
X237779Y190252D01*
X237779Y183642D01*
X235576Y183642D02*
X239983Y183642D01*
X245264Y189150D02*
X247467Y190252D01*
X245264Y189150D02*
X243060Y186947D01*
X243060Y184744D01*
X244162Y183642D01*
X246365Y183642D01*
X247467Y184744D01*
X247467Y185845D01*
X246365Y186947D01*
X243060Y186947D01*
D12*
X-102616Y186436D02*
X-102616Y158496D01*
X-102616Y186436D02*
X-89916Y186436D01*
X-89916Y158496D01*
X-102616Y158496D01*
D11*
X-97034Y139718D02*
X-90424Y139718D01*
X-97034Y139718D02*
X-97034Y143023D01*
X-95932Y144124D01*
X-93729Y144124D01*
X-92627Y143023D01*
X-92627Y139718D01*
X-92627Y141921D02*
X-90424Y144124D01*
X-90424Y147202D02*
X-90424Y151608D01*
X-90424Y147202D02*
X-94830Y151608D01*
X-95932Y151608D01*
X-97034Y150507D01*
X-97034Y148303D01*
X-95932Y147202D01*
D10*
X113680Y338200D02*
X113680Y344200D01*
X105680Y344200D01*
X113680Y322200D02*
X113680Y316200D01*
X105680Y316200D01*
D11*
X106807Y312340D02*
X106807Y307934D01*
X106807Y312340D02*
X107909Y313442D01*
X110112Y313442D01*
X111213Y312340D01*
X111213Y307934D01*
X110112Y306832D01*
X107909Y306832D01*
X106807Y307934D01*
X109010Y309035D02*
X111213Y306832D01*
X114291Y306832D02*
X118698Y306832D01*
X118698Y311238D02*
X114291Y306832D01*
X118698Y311238D02*
X118698Y312340D01*
X117596Y313442D01*
X115393Y313442D01*
X114291Y312340D01*
D12*
X162560Y302260D02*
X162560Y274320D01*
X149860Y274320D01*
X149860Y302260D01*
X162560Y302260D01*
D11*
X164586Y280570D02*
X171196Y280570D01*
X164586Y280570D02*
X164586Y283874D01*
X165688Y284976D01*
X167891Y284976D01*
X168993Y283874D01*
X168993Y280570D01*
X168993Y282773D02*
X171196Y284976D01*
X166790Y288054D02*
X164586Y290257D01*
X171196Y290257D01*
X171196Y288054D02*
X171196Y292460D01*
X164586Y295538D02*
X164586Y299944D01*
X164586Y295538D02*
X167891Y295538D01*
X166790Y297741D01*
X166790Y298843D01*
X167891Y299944D01*
X170094Y299944D01*
X171196Y298843D01*
X171196Y296639D01*
X170094Y295538D01*
D12*
X157480Y314960D02*
X157480Y342900D01*
X157480Y314960D02*
X144780Y314960D01*
X144780Y342900D01*
X157480Y342900D01*
D11*
X146307Y312172D02*
X147408Y311070D01*
X146307Y312172D02*
X144104Y312172D01*
X143002Y311070D01*
X143002Y306664D01*
X144104Y305562D01*
X146307Y305562D01*
X147408Y306664D01*
X150486Y309968D02*
X152689Y312172D01*
X152689Y305562D01*
X150486Y305562D02*
X154893Y305562D01*
X157970Y312172D02*
X162377Y312172D01*
X162377Y311070D01*
X157970Y306664D01*
X157970Y305562D01*
D12*
X138430Y314960D02*
X138430Y342900D01*
X138430Y314960D02*
X125730Y314960D01*
X125730Y342900D01*
X138430Y342900D01*
D11*
X122682Y312172D02*
X122682Y305562D01*
X122682Y312172D02*
X125987Y312172D01*
X127088Y311070D01*
X127088Y308867D01*
X125987Y307765D01*
X122682Y307765D01*
X124885Y307765D02*
X127088Y305562D01*
X130166Y309968D02*
X132369Y312172D01*
X132369Y305562D01*
X130166Y305562D02*
X134573Y305562D01*
X137650Y312172D02*
X142057Y312172D01*
X142057Y311070D01*
X137650Y306664D01*
X137650Y305562D01*
D10*
X252300Y130230D02*
X252300Y121230D01*
X230300Y121230D02*
X230300Y130230D01*
X255300Y129230D02*
X255302Y129293D01*
X255308Y129355D01*
X255318Y129417D01*
X255331Y129479D01*
X255349Y129539D01*
X255370Y129598D01*
X255395Y129656D01*
X255424Y129712D01*
X255456Y129766D01*
X255491Y129818D01*
X255529Y129867D01*
X255571Y129915D01*
X255615Y129959D01*
X255663Y130001D01*
X255712Y130039D01*
X255764Y130074D01*
X255818Y130106D01*
X255874Y130135D01*
X255932Y130160D01*
X255991Y130181D01*
X256051Y130199D01*
X256113Y130212D01*
X256175Y130222D01*
X256237Y130228D01*
X256300Y130230D01*
X256363Y130228D01*
X256425Y130222D01*
X256487Y130212D01*
X256549Y130199D01*
X256609Y130181D01*
X256668Y130160D01*
X256726Y130135D01*
X256782Y130106D01*
X256836Y130074D01*
X256888Y130039D01*
X256937Y130001D01*
X256985Y129959D01*
X257029Y129915D01*
X257071Y129867D01*
X257109Y129818D01*
X257144Y129766D01*
X257176Y129712D01*
X257205Y129656D01*
X257230Y129598D01*
X257251Y129539D01*
X257269Y129479D01*
X257282Y129417D01*
X257292Y129355D01*
X257298Y129293D01*
X257300Y129230D01*
X257298Y129167D01*
X257292Y129105D01*
X257282Y129043D01*
X257269Y128981D01*
X257251Y128921D01*
X257230Y128862D01*
X257205Y128804D01*
X257176Y128748D01*
X257144Y128694D01*
X257109Y128642D01*
X257071Y128593D01*
X257029Y128545D01*
X256985Y128501D01*
X256937Y128459D01*
X256888Y128421D01*
X256836Y128386D01*
X256782Y128354D01*
X256726Y128325D01*
X256668Y128300D01*
X256609Y128279D01*
X256549Y128261D01*
X256487Y128248D01*
X256425Y128238D01*
X256363Y128232D01*
X256300Y128230D01*
X256237Y128232D01*
X256175Y128238D01*
X256113Y128248D01*
X256051Y128261D01*
X255991Y128279D01*
X255932Y128300D01*
X255874Y128325D01*
X255818Y128354D01*
X255764Y128386D01*
X255712Y128421D01*
X255663Y128459D01*
X255615Y128501D01*
X255571Y128545D01*
X255529Y128593D01*
X255491Y128642D01*
X255456Y128694D01*
X255424Y128748D01*
X255395Y128804D01*
X255370Y128862D01*
X255349Y128921D01*
X255331Y128981D01*
X255318Y129043D01*
X255308Y129105D01*
X255302Y129167D01*
X255300Y129230D01*
D11*
X213124Y128784D02*
X213124Y122174D01*
X216429Y122174D01*
X217530Y123276D01*
X217530Y127682D01*
X216429Y128784D01*
X213124Y128784D01*
X220608Y126580D02*
X222811Y128784D01*
X222811Y122174D01*
X220608Y122174D02*
X225014Y122174D01*
D10*
X185120Y265494D02*
X185120Y286094D01*
X211120Y286094D02*
X211120Y265494D01*
D17*
X198120Y268569D03*
D11*
X180594Y265176D02*
X173984Y265176D01*
X180594Y265176D02*
X180594Y268481D01*
X179492Y269582D01*
X175086Y269582D01*
X173984Y268481D01*
X173984Y265176D01*
X180594Y272660D02*
X180594Y277067D01*
X176188Y277067D02*
X180594Y272660D01*
X176188Y277067D02*
X175086Y277067D01*
X173984Y275965D01*
X173984Y273762D01*
X175086Y272660D01*
D10*
X245410Y270674D02*
X245410Y291274D01*
X219410Y291274D02*
X219410Y270674D01*
D17*
X232410Y288199D03*
D11*
X252978Y272052D02*
X259588Y272052D01*
X259588Y275357D01*
X258486Y276458D01*
X254080Y276458D01*
X252978Y275357D01*
X252978Y272052D01*
X254080Y279536D02*
X252978Y280637D01*
X252978Y282841D01*
X254080Y283942D01*
X255182Y283942D01*
X256283Y282841D01*
X256283Y281739D01*
X256283Y282841D02*
X257385Y283942D01*
X258486Y283942D01*
X259588Y282841D01*
X259588Y280637D01*
X258486Y279536D01*
D18*
X174370Y202436D02*
X158370Y202436D01*
X158370Y170436D02*
X174370Y170436D01*
D11*
X150406Y190882D02*
X143796Y186476D01*
X143796Y190882D02*
X150406Y186476D01*
X150406Y193960D02*
X150406Y198366D01*
X150406Y193960D02*
X146000Y198366D01*
X144898Y198366D01*
X143796Y197265D01*
X143796Y195061D01*
X144898Y193960D01*
D12*
X-98552Y112776D02*
X-98552Y81026D01*
D11*
X-90430Y72644D02*
X-84922Y72644D01*
X-83820Y73746D01*
X-83820Y75949D01*
X-84922Y77050D01*
X-90430Y77050D01*
X-90430Y83433D02*
X-89328Y84535D01*
X-90430Y83433D02*
X-90430Y81230D01*
X-89328Y80128D01*
X-88226Y80128D01*
X-87125Y81230D01*
X-87125Y83433D01*
X-86023Y84535D01*
X-84922Y84535D01*
X-83820Y83433D01*
X-83820Y81230D01*
X-84922Y80128D01*
X-83820Y87612D02*
X-90430Y87612D01*
X-90430Y90917D01*
X-89328Y92019D01*
X-88226Y92019D01*
X-87125Y90917D01*
X-86023Y92019D01*
X-84922Y92019D01*
X-83820Y90917D01*
X-83820Y87612D01*
X-87125Y87612D02*
X-87125Y90917D01*
X-88226Y95096D02*
X-90430Y97300D01*
X-83820Y97300D01*
X-83820Y99503D02*
X-83820Y95096D01*
X125186Y124968D02*
X125188Y125087D01*
X125194Y125207D01*
X125204Y125326D01*
X125218Y125444D01*
X125236Y125562D01*
X125257Y125680D01*
X125283Y125796D01*
X125312Y125912D01*
X125346Y126027D01*
X125383Y126140D01*
X125424Y126252D01*
X125468Y126363D01*
X125516Y126473D01*
X125568Y126580D01*
X125623Y126686D01*
X125682Y126790D01*
X125745Y126892D01*
X125810Y126991D01*
X125879Y127089D01*
X125951Y127184D01*
X126026Y127277D01*
X126105Y127367D01*
X126186Y127455D01*
X126270Y127539D01*
X126357Y127621D01*
X126446Y127700D01*
X126538Y127776D01*
X126633Y127849D01*
X126730Y127919D01*
X126829Y127985D01*
X126931Y128048D01*
X127034Y128108D01*
X127139Y128164D01*
X127246Y128217D01*
X127355Y128266D01*
X127466Y128312D01*
X127578Y128353D01*
X127691Y128391D01*
X127805Y128426D01*
X127921Y128456D01*
X128037Y128483D01*
X128154Y128505D01*
X128272Y128524D01*
X128391Y128539D01*
X128510Y128550D01*
X128629Y128557D01*
X128748Y128560D01*
X128868Y128559D01*
X128987Y128554D01*
X129106Y128545D01*
X129225Y128532D01*
X129343Y128515D01*
X129460Y128495D01*
X129577Y128470D01*
X129693Y128441D01*
X129808Y128409D01*
X129922Y128373D01*
X130035Y128333D01*
X130146Y128289D01*
X130255Y128242D01*
X130363Y128191D01*
X130470Y128137D01*
X130574Y128079D01*
X130676Y128017D01*
X130777Y127953D01*
X130875Y127884D01*
X130971Y127813D01*
X131064Y127739D01*
X131155Y127661D01*
X131243Y127581D01*
X131328Y127497D01*
X131411Y127411D01*
X131491Y127322D01*
X131568Y127231D01*
X131641Y127137D01*
X131712Y127040D01*
X131779Y126942D01*
X131843Y126841D01*
X131904Y126738D01*
X131961Y126633D01*
X132014Y126527D01*
X132064Y126418D01*
X132111Y126308D01*
X132153Y126197D01*
X132192Y126084D01*
X132228Y125970D01*
X132259Y125854D01*
X132286Y125738D01*
X132310Y125621D01*
X132330Y125503D01*
X132346Y125385D01*
X132358Y125266D01*
X132366Y125147D01*
X132370Y125028D01*
X132370Y124908D01*
X132366Y124789D01*
X132358Y124670D01*
X132346Y124551D01*
X132330Y124433D01*
X132310Y124315D01*
X132286Y124198D01*
X132259Y124082D01*
X132228Y123966D01*
X132192Y123852D01*
X132153Y123739D01*
X132111Y123628D01*
X132064Y123518D01*
X132014Y123409D01*
X131961Y123303D01*
X131904Y123198D01*
X131843Y123095D01*
X131779Y122994D01*
X131712Y122896D01*
X131641Y122799D01*
X131568Y122705D01*
X131491Y122614D01*
X131411Y122525D01*
X131328Y122439D01*
X131243Y122355D01*
X131155Y122275D01*
X131064Y122197D01*
X130971Y122123D01*
X130875Y122052D01*
X130777Y121983D01*
X130676Y121919D01*
X130574Y121857D01*
X130470Y121799D01*
X130363Y121745D01*
X130255Y121694D01*
X130146Y121647D01*
X130035Y121603D01*
X129922Y121563D01*
X129808Y121527D01*
X129693Y121495D01*
X129577Y121466D01*
X129460Y121441D01*
X129343Y121421D01*
X129225Y121404D01*
X129106Y121391D01*
X128987Y121382D01*
X128868Y121377D01*
X128748Y121376D01*
X128629Y121379D01*
X128510Y121386D01*
X128391Y121397D01*
X128272Y121412D01*
X128154Y121431D01*
X128037Y121453D01*
X127921Y121480D01*
X127805Y121510D01*
X127691Y121545D01*
X127578Y121583D01*
X127466Y121624D01*
X127355Y121670D01*
X127246Y121719D01*
X127139Y121772D01*
X127034Y121828D01*
X126931Y121888D01*
X126829Y121951D01*
X126730Y122017D01*
X126633Y122087D01*
X126538Y122160D01*
X126446Y122236D01*
X126357Y122315D01*
X126270Y122397D01*
X126186Y122481D01*
X126105Y122569D01*
X126026Y122659D01*
X125951Y122752D01*
X125879Y122847D01*
X125810Y122945D01*
X125745Y123044D01*
X125682Y123146D01*
X125623Y123250D01*
X125568Y123356D01*
X125516Y123463D01*
X125468Y123573D01*
X125424Y123684D01*
X125383Y123796D01*
X125346Y123909D01*
X125312Y124024D01*
X125283Y124140D01*
X125257Y124256D01*
X125236Y124374D01*
X125218Y124492D01*
X125204Y124610D01*
X125194Y124729D01*
X125188Y124849D01*
X125186Y124968D01*
X66296Y117350D02*
X66296Y187450D01*
X136396Y187450D01*
X136396Y120900D01*
X132846Y117350D02*
X66296Y117350D01*
X132846Y117350D02*
X136396Y120900D01*
X114826Y100844D02*
X114826Y95336D01*
X115927Y94234D01*
X118131Y94234D01*
X119232Y95336D01*
X119232Y100844D01*
X122310Y98640D02*
X124513Y100844D01*
X124513Y94234D01*
X122310Y94234D02*
X126716Y94234D01*
D10*
X200149Y82804D02*
X200151Y83004D01*
X200159Y83203D01*
X200171Y83402D01*
X200188Y83601D01*
X200210Y83799D01*
X200237Y83997D01*
X200269Y84194D01*
X200305Y84390D01*
X200347Y84586D01*
X200393Y84780D01*
X200444Y84973D01*
X200499Y85164D01*
X200559Y85355D01*
X200624Y85543D01*
X200694Y85730D01*
X200768Y85916D01*
X200847Y86099D01*
X200930Y86280D01*
X201017Y86460D01*
X201109Y86637D01*
X201205Y86812D01*
X201306Y86984D01*
X201410Y87154D01*
X201519Y87321D01*
X201632Y87486D01*
X201749Y87648D01*
X201870Y87806D01*
X201995Y87962D01*
X202123Y88115D01*
X202255Y88264D01*
X202391Y88411D01*
X202531Y88553D01*
X202673Y88693D01*
X202820Y88829D01*
X202969Y88961D01*
X203122Y89089D01*
X203278Y89214D01*
X203436Y89335D01*
X203598Y89452D01*
X203763Y89565D01*
X203930Y89674D01*
X204100Y89778D01*
X204272Y89879D01*
X204447Y89975D01*
X204624Y90067D01*
X204804Y90154D01*
X204985Y90237D01*
X205168Y90316D01*
X205354Y90390D01*
X205541Y90460D01*
X205729Y90525D01*
X205920Y90585D01*
X206111Y90640D01*
X206304Y90691D01*
X206498Y90737D01*
X206694Y90779D01*
X206890Y90815D01*
X207087Y90847D01*
X207285Y90874D01*
X207483Y90896D01*
X207682Y90913D01*
X207881Y90925D01*
X208080Y90933D01*
X208280Y90935D01*
X208480Y90933D01*
X208679Y90925D01*
X208878Y90913D01*
X209077Y90896D01*
X209275Y90874D01*
X209473Y90847D01*
X209670Y90815D01*
X209866Y90779D01*
X210062Y90737D01*
X210256Y90691D01*
X210449Y90640D01*
X210640Y90585D01*
X210831Y90525D01*
X211019Y90460D01*
X211206Y90390D01*
X211392Y90316D01*
X211575Y90237D01*
X211756Y90154D01*
X211936Y90067D01*
X212113Y89975D01*
X212288Y89879D01*
X212460Y89778D01*
X212630Y89674D01*
X212797Y89565D01*
X212962Y89452D01*
X213124Y89335D01*
X213282Y89214D01*
X213438Y89089D01*
X213591Y88961D01*
X213740Y88829D01*
X213887Y88693D01*
X214029Y88553D01*
X214169Y88411D01*
X214305Y88264D01*
X214437Y88115D01*
X214565Y87962D01*
X214690Y87806D01*
X214811Y87648D01*
X214928Y87486D01*
X215041Y87321D01*
X215150Y87154D01*
X215254Y86984D01*
X215355Y86812D01*
X215451Y86637D01*
X215543Y86460D01*
X215630Y86280D01*
X215713Y86099D01*
X215792Y85916D01*
X215866Y85730D01*
X215936Y85543D01*
X216001Y85355D01*
X216061Y85164D01*
X216116Y84973D01*
X216167Y84780D01*
X216213Y84586D01*
X216255Y84390D01*
X216291Y84194D01*
X216323Y83997D01*
X216350Y83799D01*
X216372Y83601D01*
X216389Y83402D01*
X216401Y83203D01*
X216409Y83004D01*
X216411Y82804D01*
X216409Y82604D01*
X216401Y82405D01*
X216389Y82206D01*
X216372Y82007D01*
X216350Y81809D01*
X216323Y81611D01*
X216291Y81414D01*
X216255Y81218D01*
X216213Y81022D01*
X216167Y80828D01*
X216116Y80635D01*
X216061Y80444D01*
X216001Y80253D01*
X215936Y80065D01*
X215866Y79878D01*
X215792Y79692D01*
X215713Y79509D01*
X215630Y79328D01*
X215543Y79148D01*
X215451Y78971D01*
X215355Y78796D01*
X215254Y78624D01*
X215150Y78454D01*
X215041Y78287D01*
X214928Y78122D01*
X214811Y77960D01*
X214690Y77802D01*
X214565Y77646D01*
X214437Y77493D01*
X214305Y77344D01*
X214169Y77197D01*
X214029Y77055D01*
X213887Y76915D01*
X213740Y76779D01*
X213591Y76647D01*
X213438Y76519D01*
X213282Y76394D01*
X213124Y76273D01*
X212962Y76156D01*
X212797Y76043D01*
X212630Y75934D01*
X212460Y75830D01*
X212288Y75729D01*
X212113Y75633D01*
X211936Y75541D01*
X211756Y75454D01*
X211575Y75371D01*
X211392Y75292D01*
X211206Y75218D01*
X211019Y75148D01*
X210831Y75083D01*
X210640Y75023D01*
X210449Y74968D01*
X210256Y74917D01*
X210062Y74871D01*
X209866Y74829D01*
X209670Y74793D01*
X209473Y74761D01*
X209275Y74734D01*
X209077Y74712D01*
X208878Y74695D01*
X208679Y74683D01*
X208480Y74675D01*
X208280Y74673D01*
X208080Y74675D01*
X207881Y74683D01*
X207682Y74695D01*
X207483Y74712D01*
X207285Y74734D01*
X207087Y74761D01*
X206890Y74793D01*
X206694Y74829D01*
X206498Y74871D01*
X206304Y74917D01*
X206111Y74968D01*
X205920Y75023D01*
X205729Y75083D01*
X205541Y75148D01*
X205354Y75218D01*
X205168Y75292D01*
X204985Y75371D01*
X204804Y75454D01*
X204624Y75541D01*
X204447Y75633D01*
X204272Y75729D01*
X204100Y75830D01*
X203930Y75934D01*
X203763Y76043D01*
X203598Y76156D01*
X203436Y76273D01*
X203278Y76394D01*
X203122Y76519D01*
X202969Y76647D01*
X202820Y76779D01*
X202673Y76915D01*
X202531Y77055D01*
X202391Y77197D01*
X202255Y77344D01*
X202123Y77493D01*
X201995Y77646D01*
X201870Y77802D01*
X201749Y77960D01*
X201632Y78122D01*
X201519Y78287D01*
X201410Y78454D01*
X201306Y78624D01*
X201205Y78796D01*
X201109Y78971D01*
X201017Y79148D01*
X200930Y79328D01*
X200847Y79509D01*
X200768Y79692D01*
X200694Y79878D01*
X200624Y80065D01*
X200559Y80253D01*
X200499Y80444D01*
X200444Y80635D01*
X200393Y80828D01*
X200347Y81022D01*
X200305Y81218D01*
X200269Y81414D01*
X200237Y81611D01*
X200210Y81809D01*
X200188Y82007D01*
X200171Y82206D01*
X200159Y82405D01*
X200151Y82604D01*
X200149Y82804D01*
X220980Y92964D02*
X220980Y72644D01*
X195580Y72644D02*
X195580Y92964D01*
D11*
X225292Y59861D02*
X231902Y59861D01*
X225292Y59861D02*
X225292Y63166D01*
X226394Y64268D01*
X228597Y64268D01*
X229699Y63166D01*
X229699Y59861D01*
X229699Y62064D02*
X231902Y64268D01*
X225292Y67345D02*
X225292Y71752D01*
X225292Y67345D02*
X231902Y67345D01*
X231902Y71752D01*
X228597Y69549D02*
X228597Y67345D01*
X225292Y78134D02*
X226394Y79236D01*
X225292Y78134D02*
X225292Y75931D01*
X226394Y74830D01*
X227496Y74830D01*
X228597Y75931D01*
X228597Y78134D01*
X229699Y79236D01*
X230800Y79236D01*
X231902Y78134D01*
X231902Y75931D01*
X230800Y74830D01*
X225292Y82314D02*
X225292Y86720D01*
X225292Y82314D02*
X231902Y82314D01*
X231902Y86720D01*
X228597Y84517D02*
X228597Y82314D01*
X231902Y92001D02*
X225292Y92001D01*
X225292Y89798D02*
X225292Y94204D01*
D19*
X-1794Y151130D03*
D11*
X-7874Y147828D02*
X-7874Y154438D01*
X-4569Y154438D01*
X-3468Y153336D01*
X-3468Y151133D01*
X-4569Y150031D01*
X-7874Y150031D01*
X-5671Y150031D02*
X-3468Y147828D01*
X-390Y154438D02*
X4017Y147828D01*
X-390Y147828D02*
X4017Y154438D01*
D19*
X-5064Y185928D03*
D11*
X-16864Y193548D02*
X-16864Y200158D01*
X-16864Y193548D02*
X-13560Y193548D01*
X-12458Y194650D01*
X-12458Y199056D01*
X-13560Y200158D01*
X-16864Y200158D01*
X-9380Y197954D02*
X-7177Y200158D01*
X-7177Y193548D01*
X-9380Y193548D02*
X-4974Y193548D01*
X-1896Y199056D02*
X-795Y200158D01*
X1409Y200158D01*
X2510Y199056D01*
X2510Y197954D01*
X1409Y196853D01*
X307Y196853D01*
X1409Y196853D02*
X2510Y195751D01*
X2510Y194650D01*
X1409Y193548D01*
X-795Y193548D01*
X-1896Y194650D01*
D19*
X-2302Y166370D03*
D11*
X-7195Y168916D02*
X-7195Y162306D01*
X-9398Y168916D02*
X-4992Y168916D01*
X-1914Y168916D02*
X2493Y162306D01*
X-1914Y162306D02*
X2493Y168916D01*
D12*
X43180Y174498D02*
X43180Y146558D01*
X30480Y146558D01*
X30480Y174498D01*
X43180Y174498D01*
D11*
X41148Y173382D02*
X34538Y173382D01*
X34538Y176686D01*
X35640Y177788D01*
X37843Y177788D01*
X38945Y176686D01*
X38945Y173382D01*
X38945Y175585D02*
X41148Y177788D01*
X36742Y180866D02*
X34538Y183069D01*
X41148Y183069D01*
X41148Y180866D02*
X41148Y185272D01*
X35640Y190553D02*
X34538Y192756D01*
X35640Y190553D02*
X37843Y188350D01*
X40046Y188350D01*
X41148Y189451D01*
X41148Y191655D01*
X40046Y192756D01*
X38945Y192756D01*
X37843Y191655D01*
X37843Y188350D01*
D12*
X28702Y174498D02*
X28702Y146558D01*
X16002Y146558D01*
X16002Y174498D01*
X28702Y174498D01*
D11*
X25400Y174652D02*
X18790Y174652D01*
X18790Y177956D01*
X19892Y179058D01*
X22095Y179058D01*
X23197Y177956D01*
X23197Y174652D01*
X23197Y176855D02*
X25400Y179058D01*
X20994Y182136D02*
X18790Y184339D01*
X25400Y184339D01*
X25400Y182136D02*
X25400Y186542D01*
X19892Y189620D02*
X18790Y190721D01*
X18790Y192925D01*
X19892Y194026D01*
X20994Y194026D01*
X22095Y192925D01*
X23197Y194026D01*
X24298Y194026D01*
X25400Y192925D01*
X25400Y190721D01*
X24298Y189620D01*
X23197Y189620D01*
X22095Y190721D01*
X20994Y189620D01*
X19892Y189620D01*
X22095Y190721D02*
X22095Y192925D01*
D12*
X163322Y37592D02*
X191262Y37592D01*
X163322Y37592D02*
X163322Y50292D01*
X191262Y50292D01*
X191262Y37592D01*
D11*
X196590Y38103D02*
X197692Y39204D01*
X196590Y38103D02*
X196590Y35900D01*
X197692Y34798D01*
X202098Y34798D01*
X203200Y35900D01*
X203200Y38103D01*
X202098Y39204D01*
X203200Y42282D02*
X203200Y46689D01*
X198794Y46689D02*
X203200Y42282D01*
X198794Y46689D02*
X197692Y46689D01*
X196590Y45587D01*
X196590Y43384D01*
X197692Y42282D01*
X197692Y49766D02*
X196590Y50868D01*
X196590Y53071D01*
X197692Y54173D01*
X198794Y54173D01*
X199895Y53071D01*
X199895Y51970D01*
X199895Y53071D02*
X200997Y54173D01*
X202098Y54173D01*
X203200Y53071D01*
X203200Y50868D01*
X202098Y49766D01*
D12*
X-3556Y216662D02*
X-31496Y216662D01*
X-3556Y216662D02*
X-3556Y203962D01*
X-31496Y203962D01*
X-31496Y216662D01*
D11*
X-40052Y206590D02*
X-41154Y205489D01*
X-41154Y203286D01*
X-40052Y202184D01*
X-35646Y202184D01*
X-34544Y203286D01*
X-34544Y205489D01*
X-35646Y206590D01*
X-34544Y209668D02*
X-34544Y214075D01*
X-38950Y214075D02*
X-34544Y209668D01*
X-38950Y214075D02*
X-40052Y214075D01*
X-41154Y212973D01*
X-41154Y210770D01*
X-40052Y209668D01*
X-41154Y220457D02*
X-34544Y220457D01*
X-37849Y217152D02*
X-41154Y220457D01*
X-37849Y221559D02*
X-37849Y217152D01*
D12*
X4064Y217170D02*
X32004Y217170D01*
X32004Y204470D01*
X4064Y204470D01*
X4064Y217170D01*
D11*
X8890Y205238D02*
X8890Y198628D01*
X8890Y205238D02*
X12195Y205238D01*
X13296Y204136D01*
X13296Y201933D01*
X12195Y200831D01*
X8890Y200831D01*
X11093Y200831D02*
X13296Y198628D01*
X16374Y203034D02*
X18577Y205238D01*
X18577Y198628D01*
X16374Y198628D02*
X20781Y198628D01*
X23858Y199730D02*
X24960Y198628D01*
X27163Y198628D01*
X28265Y199730D01*
X28265Y204136D01*
X27163Y205238D01*
X24960Y205238D01*
X23858Y204136D01*
X23858Y203034D01*
X24960Y201933D01*
X28265Y201933D01*
D12*
X93218Y85090D02*
X121158Y85090D01*
X121158Y72390D01*
X93218Y72390D01*
X93218Y85090D01*
D11*
X105664Y88900D02*
X105664Y95510D01*
X108969Y95510D01*
X110070Y94408D01*
X110070Y92205D01*
X108969Y91103D01*
X105664Y91103D01*
X107867Y91103D02*
X110070Y88900D01*
X113148Y88900D02*
X117555Y88900D01*
X117555Y93306D02*
X113148Y88900D01*
X117555Y93306D02*
X117555Y94408D01*
X116453Y95510D01*
X114250Y95510D01*
X113148Y94408D01*
X120632Y94408D02*
X120632Y90002D01*
X120632Y94408D02*
X121734Y95510D01*
X123937Y95510D01*
X125039Y94408D01*
X125039Y90002D01*
X123937Y88900D01*
X121734Y88900D01*
X120632Y90002D01*
X125039Y94408D01*
D12*
X128524Y80264D02*
X156464Y80264D01*
X128524Y80264D02*
X128524Y92964D01*
X156464Y92964D01*
X156464Y80264D01*
D11*
X129948Y95758D02*
X129948Y102368D01*
X133252Y102368D01*
X134354Y101266D01*
X134354Y99063D01*
X133252Y97961D01*
X129948Y97961D01*
X132151Y97961D02*
X134354Y95758D01*
X137432Y95758D02*
X141838Y95758D01*
X137432Y95758D02*
X141838Y100164D01*
X141838Y101266D01*
X140737Y102368D01*
X138533Y102368D01*
X137432Y101266D01*
X144916Y100164D02*
X147119Y102368D01*
X147119Y95758D01*
X144916Y95758D02*
X149322Y95758D01*
D10*
X59690Y103124D02*
X59690Y67564D01*
X-5842Y67564D01*
X-5842Y103124D01*
X59690Y103124D01*
D20*
X38826Y49790D02*
X37640Y48604D01*
X38826Y49790D02*
X41199Y49790D01*
X42385Y48604D01*
X42385Y47417D01*
X41199Y46231D01*
X40013Y46231D01*
X41199Y46231D02*
X42385Y45045D01*
X42385Y43858D01*
X41199Y42672D01*
X38826Y42672D01*
X37640Y43858D01*
X50041Y111252D02*
X50041Y118370D01*
X46482Y114811D01*
X51227Y114811D01*
X-4721Y49790D02*
X-7094Y47417D01*
X-4721Y49790D02*
X-4721Y42672D01*
X-2349Y42672D02*
X-7094Y42672D01*
X14526Y42578D02*
X19271Y42578D01*
X14526Y42578D02*
X19271Y47323D01*
X19271Y48510D01*
X18085Y49696D01*
X15712Y49696D01*
X14526Y48510D01*
D11*
X4489Y86614D02*
X2286Y86614D01*
X3388Y86614D02*
X3388Y93224D01*
X4489Y93224D02*
X2286Y93224D01*
X10580Y93224D02*
X11682Y92122D01*
X10580Y93224D02*
X8377Y93224D01*
X7275Y92122D01*
X7275Y87716D01*
X8377Y86614D01*
X10580Y86614D01*
X11682Y87716D01*
X18064Y86614D02*
X18064Y93224D01*
X14760Y89919D01*
X19166Y89919D01*
D12*
X93472Y69596D02*
X121412Y69596D01*
X121412Y56896D01*
X93472Y56896D01*
X93472Y69596D01*
D11*
X75680Y65198D02*
X74578Y66300D01*
X72375Y66300D01*
X71274Y65198D01*
X71274Y60792D01*
X72375Y59690D01*
X74578Y59690D01*
X75680Y60792D01*
X78758Y59690D02*
X83164Y59690D01*
X78758Y59690D02*
X83164Y64096D01*
X83164Y65198D01*
X82063Y66300D01*
X79859Y66300D01*
X78758Y65198D01*
X86242Y66300D02*
X90648Y66300D01*
X86242Y66300D02*
X86242Y62995D01*
X88445Y64096D01*
X89547Y64096D01*
X90648Y62995D01*
X90648Y60792D01*
X89547Y59690D01*
X87343Y59690D01*
X86242Y60792D01*
D12*
X93218Y54864D02*
X121158Y54864D01*
X121158Y42164D01*
X93218Y42164D01*
X93218Y54864D01*
D11*
X106937Y42678D02*
X108038Y41576D01*
X106937Y42678D02*
X104734Y42678D01*
X103632Y41576D01*
X103632Y37170D01*
X104734Y36068D01*
X106937Y36068D01*
X108038Y37170D01*
X111116Y36068D02*
X115523Y36068D01*
X115523Y40474D02*
X111116Y36068D01*
X115523Y40474D02*
X115523Y41576D01*
X114421Y42678D01*
X112218Y42678D01*
X111116Y41576D01*
X120804Y41576D02*
X123007Y42678D01*
X120804Y41576D02*
X118600Y39373D01*
X118600Y37170D01*
X119702Y36068D01*
X121905Y36068D01*
X123007Y37170D01*
X123007Y38271D01*
X121905Y39373D01*
X118600Y39373D01*
D10*
X125482Y51914D02*
X125482Y77884D01*
D11*
X176016Y60151D02*
X177118Y61252D01*
X176016Y60151D02*
X176016Y57947D01*
X177118Y56846D01*
X181524Y56846D01*
X182626Y57947D01*
X182626Y60151D01*
X181524Y61252D01*
X182626Y64330D02*
X182626Y68736D01*
X182626Y64330D02*
X178220Y68736D01*
X177118Y68736D01*
X176016Y67635D01*
X176016Y65432D01*
X177118Y64330D01*
X176016Y71814D02*
X176016Y76220D01*
X177118Y76220D01*
X181524Y71814D01*
X182626Y71814D01*
D12*
X19812Y130556D02*
X-8128Y130556D01*
X-8128Y143256D01*
X19812Y143256D01*
X19812Y130556D01*
D11*
X29452Y139112D02*
X28350Y140214D01*
X26147Y140214D01*
X25046Y139112D01*
X25046Y134706D01*
X26147Y133604D01*
X28350Y133604D01*
X29452Y134706D01*
X32530Y133604D02*
X36936Y133604D01*
X32530Y133604D02*
X36936Y138010D01*
X36936Y139112D01*
X35835Y140214D01*
X33631Y140214D01*
X32530Y139112D01*
X40014Y139112D02*
X41115Y140214D01*
X43319Y140214D01*
X44420Y139112D01*
X44420Y138010D01*
X43319Y136909D01*
X44420Y135807D01*
X44420Y134706D01*
X43319Y133604D01*
X41115Y133604D01*
X40014Y134706D01*
X40014Y135807D01*
X41115Y136909D01*
X40014Y138010D01*
X40014Y139112D01*
X41115Y136909D02*
X43319Y136909D01*
D12*
X133096Y50546D02*
X161036Y50546D01*
X161036Y37846D01*
X133096Y37846D01*
X133096Y50546D01*
D11*
X130048Y29618D02*
X123438Y29618D01*
X123438Y32922D01*
X124540Y34024D01*
X126743Y34024D01*
X127845Y32922D01*
X127845Y29618D01*
X127845Y31821D02*
X130048Y34024D01*
X130048Y37102D02*
X130048Y41508D01*
X130048Y37102D02*
X125642Y41508D01*
X124540Y41508D01*
X123438Y40407D01*
X123438Y38203D01*
X124540Y37102D01*
X130048Y44586D02*
X130048Y48992D01*
X130048Y44586D02*
X125642Y48992D01*
X124540Y48992D01*
X123438Y47891D01*
X123438Y45687D01*
X124540Y44586D01*
D12*
X89916Y85090D02*
X61976Y85090D01*
X89916Y85090D02*
X89916Y72390D01*
X61976Y72390D01*
X61976Y85090D01*
D11*
X68668Y93392D02*
X67567Y94494D01*
X65364Y94494D01*
X64262Y93392D01*
X64262Y88986D01*
X65364Y87884D01*
X67567Y87884D01*
X68668Y88986D01*
X71746Y87884D02*
X76153Y87884D01*
X76153Y92290D02*
X71746Y87884D01*
X76153Y92290D02*
X76153Y93392D01*
X75051Y94494D01*
X72848Y94494D01*
X71746Y93392D01*
X79230Y88986D02*
X80332Y87884D01*
X82535Y87884D01*
X83637Y88986D01*
X83637Y93392D01*
X82535Y94494D01*
X80332Y94494D01*
X79230Y93392D01*
X79230Y92290D01*
X80332Y91189D01*
X83637Y91189D01*
X-36576Y35814D02*
X-49276Y35814D01*
X-36576Y35814D02*
X-30226Y29464D01*
X-30226Y16764D01*
X-36576Y10414D01*
X-55626Y16764D02*
X-55626Y29464D01*
X-49276Y35814D01*
X-55626Y16764D02*
X-49276Y10414D01*
X-36576Y10414D01*
X-30226Y29464D02*
X-23876Y35814D01*
X-11176Y35814D01*
X-4826Y29464D01*
X-4826Y16764D01*
X-11176Y10414D01*
X-23876Y10414D01*
X-30226Y16764D01*
X-41316Y17526D02*
X-42418Y18628D01*
X-41316Y17526D02*
X-40215Y17526D01*
X-39113Y18628D01*
X-39113Y24136D01*
X-38012Y24136D02*
X-40215Y24136D01*
X-34934Y24136D02*
X-34934Y17526D01*
X-34934Y24136D02*
X-31629Y24136D01*
X-30527Y23034D01*
X-30527Y20831D01*
X-31629Y19729D01*
X-34934Y19729D01*
X-27450Y21932D02*
X-25247Y24136D01*
X-25247Y17526D01*
X-27450Y17526D02*
X-23043Y17526D01*
D12*
X15748Y9906D02*
X15748Y37846D01*
X15748Y9906D02*
X3048Y9906D01*
X3048Y37846D01*
X15748Y37846D01*
D11*
X765Y7118D02*
X1866Y6016D01*
X765Y7118D02*
X-1438Y7118D01*
X-2540Y6016D01*
X-2540Y1610D01*
X-1438Y508D01*
X765Y508D01*
X1866Y1610D01*
X4944Y508D02*
X9351Y508D01*
X9351Y4914D02*
X4944Y508D01*
X9351Y4914D02*
X9351Y6016D01*
X8249Y7118D01*
X6046Y7118D01*
X4944Y6016D01*
X12428Y6016D02*
X12428Y1610D01*
X12428Y6016D02*
X13530Y7118D01*
X15733Y7118D01*
X16835Y6016D01*
X16835Y1610D01*
X15733Y508D01*
X13530Y508D01*
X12428Y1610D01*
X16835Y6016D01*
X63246Y267716D02*
X56896Y274066D01*
X44196Y274066D02*
X37846Y267716D01*
X31496Y274066D01*
X18796Y274066D02*
X12446Y267716D01*
X63246Y267716D02*
X63246Y229616D01*
X56896Y223266D01*
X44196Y223266D01*
X37846Y229616D01*
X31496Y223266D01*
X18796Y223266D01*
X12446Y229616D01*
X37846Y229616D02*
X37846Y267716D01*
X12446Y267716D02*
X12446Y229616D01*
X18796Y274066D02*
X31496Y274066D01*
X44196Y274066D02*
X56896Y274066D01*
X12446Y267716D02*
X6096Y274066D01*
X-6604Y274066D02*
X-12954Y267716D01*
X12446Y229616D02*
X6096Y223266D01*
X-6604Y223266D01*
X-12954Y229616D01*
X-12954Y267716D01*
X-6604Y274066D02*
X6096Y274066D01*
X74676Y240953D02*
X74676Y238750D01*
X74676Y239852D02*
X68066Y239852D01*
X68066Y240953D02*
X68066Y238750D01*
X68066Y247044D02*
X69168Y248146D01*
X68066Y247044D02*
X68066Y244841D01*
X69168Y243740D01*
X73574Y243740D01*
X74676Y244841D01*
X74676Y247044D01*
X73574Y248146D01*
X68066Y254529D02*
X69168Y255630D01*
X68066Y254529D02*
X68066Y252325D01*
X69168Y251224D01*
X70270Y251224D01*
X71371Y252325D01*
X71371Y254529D01*
X72473Y255630D01*
X73574Y255630D01*
X74676Y254529D01*
X74676Y252325D01*
X73574Y251224D01*
X74676Y258708D02*
X68066Y258708D01*
X68066Y262013D01*
X69168Y263114D01*
X71371Y263114D01*
X72473Y262013D01*
X72473Y258708D01*
X-45466Y340360D02*
X-51816Y346710D01*
X-32766Y340360D02*
X-26416Y346710D01*
X-20066Y340360D01*
X-7366Y340360D02*
X-1016Y346710D01*
X5334Y340360D01*
X18034Y340360D02*
X24384Y346710D01*
X-51816Y346710D02*
X-51816Y384810D01*
X-45466Y391160D01*
X-32766Y391160D01*
X-26416Y384810D01*
X-20066Y391160D01*
X-7366Y391160D01*
X-1016Y384810D01*
X5334Y391160D01*
X18034Y391160D01*
X24384Y384810D01*
X-26416Y384810D02*
X-26416Y346710D01*
X-1016Y346710D02*
X-1016Y384810D01*
X24384Y384810D02*
X24384Y346710D01*
X18034Y340360D02*
X5334Y340360D01*
X-7366Y340360D02*
X-20066Y340360D01*
X-32766Y340360D02*
X-45466Y340360D01*
X24384Y346710D02*
X30734Y340360D01*
X43434Y340360D02*
X49784Y346710D01*
X24384Y384810D02*
X30734Y391160D01*
X43434Y391160D01*
X49784Y384810D01*
X49784Y346710D01*
X43434Y340360D02*
X30734Y340360D01*
D12*
X-38976Y399816D02*
X-42799Y399816D01*
X-42799Y394081D01*
X-38976Y394081D01*
X-40887Y396948D02*
X-42799Y396948D01*
X-33486Y399816D02*
X-32530Y398860D01*
X-33486Y399816D02*
X-35398Y399816D01*
X-36354Y398860D01*
X-36354Y397904D01*
X-35398Y396948D01*
X-33486Y396948D01*
X-32530Y395993D01*
X-32530Y395037D01*
X-33486Y394081D01*
X-35398Y394081D01*
X-36354Y395037D01*
X-29908Y394081D02*
X-29908Y399816D01*
X-27041Y399816D01*
X-26085Y398860D01*
X-26085Y396948D01*
X-27041Y395993D01*
X-29908Y395993D01*
X-23463Y398860D02*
X-22507Y399816D01*
X-20595Y399816D01*
X-19639Y398860D01*
X-19639Y397904D01*
X-20595Y396948D01*
X-19639Y395993D01*
X-19639Y395037D01*
X-20595Y394081D01*
X-22507Y394081D01*
X-23463Y395037D01*
X-23463Y395993D01*
X-22507Y396948D01*
X-23463Y397904D01*
X-23463Y398860D01*
X-22507Y396948D02*
X-20595Y396948D01*
X-17017Y394081D02*
X-13194Y394081D01*
X-17017Y394081D02*
X-13194Y397904D01*
X-13194Y398860D01*
X-14150Y399816D01*
X-16061Y399816D01*
X-17017Y398860D01*
X-8660Y398860D02*
X-6748Y399816D01*
X-8660Y398860D02*
X-10572Y396948D01*
X-10572Y395037D01*
X-9616Y394081D01*
X-7704Y394081D01*
X-6748Y395037D01*
X-6748Y395993D01*
X-7704Y396948D01*
X-10572Y396948D01*
X-2214Y398860D02*
X-303Y399816D01*
X-2214Y398860D02*
X-4126Y396948D01*
X-4126Y395037D01*
X-3170Y394081D01*
X-1259Y394081D01*
X-303Y395037D01*
X-303Y395993D01*
X-1259Y396948D01*
X-4126Y396948D01*
X2320Y396948D02*
X6143Y396948D01*
X8765Y394081D02*
X8765Y399816D01*
X10677Y397904D01*
X12588Y399816D01*
X12588Y394081D01*
X16166Y399816D02*
X18078Y399816D01*
X16166Y399816D02*
X15211Y398860D01*
X15211Y395037D01*
X16166Y394081D01*
X18078Y394081D01*
X19034Y395037D01*
X19034Y398860D01*
X18078Y399816D01*
X21656Y399816D02*
X21656Y394081D01*
X24523Y394081D01*
X25479Y395037D01*
X25479Y398860D01*
X24523Y399816D01*
X21656Y399816D01*
X28102Y399816D02*
X28102Y395037D01*
X29057Y394081D01*
X30969Y394081D01*
X31925Y395037D01*
X31925Y399816D01*
X34547Y399816D02*
X34547Y394081D01*
X38370Y394081D01*
X40993Y399816D02*
X44816Y399816D01*
X40993Y399816D02*
X40993Y394081D01*
X44816Y394081D01*
X42904Y396948D02*
X40993Y396948D01*
D11*
X74168Y13208D02*
X67818Y6858D01*
X55118Y6858D01*
X48768Y13208D01*
X48768Y25908D01*
X55118Y32258D01*
X67818Y32258D01*
X74168Y25908D01*
X105918Y6858D02*
X118618Y6858D01*
X105918Y6858D02*
X99568Y13208D01*
X99568Y25908D01*
X105918Y32258D01*
X99568Y13208D02*
X93218Y6858D01*
X80518Y6858D01*
X74168Y13208D01*
X74168Y25908D01*
X80518Y32258D01*
X93218Y32258D01*
X99568Y25908D01*
X144018Y6858D02*
X150368Y13208D01*
X144018Y6858D02*
X131318Y6858D01*
X124968Y13208D01*
X124968Y25908D01*
X131318Y32258D01*
X144018Y32258D01*
X150368Y25908D01*
X124968Y13208D02*
X118618Y6858D01*
X124968Y25908D02*
X118618Y32258D01*
X105918Y32258D01*
X182118Y6858D02*
X194818Y6858D01*
X182118Y6858D02*
X175768Y13208D01*
X175768Y25908D01*
X182118Y32258D01*
X175768Y13208D02*
X169418Y6858D01*
X156718Y6858D01*
X150368Y13208D01*
X150368Y25908D01*
X156718Y32258D01*
X169418Y32258D01*
X175768Y25908D01*
X201168Y25908D02*
X201168Y13208D01*
X194818Y6858D01*
X201168Y25908D02*
X194818Y32258D01*
X182118Y32258D01*
X42418Y6858D02*
X29718Y6858D01*
X23368Y13208D01*
X23368Y25908D01*
X29718Y32258D01*
X48768Y13208D02*
X42418Y6858D01*
X48768Y25908D02*
X42418Y32258D01*
X29718Y32258D01*
X125122Y12024D02*
X126223Y10922D01*
X127325Y10922D01*
X128426Y12024D01*
X128426Y17532D01*
X127325Y17532D02*
X129528Y17532D01*
X132606Y17532D02*
X132606Y10922D01*
X132606Y17532D02*
X135911Y17532D01*
X137012Y16430D01*
X137012Y14227D01*
X135911Y13125D01*
X132606Y13125D01*
X143395Y10922D02*
X143395Y17532D01*
X140090Y14227D01*
X144496Y14227D01*
D19*
X-45482Y163068D03*
D11*
X-60618Y174247D02*
X-65024Y174247D01*
X-62821Y176450D02*
X-62821Y172044D01*
X-57540Y177552D02*
X-53133Y177552D01*
X-57540Y177552D02*
X-57540Y174247D01*
X-55337Y175348D01*
X-54235Y175348D01*
X-53133Y174247D01*
X-53133Y172044D01*
X-54235Y170942D01*
X-56438Y170942D01*
X-57540Y172044D01*
X-50056Y173145D02*
X-50056Y177552D01*
X-50056Y173145D02*
X-47853Y170942D01*
X-45649Y173145D01*
X-45649Y177552D01*
X-42572Y177552D02*
X-38165Y177552D01*
X-42572Y177552D02*
X-42572Y174247D01*
X-40368Y175348D01*
X-39267Y175348D01*
X-38165Y174247D01*
X-38165Y172044D01*
X-39267Y170942D01*
X-41470Y170942D01*
X-42572Y172044D01*
X-35087Y174247D02*
X-30681Y174247D01*
X-27603Y170942D02*
X-27603Y177552D01*
X-24298Y177552D01*
X-23197Y176450D01*
X-23197Y174247D01*
X-24298Y173145D01*
X-27603Y173145D01*
X-20119Y170942D02*
X-20119Y177552D01*
X-17916Y173145D02*
X-20119Y170942D01*
X-17916Y173145D02*
X-15713Y170942D01*
X-15713Y177552D01*
X-12635Y177552D02*
X-12635Y170942D01*
X-12635Y177552D02*
X-9330Y177552D01*
X-8229Y176450D01*
X-8229Y174247D01*
X-9330Y173145D01*
X-12635Y173145D01*
X-10432Y173145D02*
X-8229Y170942D01*
D12*
X-32004Y189484D02*
X-59944Y189484D01*
X-32004Y189484D02*
X-32004Y176784D01*
X-59944Y176784D01*
X-59944Y189484D01*
D11*
X-52070Y195834D02*
X-52070Y202444D01*
X-48765Y202444D01*
X-47664Y201342D01*
X-47664Y199139D01*
X-48765Y198037D01*
X-52070Y198037D01*
X-49867Y198037D02*
X-47664Y195834D01*
X-44586Y200240D02*
X-42383Y202444D01*
X-42383Y195834D01*
X-44586Y195834D02*
X-40179Y195834D01*
D10*
X478025Y64008D02*
X478027Y64208D01*
X478035Y64407D01*
X478047Y64606D01*
X478064Y64805D01*
X478086Y65003D01*
X478113Y65201D01*
X478145Y65398D01*
X478181Y65594D01*
X478223Y65790D01*
X478269Y65984D01*
X478320Y66177D01*
X478375Y66368D01*
X478435Y66559D01*
X478500Y66747D01*
X478570Y66934D01*
X478644Y67120D01*
X478723Y67303D01*
X478806Y67484D01*
X478893Y67664D01*
X478985Y67841D01*
X479081Y68016D01*
X479182Y68188D01*
X479286Y68358D01*
X479395Y68525D01*
X479508Y68690D01*
X479625Y68852D01*
X479746Y69010D01*
X479871Y69166D01*
X479999Y69319D01*
X480131Y69468D01*
X480267Y69615D01*
X480407Y69757D01*
X480549Y69897D01*
X480696Y70033D01*
X480845Y70165D01*
X480998Y70293D01*
X481154Y70418D01*
X481312Y70539D01*
X481474Y70656D01*
X481639Y70769D01*
X481806Y70878D01*
X481976Y70982D01*
X482148Y71083D01*
X482323Y71179D01*
X482500Y71271D01*
X482680Y71358D01*
X482861Y71441D01*
X483044Y71520D01*
X483230Y71594D01*
X483417Y71664D01*
X483605Y71729D01*
X483796Y71789D01*
X483987Y71844D01*
X484180Y71895D01*
X484374Y71941D01*
X484570Y71983D01*
X484766Y72019D01*
X484963Y72051D01*
X485161Y72078D01*
X485359Y72100D01*
X485558Y72117D01*
X485757Y72129D01*
X485956Y72137D01*
X486156Y72139D01*
X486356Y72137D01*
X486555Y72129D01*
X486754Y72117D01*
X486953Y72100D01*
X487151Y72078D01*
X487349Y72051D01*
X487546Y72019D01*
X487742Y71983D01*
X487938Y71941D01*
X488132Y71895D01*
X488325Y71844D01*
X488516Y71789D01*
X488707Y71729D01*
X488895Y71664D01*
X489082Y71594D01*
X489268Y71520D01*
X489451Y71441D01*
X489632Y71358D01*
X489812Y71271D01*
X489989Y71179D01*
X490164Y71083D01*
X490336Y70982D01*
X490506Y70878D01*
X490673Y70769D01*
X490838Y70656D01*
X491000Y70539D01*
X491158Y70418D01*
X491314Y70293D01*
X491467Y70165D01*
X491616Y70033D01*
X491763Y69897D01*
X491905Y69757D01*
X492045Y69615D01*
X492181Y69468D01*
X492313Y69319D01*
X492441Y69166D01*
X492566Y69010D01*
X492687Y68852D01*
X492804Y68690D01*
X492917Y68525D01*
X493026Y68358D01*
X493130Y68188D01*
X493231Y68016D01*
X493327Y67841D01*
X493419Y67664D01*
X493506Y67484D01*
X493589Y67303D01*
X493668Y67120D01*
X493742Y66934D01*
X493812Y66747D01*
X493877Y66559D01*
X493937Y66368D01*
X493992Y66177D01*
X494043Y65984D01*
X494089Y65790D01*
X494131Y65594D01*
X494167Y65398D01*
X494199Y65201D01*
X494226Y65003D01*
X494248Y64805D01*
X494265Y64606D01*
X494277Y64407D01*
X494285Y64208D01*
X494287Y64008D01*
X494285Y63808D01*
X494277Y63609D01*
X494265Y63410D01*
X494248Y63211D01*
X494226Y63013D01*
X494199Y62815D01*
X494167Y62618D01*
X494131Y62422D01*
X494089Y62226D01*
X494043Y62032D01*
X493992Y61839D01*
X493937Y61648D01*
X493877Y61457D01*
X493812Y61269D01*
X493742Y61082D01*
X493668Y60896D01*
X493589Y60713D01*
X493506Y60532D01*
X493419Y60352D01*
X493327Y60175D01*
X493231Y60000D01*
X493130Y59828D01*
X493026Y59658D01*
X492917Y59491D01*
X492804Y59326D01*
X492687Y59164D01*
X492566Y59006D01*
X492441Y58850D01*
X492313Y58697D01*
X492181Y58548D01*
X492045Y58401D01*
X491905Y58259D01*
X491763Y58119D01*
X491616Y57983D01*
X491467Y57851D01*
X491314Y57723D01*
X491158Y57598D01*
X491000Y57477D01*
X490838Y57360D01*
X490673Y57247D01*
X490506Y57138D01*
X490336Y57034D01*
X490164Y56933D01*
X489989Y56837D01*
X489812Y56745D01*
X489632Y56658D01*
X489451Y56575D01*
X489268Y56496D01*
X489082Y56422D01*
X488895Y56352D01*
X488707Y56287D01*
X488516Y56227D01*
X488325Y56172D01*
X488132Y56121D01*
X487938Y56075D01*
X487742Y56033D01*
X487546Y55997D01*
X487349Y55965D01*
X487151Y55938D01*
X486953Y55916D01*
X486754Y55899D01*
X486555Y55887D01*
X486356Y55879D01*
X486156Y55877D01*
X485956Y55879D01*
X485757Y55887D01*
X485558Y55899D01*
X485359Y55916D01*
X485161Y55938D01*
X484963Y55965D01*
X484766Y55997D01*
X484570Y56033D01*
X484374Y56075D01*
X484180Y56121D01*
X483987Y56172D01*
X483796Y56227D01*
X483605Y56287D01*
X483417Y56352D01*
X483230Y56422D01*
X483044Y56496D01*
X482861Y56575D01*
X482680Y56658D01*
X482500Y56745D01*
X482323Y56837D01*
X482148Y56933D01*
X481976Y57034D01*
X481806Y57138D01*
X481639Y57247D01*
X481474Y57360D01*
X481312Y57477D01*
X481154Y57598D01*
X480998Y57723D01*
X480845Y57851D01*
X480696Y57983D01*
X480549Y58119D01*
X480407Y58259D01*
X480267Y58401D01*
X480131Y58548D01*
X479999Y58697D01*
X479871Y58850D01*
X479746Y59006D01*
X479625Y59164D01*
X479508Y59326D01*
X479395Y59491D01*
X479286Y59658D01*
X479182Y59828D01*
X479081Y60000D01*
X478985Y60175D01*
X478893Y60352D01*
X478806Y60532D01*
X478723Y60713D01*
X478644Y60896D01*
X478570Y61082D01*
X478500Y61269D01*
X478435Y61457D01*
X478375Y61648D01*
X478320Y61839D01*
X478269Y62032D01*
X478223Y62226D01*
X478181Y62422D01*
X478145Y62618D01*
X478113Y62815D01*
X478086Y63013D01*
X478064Y63211D01*
X478047Y63410D01*
X478035Y63609D01*
X478027Y63808D01*
X478025Y64008D01*
X475996Y51308D02*
X496316Y51308D01*
X496316Y76708D02*
X475996Y76708D01*
D11*
X453177Y52076D02*
X448771Y52076D01*
X448771Y45466D01*
X453177Y45466D01*
X450974Y48771D02*
X448771Y48771D01*
X456255Y45466D02*
X456255Y52076D01*
X458458Y49872D01*
X460661Y52076D01*
X460661Y45466D01*
X463739Y52076D02*
X468145Y52076D01*
X463739Y52076D02*
X463739Y45466D01*
X468145Y45466D01*
X465942Y48771D02*
X463739Y48771D01*
X471223Y45466D02*
X471223Y52076D01*
X474528Y52076D01*
X475629Y50974D01*
X475629Y48771D01*
X474528Y47669D01*
X471223Y47669D01*
X473426Y47669D02*
X475629Y45466D01*
X482012Y52076D02*
X483114Y50974D01*
X482012Y52076D02*
X479809Y52076D01*
X478707Y50974D01*
X478707Y46568D01*
X479809Y45466D01*
X482012Y45466D01*
X483114Y46568D01*
X483114Y48771D01*
X480910Y48771D01*
X486191Y52076D02*
X490598Y52076D01*
X486191Y52076D02*
X486191Y45466D01*
X490598Y45466D01*
X488395Y48771D02*
X486191Y48771D01*
X493676Y45466D02*
X493676Y52076D01*
X498082Y45466D01*
X498082Y52076D01*
X504465Y52076D02*
X505566Y50974D01*
X504465Y52076D02*
X502261Y52076D01*
X501160Y50974D01*
X501160Y46568D01*
X502261Y45466D01*
X504465Y45466D01*
X505566Y46568D01*
X508644Y50974D02*
X508644Y52076D01*
X508644Y50974D02*
X510847Y48771D01*
X513050Y50974D01*
X513050Y52076D01*
X510847Y48771D02*
X510847Y45466D01*
D12*
X509778Y79502D02*
X481838Y79502D01*
X481838Y92202D01*
X509778Y92202D01*
X509778Y79502D01*
D11*
X475506Y92456D02*
X475506Y99066D01*
X478811Y99066D01*
X479912Y97964D01*
X479912Y95761D01*
X478811Y94659D01*
X475506Y94659D01*
X477709Y94659D02*
X479912Y92456D01*
X482990Y93558D02*
X484091Y92456D01*
X486295Y92456D01*
X487396Y93558D01*
X487396Y97964D01*
X486295Y99066D01*
X484091Y99066D01*
X482990Y97964D01*
X482990Y96862D01*
X484091Y95761D01*
X487396Y95761D01*
D12*
X329692Y59944D02*
X301752Y59944D01*
X301752Y72644D01*
X329692Y72644D01*
X329692Y59944D01*
D11*
X308002Y57918D02*
X308002Y51308D01*
X308002Y57918D02*
X311306Y57918D01*
X312408Y56816D01*
X312408Y54613D01*
X311306Y53511D01*
X308002Y53511D01*
X310205Y53511D02*
X312408Y51308D01*
X315486Y55714D02*
X317689Y57918D01*
X317689Y51308D01*
X315486Y51308D02*
X319892Y51308D01*
X322970Y55714D02*
X325173Y57918D01*
X325173Y51308D01*
X322970Y51308D02*
X327376Y51308D01*
D12*
X297180Y73406D02*
X269240Y73406D01*
X297180Y73406D02*
X297180Y60706D01*
X269240Y60706D01*
X269240Y73406D01*
D11*
X270002Y75438D02*
X270002Y82048D01*
X273307Y82048D01*
X274408Y80946D01*
X274408Y78743D01*
X273307Y77641D01*
X270002Y77641D01*
X272205Y77641D02*
X274408Y75438D01*
X277486Y75438D02*
X281893Y75438D01*
X281893Y79844D02*
X277486Y75438D01*
X281893Y79844D02*
X281893Y80946D01*
X280791Y82048D01*
X278588Y82048D01*
X277486Y80946D01*
X288275Y82048D02*
X288275Y75438D01*
X284970Y78743D02*
X288275Y82048D01*
X289377Y78743D02*
X284970Y78743D01*
M02*
