G04 EAGLE Gerber X2 export*
%TF.Part,Single*%
%TF.FileFunction,Paste,Bot*%
%TF.FilePolarity,Positive*%
%TF.GenerationSoftware,Autodesk,EAGLE,8.6.3*%
%TF.CreationDate,2023-08-17T09:39:48Z*%
G75*
%MOMM*%
%FSLAX34Y34*%
%LPD*%
%AMOC8*
5,1,8,0,0,1.08239X$1,22.5*%
G01*
%ADD10R,0.500000X0.500000*%
%ADD11R,0.400000X0.500000*%
%ADD12R,2.610000X1.560000*%
%ADD13R,1.500000X0.900000*%
%ADD14R,0.800000X2.008000*%
%ADD15R,1.450000X2.000000*%
%ADD16C,0.222250*%
%ADD17C,0.381000*%
%ADD18R,0.600000X0.700000*%


D10*
X341750Y229980D03*
D11*
X349250Y229980D03*
D10*
X356750Y229980D03*
X356750Y211980D03*
D11*
X349250Y211980D03*
D10*
X341750Y211980D03*
D12*
X400900Y287400D03*
X526900Y287400D03*
X526900Y118400D03*
X400900Y118400D03*
D13*
X376900Y267100D03*
X376900Y254400D03*
X376900Y241700D03*
X376900Y229000D03*
X376900Y216300D03*
X376900Y203600D03*
D14*
X215286Y185040D03*
X226286Y185040D03*
X237286Y185040D03*
X248286Y185040D03*
X259286Y185040D03*
X270286Y185040D03*
X281286Y185040D03*
X292286Y185040D03*
D15*
X177250Y161580D03*
X317290Y161580D03*
X177250Y243564D03*
X317290Y243564D03*
D16*
X-95790Y180880D02*
X-95790Y174212D01*
X-95790Y180880D02*
X-89122Y180880D01*
X-89122Y174212D01*
X-95790Y174212D01*
X-95790Y176434D02*
X-89122Y176434D01*
X-89122Y178656D02*
X-95790Y178656D01*
X-95790Y180878D02*
X-89122Y180878D01*
X-95790Y165640D02*
X-95790Y158972D01*
X-95790Y165640D02*
X-89122Y165640D01*
X-89122Y158972D01*
X-95790Y158972D01*
X-95790Y161194D02*
X-89122Y161194D01*
X-89122Y163416D02*
X-95790Y163416D01*
X-95790Y165638D02*
X-89122Y165638D01*
D17*
X72136Y124587D02*
X72136Y108077D01*
X65634Y108077D02*
X65634Y124587D01*
X59136Y124587D02*
X59136Y108077D01*
X52636Y108077D02*
X52636Y124587D01*
X46134Y124587D02*
X46134Y108077D01*
X39637Y108077D02*
X39637Y124587D01*
X33139Y124587D02*
X33139Y108077D01*
X26637Y108077D02*
X26637Y124587D01*
X20137Y124587D02*
X20137Y108077D01*
X13635Y108077D02*
X13635Y124587D01*
X7132Y124587D02*
X7132Y108077D01*
X635Y108077D02*
X635Y124587D01*
X-5862Y124587D02*
X-5862Y108077D01*
X-12365Y108077D02*
X-12365Y124587D01*
X-12365Y179197D02*
X-12365Y195707D01*
X-5862Y195707D02*
X-5862Y179197D01*
X635Y179197D02*
X635Y195707D01*
X7132Y195707D02*
X7132Y179197D01*
X13635Y179197D02*
X13635Y195707D01*
X20137Y195707D02*
X20137Y179197D01*
X26637Y179197D02*
X26637Y195707D01*
X33139Y195707D02*
X33139Y179197D01*
X39637Y179197D02*
X39637Y195707D01*
X46134Y195707D02*
X46134Y179197D01*
X52636Y179197D02*
X52636Y195707D01*
X59136Y195707D02*
X59136Y179197D01*
X65639Y179197D02*
X65639Y195707D01*
X72136Y195707D02*
X72136Y179197D01*
D18*
X-5944Y76548D03*
X13056Y76548D03*
X3556Y56548D03*
M02*
