G04 EAGLE Gerber X2 export*
%TF.Part,Single*%
%TF.FileFunction,Soldermask,Top,1*%
%TF.FilePolarity,Negative*%
%TF.GenerationSoftware,Autodesk,EAGLE,8.6.3*%
%TF.CreationDate,2023-08-17T09:39:48Z*%
G75*
%MOMM*%
%FSLAX34Y34*%
%LPD*%
%AMOC8*
5,1,8,0,0,1.08239X$1,22.5*%
G01*
%ADD10C,0.431800*%
%ADD11C,0.558800*%
%ADD12C,0.368300*%
%ADD13C,0.247650*%
%ADD14R,1.752600X1.752600*%
%ADD15C,1.752600*%
%ADD16C,0.215900*%
%ADD17R,1.301600X0.651600*%
%ADD18R,1.409600X1.409600*%
%ADD19C,1.409600*%
%ADD20R,1.117600X1.244600*%
%ADD21R,1.701600X0.901600*%
%ADD22R,0.901600X1.701600*%
%ADD23R,1.601600X1.601600*%
%ADD24R,3.101600X3.101600*%
%ADD25R,0.401600X0.751600*%
%ADD26R,2.451600X1.701600*%
%ADD27P,1.539592X8X292.500000*%
%ADD28C,1.422400*%
%ADD29R,1.301600X2.601600*%
%ADD30R,1.001600X0.901600*%
%ADD31R,0.601600X0.601600*%
%ADD32R,0.501600X0.601600*%
%ADD33R,2.501600X1.901600*%
%ADD34R,2.101600X0.801600*%
%ADD35R,2.641600X0.609600*%
%ADD36R,1.879600X2.387600*%
%ADD37C,1.051600*%
%ADD38R,1.371600X0.660400*%
%ADD39R,0.660400X1.371600*%
%ADD40R,2.082800X1.117600*%
%ADD41R,1.301600X1.301600*%
%ADD42R,1.320800X2.336800*%
%ADD43R,3.701600X2.301600*%
%ADD44C,1.625600*%
%ADD45P,1.759533X8X202.500000*%
%ADD46P,1.759533X8X22.500000*%
%ADD47R,1.117600X2.082800*%


D10*
X454787Y343281D02*
X435229Y343281D01*
X435229Y347599D01*
X454787Y347599D01*
X454787Y343281D01*
X454787Y347598D02*
X435229Y347598D01*
X435229Y315341D02*
X454787Y315341D01*
X435229Y315341D02*
X435229Y319659D01*
X454787Y319659D01*
X454787Y315341D01*
X454787Y319658D02*
X435229Y319658D01*
D11*
X457454Y334264D02*
X463042Y334264D01*
X463042Y328676D01*
X457454Y328676D01*
X457454Y334264D01*
X457454Y334263D02*
X463042Y334263D01*
X432562Y334264D02*
X426974Y334264D01*
X432562Y334264D02*
X432562Y328676D01*
X426974Y328676D01*
X426974Y334264D01*
X426974Y334263D02*
X432562Y334263D01*
D12*
X394399Y329628D02*
X390715Y329628D01*
X390715Y333312D01*
X394399Y333312D01*
X394399Y329628D01*
X394399Y333310D02*
X390715Y333310D01*
X399605Y329628D02*
X403289Y329628D01*
X399605Y329628D02*
X399605Y333312D01*
X403289Y333312D01*
X403289Y329628D01*
X403289Y333310D02*
X399605Y333310D01*
X394399Y314642D02*
X390715Y314642D01*
X390715Y318326D01*
X394399Y318326D01*
X394399Y314642D01*
X394399Y318324D02*
X390715Y318324D01*
X399605Y314642D02*
X403289Y314642D01*
X399605Y314642D02*
X399605Y318326D01*
X403289Y318326D01*
X403289Y314642D01*
X403289Y318324D02*
X399605Y318324D01*
D13*
X522065Y185515D02*
X529495Y185515D01*
X522065Y185515D02*
X522065Y192945D01*
X529495Y192945D01*
X529495Y185515D01*
X529495Y187991D02*
X522065Y187991D01*
X522065Y190467D02*
X529495Y190467D01*
X529495Y192943D02*
X522065Y192943D01*
X537305Y185515D02*
X544735Y185515D01*
X537305Y185515D02*
X537305Y192945D01*
X544735Y192945D01*
X544735Y185515D01*
X544735Y187991D02*
X537305Y187991D01*
X537305Y190467D02*
X544735Y190467D01*
X544735Y192943D02*
X537305Y192943D01*
X529495Y158845D02*
X522065Y158845D01*
X522065Y166275D01*
X529495Y166275D01*
X529495Y158845D01*
X529495Y161321D02*
X522065Y161321D01*
X522065Y163797D02*
X529495Y163797D01*
X529495Y166273D02*
X522065Y166273D01*
X537305Y158845D02*
X544735Y158845D01*
X537305Y158845D02*
X537305Y166275D01*
X544735Y166275D01*
X544735Y158845D01*
X544735Y161321D02*
X537305Y161321D01*
X537305Y163797D02*
X544735Y163797D01*
X544735Y166273D02*
X537305Y166273D01*
D14*
X477000Y380000D03*
D15*
X451600Y380000D03*
X426200Y380000D03*
X400800Y380000D03*
X375400Y380000D03*
X350000Y380000D03*
X324600Y380000D03*
X299200Y380000D03*
X273800Y380000D03*
X248400Y380000D03*
X223000Y380000D03*
D16*
X192469Y378524D02*
X185991Y378524D01*
X192469Y378524D02*
X192469Y370776D01*
X185991Y370776D01*
X185991Y378524D01*
X185991Y372934D02*
X192469Y372934D01*
X192469Y375092D02*
X185991Y375092D01*
X185991Y377250D02*
X192469Y377250D01*
X177229Y378524D02*
X170751Y378524D01*
X177229Y378524D02*
X177229Y370776D01*
X170751Y370776D01*
X170751Y378524D01*
X170751Y372934D02*
X177229Y372934D01*
X177229Y375092D02*
X170751Y375092D01*
X170751Y377250D02*
X177229Y377250D01*
D13*
X177705Y356965D02*
X170275Y356965D01*
X170275Y364395D01*
X177705Y364395D01*
X177705Y356965D01*
X177705Y359441D02*
X170275Y359441D01*
X170275Y361917D02*
X177705Y361917D01*
X177705Y364393D02*
X170275Y364393D01*
X185515Y356965D02*
X192945Y356965D01*
X185515Y356965D02*
X185515Y364395D01*
X192945Y364395D01*
X192945Y356965D01*
X192945Y359441D02*
X185515Y359441D01*
X185515Y361917D02*
X192945Y361917D01*
X192945Y364393D02*
X185515Y364393D01*
X237585Y340265D02*
X237585Y332835D01*
X237585Y340265D02*
X245015Y340265D01*
X245015Y332835D01*
X237585Y332835D01*
X237585Y335311D02*
X245015Y335311D01*
X245015Y337787D02*
X237585Y337787D01*
X237585Y340263D02*
X245015Y340263D01*
X237585Y325025D02*
X237585Y317595D01*
X237585Y325025D02*
X245015Y325025D01*
X245015Y317595D01*
X237585Y317595D01*
X237585Y320071D02*
X245015Y320071D01*
X245015Y322547D02*
X237585Y322547D01*
X237585Y325023D02*
X245015Y325023D01*
D17*
X174960Y348590D03*
X174960Y339090D03*
X174960Y329590D03*
X200960Y329590D03*
X200960Y348590D03*
D13*
X212185Y351695D02*
X212185Y344265D01*
X212185Y351695D02*
X219615Y351695D01*
X219615Y344265D01*
X212185Y344265D01*
X212185Y346741D02*
X219615Y346741D01*
X219615Y349217D02*
X212185Y349217D01*
X212185Y351693D02*
X219615Y351693D01*
X212185Y336455D02*
X212185Y329025D01*
X212185Y336455D02*
X219615Y336455D01*
X219615Y329025D01*
X212185Y329025D01*
X212185Y331501D02*
X219615Y331501D01*
X219615Y333977D02*
X212185Y333977D01*
X212185Y336453D02*
X219615Y336453D01*
D18*
X-44196Y308196D03*
D19*
X-44196Y288196D03*
D18*
X-44196Y244696D03*
D19*
X-44196Y224696D03*
D13*
X492855Y158845D02*
X500285Y158845D01*
X492855Y158845D02*
X492855Y166275D01*
X500285Y166275D01*
X500285Y158845D01*
X500285Y161321D02*
X492855Y161321D01*
X492855Y163797D02*
X500285Y163797D01*
X500285Y166273D02*
X492855Y166273D01*
X508095Y158845D02*
X515525Y158845D01*
X508095Y158845D02*
X508095Y166275D01*
X515525Y166275D01*
X515525Y158845D01*
X515525Y161321D02*
X508095Y161321D01*
X508095Y163797D02*
X515525Y163797D01*
X515525Y166273D02*
X508095Y166273D01*
X500285Y185515D02*
X492855Y185515D01*
X492855Y192945D01*
X500285Y192945D01*
X500285Y185515D01*
X500285Y187991D02*
X492855Y187991D01*
X492855Y190467D02*
X500285Y190467D01*
X500285Y192943D02*
X492855Y192943D01*
X508095Y185515D02*
X515525Y185515D01*
X508095Y185515D02*
X508095Y192945D01*
X515525Y192945D01*
X515525Y185515D01*
X515525Y187991D02*
X508095Y187991D01*
X508095Y190467D02*
X515525Y190467D01*
X515525Y192943D02*
X508095Y192943D01*
D14*
X477000Y20000D03*
D15*
X451600Y20000D03*
X426200Y20000D03*
X400800Y20000D03*
X375400Y20000D03*
X350000Y20000D03*
X324600Y20000D03*
X299200Y20000D03*
X273800Y20000D03*
X248400Y20000D03*
X223000Y20000D03*
D13*
X417735Y312515D02*
X417735Y319945D01*
X417735Y312515D02*
X410305Y312515D01*
X410305Y319945D01*
X417735Y319945D01*
X417735Y314991D02*
X410305Y314991D01*
X410305Y317467D02*
X417735Y317467D01*
X417735Y319943D02*
X410305Y319943D01*
X417735Y327755D02*
X417735Y335185D01*
X417735Y327755D02*
X410305Y327755D01*
X410305Y335185D01*
X417735Y335185D01*
X417735Y330231D02*
X410305Y330231D01*
X410305Y332707D02*
X417735Y332707D01*
X417735Y335183D02*
X410305Y335183D01*
X149955Y384905D02*
X149955Y392335D01*
X157385Y392335D01*
X157385Y384905D01*
X149955Y384905D01*
X149955Y387381D02*
X157385Y387381D01*
X157385Y389857D02*
X149955Y389857D01*
X149955Y392333D02*
X157385Y392333D01*
X149955Y377095D02*
X149955Y369665D01*
X149955Y377095D02*
X157385Y377095D01*
X157385Y369665D01*
X149955Y369665D01*
X149955Y372141D02*
X157385Y372141D01*
X157385Y374617D02*
X149955Y374617D01*
X149955Y377093D02*
X157385Y377093D01*
X185515Y392335D02*
X192945Y392335D01*
X192945Y384905D01*
X185515Y384905D01*
X185515Y392335D01*
X185515Y387381D02*
X192945Y387381D01*
X192945Y389857D02*
X185515Y389857D01*
X185515Y392333D02*
X192945Y392333D01*
X177705Y392335D02*
X170275Y392335D01*
X177705Y392335D02*
X177705Y384905D01*
X170275Y384905D01*
X170275Y392335D01*
X170275Y387381D02*
X177705Y387381D01*
X177705Y389857D02*
X170275Y389857D01*
X170275Y392333D02*
X177705Y392333D01*
D15*
X349250Y64770D03*
X374650Y64770D03*
X400050Y64770D03*
X425450Y64770D03*
D10*
X516001Y133731D02*
X535559Y133731D01*
X516001Y133731D02*
X516001Y138049D01*
X535559Y138049D01*
X535559Y133731D01*
X535559Y138048D02*
X516001Y138048D01*
X516001Y105791D02*
X535559Y105791D01*
X516001Y105791D02*
X516001Y110109D01*
X535559Y110109D01*
X535559Y105791D01*
X535559Y110108D02*
X516001Y110108D01*
D11*
X538226Y124714D02*
X543814Y124714D01*
X543814Y119126D01*
X538226Y119126D01*
X538226Y124714D01*
X538226Y124713D02*
X543814Y124713D01*
X513334Y124714D02*
X507746Y124714D01*
X513334Y124714D02*
X513334Y119126D01*
X507746Y119126D01*
X507746Y124714D01*
X507746Y124713D02*
X513334Y124713D01*
D20*
X168148Y248666D03*
X177648Y228346D03*
X158648Y228346D03*
D13*
X317595Y313785D02*
X325025Y313785D01*
X317595Y313785D02*
X317595Y321215D01*
X325025Y321215D01*
X325025Y313785D01*
X325025Y316261D02*
X317595Y316261D01*
X317595Y318737D02*
X325025Y318737D01*
X325025Y321213D02*
X317595Y321213D01*
X332835Y313785D02*
X340265Y313785D01*
X332835Y313785D02*
X332835Y321215D01*
X340265Y321215D01*
X340265Y313785D01*
X340265Y316261D02*
X332835Y316261D01*
X332835Y318737D02*
X340265Y318737D01*
X340265Y321213D02*
X332835Y321213D01*
X491585Y125635D02*
X491585Y118205D01*
X491585Y125635D02*
X499015Y125635D01*
X499015Y118205D01*
X491585Y118205D01*
X491585Y120681D02*
X499015Y120681D01*
X499015Y123157D02*
X491585Y123157D01*
X491585Y125633D02*
X499015Y125633D01*
X491585Y110395D02*
X491585Y102965D01*
X491585Y110395D02*
X499015Y110395D01*
X499015Y102965D01*
X491585Y102965D01*
X491585Y105441D02*
X499015Y105441D01*
X499015Y107917D02*
X491585Y107917D01*
X491585Y110393D02*
X499015Y110393D01*
X290735Y317595D02*
X290735Y325025D01*
X290735Y317595D02*
X283305Y317595D01*
X283305Y325025D01*
X290735Y325025D01*
X290735Y320071D02*
X283305Y320071D01*
X283305Y322547D02*
X290735Y322547D01*
X290735Y325023D02*
X283305Y325023D01*
X290735Y332835D02*
X290735Y340265D01*
X290735Y332835D02*
X283305Y332835D01*
X283305Y340265D01*
X290735Y340265D01*
X290735Y335311D02*
X283305Y335311D01*
X283305Y337787D02*
X290735Y337787D01*
X290735Y340263D02*
X283305Y340263D01*
X268065Y340265D02*
X268065Y332835D01*
X268065Y340265D02*
X275495Y340265D01*
X275495Y332835D01*
X268065Y332835D01*
X268065Y335311D02*
X275495Y335311D01*
X275495Y337787D02*
X268065Y337787D01*
X268065Y340263D02*
X275495Y340263D01*
X268065Y325025D02*
X268065Y317595D01*
X268065Y325025D02*
X275495Y325025D01*
X275495Y317595D01*
X268065Y317595D01*
X268065Y320071D02*
X275495Y320071D01*
X275495Y322547D02*
X268065Y322547D01*
X268065Y325023D02*
X275495Y325023D01*
D21*
X284460Y278000D03*
X284460Y266000D03*
X284460Y254000D03*
X284460Y242000D03*
X284460Y230000D03*
X284460Y218000D03*
X284460Y206000D03*
X284460Y194000D03*
X284460Y182000D03*
X284460Y170000D03*
X284460Y158000D03*
X284460Y146000D03*
X284460Y134000D03*
X284460Y122000D03*
D22*
X306460Y105000D03*
X318460Y105000D03*
X330460Y105000D03*
X342460Y105000D03*
X354460Y105000D03*
X366460Y105000D03*
X378460Y105000D03*
X390460Y105000D03*
X402460Y105000D03*
X414460Y105000D03*
X426460Y105000D03*
X438460Y105000D03*
X450460Y105000D03*
D21*
X472460Y122000D03*
X472460Y134000D03*
X472460Y146000D03*
X472460Y158000D03*
X472460Y170000D03*
X472460Y182000D03*
X472460Y194000D03*
X472460Y206000D03*
X472460Y218000D03*
X472460Y230000D03*
X472460Y242000D03*
X472460Y254000D03*
X472460Y266000D03*
X472460Y278000D03*
D22*
X450460Y295000D03*
X438460Y295000D03*
X426460Y295000D03*
X414460Y295000D03*
X402460Y295000D03*
X390460Y295000D03*
X378460Y295000D03*
X366460Y295000D03*
X354460Y295000D03*
X342460Y295000D03*
X330460Y295000D03*
X318460Y295000D03*
X306460Y295000D03*
D23*
X359460Y181000D03*
D24*
X336460Y247000D03*
D15*
X485140Y311150D03*
X510540Y311150D03*
X535940Y311150D03*
D25*
X96676Y271492D03*
X103176Y271492D03*
X109676Y271492D03*
X116176Y271492D03*
X116176Y298992D03*
X109676Y298992D03*
X103176Y298992D03*
X96676Y298992D03*
D26*
X106426Y285242D03*
D13*
X138335Y284385D02*
X138335Y276955D01*
X130905Y276955D01*
X130905Y284385D01*
X138335Y284385D01*
X138335Y279431D02*
X130905Y279431D01*
X130905Y281907D02*
X138335Y281907D01*
X138335Y284383D02*
X130905Y284383D01*
X138335Y292195D02*
X138335Y299625D01*
X138335Y292195D02*
X130905Y292195D01*
X130905Y299625D01*
X138335Y299625D01*
X138335Y294671D02*
X130905Y294671D01*
X130905Y297147D02*
X138335Y297147D01*
X138335Y299623D02*
X130905Y299623D01*
X94393Y235363D02*
X94393Y227933D01*
X86963Y227933D01*
X86963Y235363D01*
X94393Y235363D01*
X94393Y230409D02*
X86963Y230409D01*
X86963Y232885D02*
X94393Y232885D01*
X94393Y235361D02*
X86963Y235361D01*
X94393Y243173D02*
X94393Y250603D01*
X94393Y243173D02*
X86963Y243173D01*
X86963Y250603D01*
X94393Y250603D01*
X94393Y245649D02*
X86963Y245649D01*
X86963Y248125D02*
X94393Y248125D01*
X94393Y250601D02*
X86963Y250601D01*
D27*
X101600Y388620D03*
X101600Y358140D03*
D28*
X127000Y388620D03*
X76200Y388620D03*
X76200Y358140D03*
X127000Y358140D03*
D13*
X260255Y325025D02*
X260255Y317595D01*
X252825Y317595D01*
X252825Y325025D01*
X260255Y325025D01*
X260255Y320071D02*
X252825Y320071D01*
X252825Y322547D02*
X260255Y322547D01*
X260255Y325023D02*
X252825Y325023D01*
X260255Y332835D02*
X260255Y340265D01*
X260255Y332835D02*
X252825Y332835D01*
X252825Y340265D01*
X260255Y340265D01*
X260255Y335311D02*
X252825Y335311D01*
X252825Y337787D02*
X260255Y337787D01*
X260255Y340263D02*
X252825Y340263D01*
X-86011Y183801D02*
X-86011Y176371D01*
X-86011Y183801D02*
X-78581Y183801D01*
X-78581Y176371D01*
X-86011Y176371D01*
X-86011Y178847D02*
X-78581Y178847D01*
X-78581Y181323D02*
X-86011Y181323D01*
X-86011Y183799D02*
X-78581Y183799D01*
X-86011Y168561D02*
X-86011Y161131D01*
X-86011Y168561D02*
X-78581Y168561D01*
X-78581Y161131D01*
X-86011Y161131D01*
X-86011Y163607D02*
X-78581Y163607D01*
X-78581Y166083D02*
X-86011Y166083D01*
X-86011Y168559D02*
X-78581Y168559D01*
X233775Y238347D02*
X241205Y238347D01*
X233775Y238347D02*
X233775Y245777D01*
X241205Y245777D01*
X241205Y238347D01*
X241205Y240823D02*
X233775Y240823D01*
X233775Y243299D02*
X241205Y243299D01*
X241205Y245775D02*
X233775Y245775D01*
X249015Y238347D02*
X256445Y238347D01*
X249015Y238347D02*
X249015Y245777D01*
X256445Y245777D01*
X256445Y238347D01*
X256445Y240823D02*
X249015Y240823D01*
X249015Y243299D02*
X256445Y243299D01*
X256445Y245775D02*
X249015Y245775D01*
X241205Y224885D02*
X233775Y224885D01*
X233775Y232315D01*
X241205Y232315D01*
X241205Y224885D01*
X241205Y227361D02*
X233775Y227361D01*
X233775Y229837D02*
X241205Y229837D01*
X241205Y232313D02*
X233775Y232313D01*
X249015Y224885D02*
X256445Y224885D01*
X249015Y224885D02*
X249015Y232315D01*
X256445Y232315D01*
X256445Y224885D01*
X256445Y227361D02*
X249015Y227361D01*
X249015Y229837D02*
X256445Y229837D01*
X256445Y232313D02*
X249015Y232313D01*
D29*
X220990Y205740D03*
X253990Y205740D03*
D13*
X-92551Y168561D02*
X-92551Y161131D01*
X-99981Y161131D01*
X-99981Y168561D01*
X-92551Y168561D01*
X-92551Y163607D02*
X-99981Y163607D01*
X-99981Y166083D02*
X-92551Y166083D01*
X-92551Y168559D02*
X-99981Y168559D01*
X-92551Y176371D02*
X-92551Y183801D01*
X-92551Y176371D02*
X-99981Y176371D01*
X-99981Y183801D01*
X-92551Y183801D01*
X-92551Y178847D02*
X-99981Y178847D01*
X-99981Y181323D02*
X-92551Y181323D01*
X-92551Y183799D02*
X-99981Y183799D01*
D30*
X96680Y339700D03*
X96680Y320700D03*
X117680Y330200D03*
D13*
X152495Y299625D02*
X152495Y292195D01*
X152495Y299625D02*
X159925Y299625D01*
X159925Y292195D01*
X152495Y292195D01*
X152495Y294671D02*
X159925Y294671D01*
X159925Y297147D02*
X152495Y297147D01*
X152495Y299623D02*
X159925Y299623D01*
X152495Y284385D02*
X152495Y276955D01*
X152495Y284385D02*
X159925Y284385D01*
X159925Y276955D01*
X152495Y276955D01*
X152495Y279431D02*
X159925Y279431D01*
X159925Y281907D02*
X152495Y281907D01*
X152495Y284383D02*
X159925Y284383D01*
X147415Y332835D02*
X147415Y340265D01*
X154845Y340265D01*
X154845Y332835D01*
X147415Y332835D01*
X147415Y335311D02*
X154845Y335311D01*
X154845Y337787D02*
X147415Y337787D01*
X147415Y340263D02*
X154845Y340263D01*
X147415Y325025D02*
X147415Y317595D01*
X147415Y325025D02*
X154845Y325025D01*
X154845Y317595D01*
X147415Y317595D01*
X147415Y320071D02*
X154845Y320071D01*
X154845Y322547D02*
X147415Y322547D01*
X147415Y325023D02*
X154845Y325023D01*
X128365Y332835D02*
X128365Y340265D01*
X135795Y340265D01*
X135795Y332835D01*
X128365Y332835D01*
X128365Y335311D02*
X135795Y335311D01*
X135795Y337787D02*
X128365Y337787D01*
X128365Y340263D02*
X135795Y340263D01*
X128365Y325025D02*
X128365Y317595D01*
X128365Y325025D02*
X135795Y325025D01*
X135795Y317595D01*
X128365Y317595D01*
X128365Y320071D02*
X135795Y320071D01*
X135795Y322547D02*
X128365Y322547D01*
X128365Y325023D02*
X135795Y325023D01*
D31*
X248800Y134730D03*
D32*
X241300Y134730D03*
D31*
X233800Y134730D03*
X233800Y116730D03*
D32*
X241300Y116730D03*
D31*
X248800Y116730D03*
D33*
X198120Y255594D03*
X198120Y296094D03*
X232410Y301174D03*
X232410Y260674D03*
D34*
X166370Y196436D03*
X166370Y186436D03*
X166370Y176436D03*
D35*
X-28702Y81026D03*
X-28702Y89026D03*
X-28702Y97026D03*
X-28702Y105026D03*
X-28702Y113026D03*
D36*
X-88182Y53851D03*
X-32302Y53851D03*
X-32302Y140211D03*
X-88182Y140211D03*
D37*
X-57702Y75026D03*
X-57702Y119026D03*
D38*
X144272Y124400D03*
X144272Y132400D03*
X144272Y140400D03*
X144272Y148400D03*
X144272Y156400D03*
X144272Y164400D03*
X144272Y172400D03*
X144272Y180400D03*
D39*
X129346Y195326D03*
X121346Y195326D03*
X113346Y195326D03*
X105346Y195326D03*
X97346Y195326D03*
X89346Y195326D03*
X81346Y195326D03*
X73346Y195326D03*
D38*
X58420Y180400D03*
X58420Y172400D03*
X58420Y164400D03*
X58420Y156400D03*
X58420Y148400D03*
X58420Y140400D03*
X58420Y132400D03*
X58420Y124400D03*
D39*
X73346Y109474D03*
X81346Y109474D03*
X89346Y109474D03*
X97346Y109474D03*
X105346Y109474D03*
X113346Y109474D03*
X121346Y109474D03*
X129346Y109474D03*
D40*
X208280Y103124D03*
X208280Y63119D03*
D41*
X-13294Y151130D03*
X7706Y151130D03*
X6436Y185928D03*
X-14564Y185928D03*
X-13802Y166370D03*
X7198Y166370D03*
D13*
X33115Y164433D02*
X33115Y171863D01*
X40545Y171863D01*
X40545Y164433D01*
X33115Y164433D01*
X33115Y166909D02*
X40545Y166909D01*
X40545Y169385D02*
X33115Y169385D01*
X33115Y171861D02*
X40545Y171861D01*
X33115Y156623D02*
X33115Y149193D01*
X33115Y156623D02*
X40545Y156623D01*
X40545Y149193D01*
X33115Y149193D01*
X33115Y151669D02*
X40545Y151669D01*
X40545Y154145D02*
X33115Y154145D01*
X33115Y156621D02*
X40545Y156621D01*
X18637Y164433D02*
X18637Y171863D01*
X26067Y171863D01*
X26067Y164433D01*
X18637Y164433D01*
X18637Y166909D02*
X26067Y166909D01*
X26067Y169385D02*
X18637Y169385D01*
X18637Y171861D02*
X26067Y171861D01*
X18637Y156623D02*
X18637Y149193D01*
X18637Y156623D02*
X26067Y156623D01*
X26067Y149193D01*
X18637Y149193D01*
X18637Y151669D02*
X26067Y151669D01*
X26067Y154145D02*
X18637Y154145D01*
X18637Y156621D02*
X26067Y156621D01*
X181197Y47657D02*
X188627Y47657D01*
X188627Y40227D01*
X181197Y40227D01*
X181197Y47657D01*
X181197Y42703D02*
X188627Y42703D01*
X188627Y45179D02*
X181197Y45179D01*
X181197Y47655D02*
X188627Y47655D01*
X173387Y47657D02*
X165957Y47657D01*
X173387Y47657D02*
X173387Y40227D01*
X165957Y40227D01*
X165957Y47657D01*
X165957Y42703D02*
X173387Y42703D01*
X173387Y45179D02*
X165957Y45179D01*
X165957Y47655D02*
X173387Y47655D01*
X-21431Y206597D02*
X-28861Y206597D01*
X-28861Y214027D01*
X-21431Y214027D01*
X-21431Y206597D01*
X-21431Y209073D02*
X-28861Y209073D01*
X-28861Y211549D02*
X-21431Y211549D01*
X-21431Y214025D02*
X-28861Y214025D01*
X-13621Y206597D02*
X-6191Y206597D01*
X-13621Y206597D02*
X-13621Y214027D01*
X-6191Y214027D01*
X-6191Y206597D01*
X-6191Y209073D02*
X-13621Y209073D01*
X-13621Y211549D02*
X-6191Y211549D01*
X-6191Y214025D02*
X-13621Y214025D01*
X6699Y207105D02*
X14129Y207105D01*
X6699Y207105D02*
X6699Y214535D01*
X14129Y214535D01*
X14129Y207105D01*
X14129Y209581D02*
X6699Y209581D01*
X6699Y212057D02*
X14129Y212057D01*
X14129Y214533D02*
X6699Y214533D01*
X21939Y207105D02*
X29369Y207105D01*
X21939Y207105D02*
X21939Y214535D01*
X29369Y214535D01*
X29369Y207105D01*
X29369Y209581D02*
X21939Y209581D01*
X21939Y212057D02*
X29369Y212057D01*
X29369Y214533D02*
X21939Y214533D01*
X95853Y75025D02*
X103283Y75025D01*
X95853Y75025D02*
X95853Y82455D01*
X103283Y82455D01*
X103283Y75025D01*
X103283Y77501D02*
X95853Y77501D01*
X95853Y79977D02*
X103283Y79977D01*
X103283Y82453D02*
X95853Y82453D01*
X111093Y75025D02*
X118523Y75025D01*
X111093Y75025D02*
X111093Y82455D01*
X118523Y82455D01*
X118523Y75025D01*
X118523Y77501D02*
X111093Y77501D01*
X111093Y79977D02*
X118523Y79977D01*
X118523Y82453D02*
X111093Y82453D01*
X146399Y90329D02*
X153829Y90329D01*
X153829Y82899D01*
X146399Y82899D01*
X146399Y90329D01*
X146399Y85375D02*
X153829Y85375D01*
X153829Y87851D02*
X146399Y87851D01*
X146399Y90327D02*
X153829Y90327D01*
X138589Y90329D02*
X131159Y90329D01*
X138589Y90329D02*
X138589Y82899D01*
X131159Y82899D01*
X131159Y90329D01*
X131159Y85375D02*
X138589Y85375D01*
X138589Y87851D02*
X131159Y87851D01*
X131159Y90327D02*
X138589Y90327D01*
D42*
X3810Y54356D03*
X26924Y54356D03*
X50038Y54356D03*
D43*
X26924Y116334D03*
D13*
X96107Y59531D02*
X103537Y59531D01*
X96107Y59531D02*
X96107Y66961D01*
X103537Y66961D01*
X103537Y59531D01*
X103537Y62007D02*
X96107Y62007D01*
X96107Y64483D02*
X103537Y64483D01*
X103537Y66959D02*
X96107Y66959D01*
X111347Y59531D02*
X118777Y59531D01*
X111347Y59531D02*
X111347Y66961D01*
X118777Y66961D01*
X118777Y59531D01*
X118777Y62007D02*
X111347Y62007D01*
X111347Y64483D02*
X118777Y64483D01*
X118777Y66959D02*
X111347Y66959D01*
X103283Y44799D02*
X95853Y44799D01*
X95853Y52229D01*
X103283Y52229D01*
X103283Y44799D01*
X103283Y47275D02*
X95853Y47275D01*
X95853Y49751D02*
X103283Y49751D01*
X103283Y52227D02*
X95853Y52227D01*
X111093Y44799D02*
X118523Y44799D01*
X111093Y44799D02*
X111093Y52229D01*
X118523Y52229D01*
X118523Y44799D01*
X118523Y47275D02*
X111093Y47275D01*
X111093Y49751D02*
X118523Y49751D01*
X118523Y52227D02*
X111093Y52227D01*
D29*
X168392Y65024D03*
X135392Y65024D03*
D13*
X17177Y140621D02*
X9747Y140621D01*
X17177Y140621D02*
X17177Y133191D01*
X9747Y133191D01*
X9747Y140621D01*
X9747Y135667D02*
X17177Y135667D01*
X17177Y138143D02*
X9747Y138143D01*
X9747Y140619D02*
X17177Y140619D01*
X1937Y140621D02*
X-5493Y140621D01*
X1937Y140621D02*
X1937Y133191D01*
X-5493Y133191D01*
X-5493Y140621D01*
X-5493Y135667D02*
X1937Y135667D01*
X1937Y138143D02*
X-5493Y138143D01*
X-5493Y140619D02*
X1937Y140619D01*
X135731Y40481D02*
X143161Y40481D01*
X135731Y40481D02*
X135731Y47911D01*
X143161Y47911D01*
X143161Y40481D01*
X143161Y42957D02*
X135731Y42957D01*
X135731Y45433D02*
X143161Y45433D01*
X143161Y47909D02*
X135731Y47909D01*
X150971Y40481D02*
X158401Y40481D01*
X150971Y40481D02*
X150971Y47911D01*
X158401Y47911D01*
X158401Y40481D01*
X158401Y42957D02*
X150971Y42957D01*
X150971Y45433D02*
X158401Y45433D01*
X158401Y47909D02*
X150971Y47909D01*
X72041Y75025D02*
X64611Y75025D01*
X64611Y82455D01*
X72041Y82455D01*
X72041Y75025D01*
X72041Y77501D02*
X64611Y77501D01*
X64611Y79977D02*
X72041Y79977D01*
X72041Y82453D02*
X64611Y82453D01*
X79851Y75025D02*
X87281Y75025D01*
X79851Y75025D02*
X79851Y82455D01*
X87281Y82455D01*
X87281Y75025D01*
X87281Y77501D02*
X79851Y77501D01*
X79851Y79977D02*
X87281Y79977D01*
X87281Y82453D02*
X79851Y82453D01*
D44*
X-42926Y30734D02*
X-42926Y15494D01*
X-17526Y15494D02*
X-17526Y30734D01*
D13*
X5683Y27781D02*
X5683Y35211D01*
X13113Y35211D01*
X13113Y27781D01*
X5683Y27781D01*
X5683Y30257D02*
X13113Y30257D01*
X13113Y32733D02*
X5683Y32733D01*
X5683Y35209D02*
X13113Y35209D01*
X5683Y19971D02*
X5683Y12541D01*
X5683Y19971D02*
X13113Y19971D01*
X13113Y12541D01*
X5683Y12541D01*
X5683Y15017D02*
X13113Y15017D01*
X13113Y17493D02*
X5683Y17493D01*
X5683Y19969D02*
X13113Y19969D01*
D45*
X50546Y261366D03*
X50546Y235966D03*
X25146Y261366D03*
X25146Y235966D03*
X-254Y261366D03*
X-254Y235966D03*
D46*
X-39116Y353060D03*
X-39116Y378460D03*
X-13716Y353060D03*
X-13716Y378460D03*
X11684Y353060D03*
X11684Y378460D03*
X37084Y353060D03*
X37084Y378460D03*
D44*
X188468Y27178D02*
X188468Y11938D01*
X163068Y11938D02*
X163068Y27178D01*
X137668Y27178D02*
X137668Y11938D01*
X112268Y11938D02*
X112268Y27178D01*
X86868Y27178D02*
X86868Y11938D01*
X61468Y11938D02*
X61468Y27178D01*
X36068Y27178D02*
X36068Y11938D01*
D41*
X-56982Y163068D03*
X-35982Y163068D03*
D13*
X-49879Y179419D02*
X-57309Y179419D01*
X-57309Y186849D01*
X-49879Y186849D01*
X-49879Y179419D01*
X-49879Y181895D02*
X-57309Y181895D01*
X-57309Y184371D02*
X-49879Y184371D01*
X-49879Y186847D02*
X-57309Y186847D01*
X-42069Y179419D02*
X-34639Y179419D01*
X-42069Y179419D02*
X-42069Y186849D01*
X-34639Y186849D01*
X-34639Y179419D01*
X-34639Y181895D02*
X-42069Y181895D01*
X-42069Y184371D02*
X-34639Y184371D01*
X-34639Y186847D02*
X-42069Y186847D01*
D47*
X506476Y64008D03*
X466471Y64008D03*
D13*
X499713Y89567D02*
X507143Y89567D01*
X507143Y82137D01*
X499713Y82137D01*
X499713Y89567D01*
X499713Y84613D02*
X507143Y84613D01*
X507143Y87089D02*
X499713Y87089D01*
X499713Y89565D02*
X507143Y89565D01*
X491903Y89567D02*
X484473Y89567D01*
X491903Y89567D02*
X491903Y82137D01*
X484473Y82137D01*
X484473Y89567D01*
X484473Y84613D02*
X491903Y84613D01*
X491903Y87089D02*
X484473Y87089D01*
X484473Y89565D02*
X491903Y89565D01*
X327057Y70009D02*
X319627Y70009D01*
X327057Y70009D02*
X327057Y62579D01*
X319627Y62579D01*
X319627Y70009D01*
X319627Y65055D02*
X327057Y65055D01*
X327057Y67531D02*
X319627Y67531D01*
X319627Y70007D02*
X327057Y70007D01*
X311817Y70009D02*
X304387Y70009D01*
X311817Y70009D02*
X311817Y62579D01*
X304387Y62579D01*
X304387Y70009D01*
X304387Y65055D02*
X311817Y65055D01*
X311817Y67531D02*
X304387Y67531D01*
X304387Y70007D02*
X311817Y70007D01*
X279305Y63341D02*
X271875Y63341D01*
X271875Y70771D01*
X279305Y70771D01*
X279305Y63341D01*
X279305Y65817D02*
X271875Y65817D01*
X271875Y68293D02*
X279305Y68293D01*
X279305Y70769D02*
X271875Y70769D01*
X287115Y63341D02*
X294545Y63341D01*
X287115Y63341D02*
X287115Y70771D01*
X294545Y70771D01*
X294545Y63341D01*
X294545Y65817D02*
X287115Y65817D01*
X287115Y68293D02*
X294545Y68293D01*
X294545Y70769D02*
X287115Y70769D01*
M02*
